%TF.GenerationSoftware,KiCad,Pcbnew,9.0.1-9.0.1-0~ubuntu25.04.1*%
%TF.CreationDate,2025-05-06T20:57:22+10:00*%
%TF.ProjectId,MiniUNO,4d696e69-554e-44f2-9e6b-696361645f70,rev?*%
%TF.SameCoordinates,Original*%
%TF.FileFunction,Drillmap*%
%TF.FilePolarity,Positive*%
%FSLAX45Y45*%
G04 Gerber Fmt 4.5, Leading zero omitted, Abs format (unit mm)*
G04 Created by KiCad (PCBNEW 9.0.1-9.0.1-0~ubuntu25.04.1) date 2025-05-06 20:57:22*
%MOMM*%
%LPD*%
G01*
G04 APERTURE LIST*
%ADD10C,0.050000*%
%ADD11C,0.200000*%
G04 APERTURE END LIST*
D10*
X-900000Y900000D02*
X1300000Y900000D01*
X1300000Y-900000D01*
X-900000Y-900000D01*
X-900000Y900000D01*
D11*
X-641723Y-1213984D02*
X-641723Y-1013984D01*
X-641723Y-1013984D02*
X-594104Y-1013984D01*
X-594104Y-1013984D02*
X-565533Y-1023508D01*
X-565533Y-1023508D02*
X-546485Y-1042555D01*
X-546485Y-1042555D02*
X-536961Y-1061603D01*
X-536961Y-1061603D02*
X-527437Y-1099698D01*
X-527437Y-1099698D02*
X-527437Y-1128270D01*
X-527437Y-1128270D02*
X-536961Y-1166365D01*
X-536961Y-1166365D02*
X-546485Y-1185412D01*
X-546485Y-1185412D02*
X-565533Y-1204460D01*
X-565533Y-1204460D02*
X-594104Y-1213984D01*
X-594104Y-1213984D02*
X-641723Y-1213984D01*
X-441723Y-1213984D02*
X-441723Y-1080650D01*
X-441723Y-1118746D02*
X-432199Y-1099698D01*
X-432199Y-1099698D02*
X-422675Y-1090174D01*
X-422675Y-1090174D02*
X-403628Y-1080650D01*
X-403628Y-1080650D02*
X-384580Y-1080650D01*
X-317914Y-1213984D02*
X-317914Y-1080650D01*
X-317914Y-1013984D02*
X-327437Y-1023508D01*
X-327437Y-1023508D02*
X-317914Y-1033031D01*
X-317914Y-1033031D02*
X-308390Y-1023508D01*
X-308390Y-1023508D02*
X-317914Y-1013984D01*
X-317914Y-1013984D02*
X-317914Y-1033031D01*
X-194104Y-1213984D02*
X-213152Y-1204460D01*
X-213152Y-1204460D02*
X-222675Y-1185412D01*
X-222675Y-1185412D02*
X-222675Y-1013984D01*
X-89342Y-1213984D02*
X-108390Y-1204460D01*
X-108390Y-1204460D02*
X-117914Y-1185412D01*
X-117914Y-1185412D02*
X-117914Y-1013984D01*
X139229Y-1213984D02*
X139229Y-1013984D01*
X139229Y-1013984D02*
X205896Y-1156841D01*
X205896Y-1156841D02*
X272563Y-1013984D01*
X272563Y-1013984D02*
X272563Y-1213984D01*
X453515Y-1213984D02*
X453515Y-1109222D01*
X453515Y-1109222D02*
X443991Y-1090174D01*
X443991Y-1090174D02*
X424943Y-1080650D01*
X424943Y-1080650D02*
X386848Y-1080650D01*
X386848Y-1080650D02*
X367801Y-1090174D01*
X453515Y-1204460D02*
X434467Y-1213984D01*
X434467Y-1213984D02*
X386848Y-1213984D01*
X386848Y-1213984D02*
X367801Y-1204460D01*
X367801Y-1204460D02*
X358277Y-1185412D01*
X358277Y-1185412D02*
X358277Y-1166365D01*
X358277Y-1166365D02*
X367801Y-1147317D01*
X367801Y-1147317D02*
X386848Y-1137793D01*
X386848Y-1137793D02*
X434467Y-1137793D01*
X434467Y-1137793D02*
X453515Y-1128270D01*
X548753Y-1080650D02*
X548753Y-1280650D01*
X548753Y-1090174D02*
X567801Y-1080650D01*
X567801Y-1080650D02*
X605896Y-1080650D01*
X605896Y-1080650D02*
X624944Y-1090174D01*
X624944Y-1090174D02*
X634467Y-1099698D01*
X634467Y-1099698D02*
X643991Y-1118746D01*
X643991Y-1118746D02*
X643991Y-1175889D01*
X643991Y-1175889D02*
X634467Y-1194936D01*
X634467Y-1194936D02*
X624944Y-1204460D01*
X624944Y-1204460D02*
X605896Y-1213984D01*
X605896Y-1213984D02*
X567801Y-1213984D01*
X567801Y-1213984D02*
X548753Y-1204460D01*
X729705Y-1194936D02*
X739229Y-1204460D01*
X739229Y-1204460D02*
X729705Y-1213984D01*
X729705Y-1213984D02*
X720182Y-1204460D01*
X720182Y-1204460D02*
X729705Y-1194936D01*
X729705Y-1194936D02*
X729705Y-1213984D01*
X729705Y-1090174D02*
X739229Y-1099698D01*
X739229Y-1099698D02*
X729705Y-1109222D01*
X729705Y-1109222D02*
X720182Y-1099698D01*
X720182Y-1099698D02*
X729705Y-1090174D01*
X729705Y-1090174D02*
X729705Y-1109222D01*
M02*
