G04 #@! TF.GenerationSoftware,KiCad,Pcbnew,9.0.1-9.0.1-0~ubuntu25.04.1*
G04 #@! TF.CreationDate,2025-05-06T20:57:22+10:00*
G04 #@! TF.ProjectId,MiniUNO,4d696e69-554e-44f2-9e6b-696361645f70,rev?*
G04 #@! TF.SameCoordinates,Original*
G04 #@! TF.FileFunction,Copper,L1,Top*
G04 #@! TF.FilePolarity,Positive*
%FSLAX46Y46*%
G04 Gerber Fmt 4.6, Leading zero omitted, Abs format (unit mm)*
G04 Created by KiCad (PCBNEW 9.0.1-9.0.1-0~ubuntu25.04.1) date 2025-05-06 20:57:22*
%MOMM*%
%LPD*%
G01*
G04 APERTURE LIST*
G04 Aperture macros list*
%AMRoundRect*
0 Rectangle with rounded corners*
0 $1 Rounding radius*
0 $2 $3 $4 $5 $6 $7 $8 $9 X,Y pos of 4 corners*
0 Add a 4 corners polygon primitive as box body*
4,1,4,$2,$3,$4,$5,$6,$7,$8,$9,$2,$3,0*
0 Add four circle primitives for the rounded corners*
1,1,$1+$1,$2,$3*
1,1,$1+$1,$4,$5*
1,1,$1+$1,$6,$7*
1,1,$1+$1,$8,$9*
0 Add four rect primitives between the rounded corners*
20,1,$1+$1,$2,$3,$4,$5,0*
20,1,$1+$1,$4,$5,$6,$7,0*
20,1,$1+$1,$6,$7,$8,$9,0*
20,1,$1+$1,$8,$9,$2,$3,0*%
G04 Aperture macros list end*
G04 #@! TA.AperFunction,SMDPad,CuDef*
%ADD10RoundRect,0.218750X0.218750X0.256250X-0.218750X0.256250X-0.218750X-0.256250X0.218750X-0.256250X0*%
G04 #@! TD*
G04 #@! TA.AperFunction,SMDPad,CuDef*
%ADD11R,1.400000X0.400000*%
G04 #@! TD*
G04 #@! TA.AperFunction,HeatsinkPad*
%ADD12O,1.900000X1.050000*%
G04 #@! TD*
G04 #@! TA.AperFunction,SMDPad,CuDef*
%ADD13R,1.450000X1.150000*%
G04 #@! TD*
G04 #@! TA.AperFunction,SMDPad,CuDef*
%ADD14R,1.900000X1.750000*%
G04 #@! TD*
G04 #@! TA.AperFunction,SMDPad,CuDef*
%ADD15R,1.500000X0.550000*%
G04 #@! TD*
G04 #@! TA.AperFunction,SMDPad,CuDef*
%ADD16R,0.550000X1.500000*%
G04 #@! TD*
G04 #@! TA.AperFunction,ComponentPad*
%ADD17R,1.350000X1.350000*%
G04 #@! TD*
G04 #@! TA.AperFunction,ComponentPad*
%ADD18O,1.350000X1.350000*%
G04 #@! TD*
G04 #@! TA.AperFunction,ComponentPad*
%ADD19C,1.350000*%
G04 #@! TD*
G04 #@! TA.AperFunction,ViaPad*
%ADD20C,0.600000*%
G04 #@! TD*
G04 #@! TA.AperFunction,Conductor*
%ADD21C,0.180000*%
G04 #@! TD*
G04 APERTURE END LIST*
D10*
G04 #@! TO.P,D1,1,K*
G04 #@! TO.N,GND*
X9287500Y5500000D03*
G04 #@! TO.P,D1,2,A*
G04 #@! TO.N,Net-(D1-A)*
X7712500Y5500000D03*
G04 #@! TD*
D11*
G04 #@! TO.P,J1,1,VBUS*
G04 #@! TO.N,VUSB*
X8550000Y-1300000D03*
G04 #@! TO.P,J1,2,D-*
G04 #@! TO.N,Net-(J1-D-)*
X8550000Y-650000D03*
G04 #@! TO.P,J1,3,D+*
G04 #@! TO.N,Net-(J1-D+)*
X8550000Y0D03*
G04 #@! TO.P,J1,4,ID*
G04 #@! TO.N,unconnected-(J1-ID-Pad4)*
X8550000Y650000D03*
G04 #@! TO.P,J1,5,GND*
G04 #@! TO.N,GND*
X8550000Y1300000D03*
D12*
G04 #@! TO.P,J1,6,Shield*
X11200000Y-3575000D03*
D13*
X8970000Y-2320000D03*
D14*
X11200000Y-1125000D03*
X11200000Y1125000D03*
D13*
X8970000Y2320000D03*
D12*
X11200000Y3575000D03*
G04 #@! TD*
D10*
G04 #@! TO.P,D2,1,K*
G04 #@! TO.N,GND*
X9287500Y-5500000D03*
G04 #@! TO.P,D2,2,A*
G04 #@! TO.N,Net-(D2-A)*
X7712500Y-5500000D03*
G04 #@! TD*
D15*
G04 #@! TO.P,U1,1,PE6*
G04 #@! TO.N,D7*
X5700000Y-4000000D03*
G04 #@! TO.P,U1,2,UVCC*
G04 #@! TO.N,+5V*
X5700000Y-3200000D03*
G04 #@! TO.P,U1,3,D-*
G04 #@! TO.N,D-*
X5700000Y-2400000D03*
G04 #@! TO.P,U1,4,D+*
G04 #@! TO.N,D+*
X5700000Y-1600000D03*
G04 #@! TO.P,U1,5,UGND*
G04 #@! TO.N,GND*
X5700000Y-800000D03*
G04 #@! TO.P,U1,6,UCAP*
G04 #@! TO.N,UCAP*
X5700000Y0D03*
G04 #@! TO.P,U1,7,VBUS*
G04 #@! TO.N,VUSB*
X5700000Y800000D03*
G04 #@! TO.P,U1,8,PB0*
G04 #@! TO.N,SS*
X5700000Y1600000D03*
G04 #@! TO.P,U1,9,PB1*
G04 #@! TO.N,SCK*
X5700000Y2400000D03*
G04 #@! TO.P,U1,10,PB2*
G04 #@! TO.N,MOSI*
X5700000Y3200000D03*
G04 #@! TO.P,U1,11,PB3*
G04 #@! TO.N,MISO*
X5700000Y4000000D03*
D16*
G04 #@! TO.P,U1,12,PB7*
G04 #@! TO.N,D11*
X4000000Y5700000D03*
G04 #@! TO.P,U1,13,~{RESET}*
G04 #@! TO.N,RESET*
X3200000Y5700000D03*
G04 #@! TO.P,U1,14,VCC*
G04 #@! TO.N,+5V*
X2400000Y5700000D03*
G04 #@! TO.P,U1,15,GND*
G04 #@! TO.N,GND*
X1600000Y5700000D03*
G04 #@! TO.P,U1,16,XTAL2*
G04 #@! TO.N,XTAL2*
X800000Y5700000D03*
G04 #@! TO.P,U1,17,XTAL1*
G04 #@! TO.N,XTAL1*
X0Y5700000D03*
G04 #@! TO.P,U1,18,PD0*
G04 #@! TO.N,D3{slash}SCL*
X-800000Y5700000D03*
G04 #@! TO.P,U1,19,PD1*
G04 #@! TO.N,D2{slash}SDA*
X-1600000Y5700000D03*
G04 #@! TO.P,U1,20,PD2*
G04 #@! TO.N,D0{slash}RX*
X-2400000Y5700000D03*
G04 #@! TO.P,U1,21,PD3*
G04 #@! TO.N,D1{slash}TX*
X-3200000Y5700000D03*
G04 #@! TO.P,U1,22,PD5*
G04 #@! TO.N,CTS*
X-4000000Y5700000D03*
D15*
G04 #@! TO.P,U1,23,GND*
G04 #@! TO.N,GND*
X-5700000Y4000000D03*
G04 #@! TO.P,U1,24,AVCC*
G04 #@! TO.N,+5V*
X-5700000Y3200000D03*
G04 #@! TO.P,U1,25,PD4*
G04 #@! TO.N,D4*
X-5700000Y2400000D03*
G04 #@! TO.P,U1,26,PD6*
G04 #@! TO.N,D12*
X-5700000Y1600000D03*
G04 #@! TO.P,U1,27,PD7*
G04 #@! TO.N,D6*
X-5700000Y800000D03*
G04 #@! TO.P,U1,28,PB4*
G04 #@! TO.N,D8*
X-5700000Y0D03*
G04 #@! TO.P,U1,29,PB5*
G04 #@! TO.N,D9*
X-5700000Y-800000D03*
G04 #@! TO.P,U1,30,PB6*
G04 #@! TO.N,D10*
X-5700000Y-1600000D03*
G04 #@! TO.P,U1,31,PC6*
G04 #@! TO.N,D5*
X-5700000Y-2400000D03*
G04 #@! TO.P,U1,32,PC7*
G04 #@! TO.N,D13{slash}USER_LED*
X-5700000Y-3200000D03*
G04 #@! TO.P,U1,33,~{HWB}/PE2*
G04 #@! TO.N,Net-(U1-~{HWB}{slash}PE2)*
X-5700000Y-4000000D03*
D16*
G04 #@! TO.P,U1,34,VCC*
G04 #@! TO.N,+5V*
X-4000000Y-5700000D03*
G04 #@! TO.P,U1,35,GND*
G04 #@! TO.N,GND*
X-3200000Y-5700000D03*
G04 #@! TO.P,U1,36,PF7*
G04 #@! TO.N,A0*
X-2400000Y-5700000D03*
G04 #@! TO.P,U1,37,PF6*
G04 #@! TO.N,A1*
X-1600000Y-5700000D03*
G04 #@! TO.P,U1,38,PF5*
G04 #@! TO.N,A2*
X-800000Y-5700000D03*
G04 #@! TO.P,U1,39,PF4*
G04 #@! TO.N,A3*
X0Y-5700000D03*
G04 #@! TO.P,U1,40,PF1*
G04 #@! TO.N,A4*
X800000Y-5700000D03*
G04 #@! TO.P,U1,41,PF0*
G04 #@! TO.N,A5*
X1600000Y-5700000D03*
G04 #@! TO.P,U1,42,AREF*
G04 #@! TO.N,AREF*
X2400000Y-5700000D03*
G04 #@! TO.P,U1,43,GND*
G04 #@! TO.N,GND*
X3200000Y-5700000D03*
G04 #@! TO.P,U1,44,AVCC*
G04 #@! TO.N,+5V*
X4000000Y-5700000D03*
G04 #@! TD*
D17*
G04 #@! TO.P,J3,1,Pin_1*
G04 #@! TO.N,GND*
X12000000Y-8000000D03*
D18*
G04 #@! TO.P,J3,2,Pin_2*
G04 #@! TO.N,VIN*
X10000000Y-8000000D03*
G04 #@! TO.P,J3,3,Pin_3*
G04 #@! TO.N,A5*
X8000000Y-8000000D03*
G04 #@! TO.P,J3,4,Pin_4*
G04 #@! TO.N,A4*
X6000000Y-8000000D03*
G04 #@! TO.P,J3,5,Pin_5*
G04 #@! TO.N,A3*
X4000000Y-8000000D03*
G04 #@! TO.P,J3,6,Pin_6*
G04 #@! TO.N,A2*
X2000000Y-8000000D03*
G04 #@! TO.P,J3,7,Pin_7*
G04 #@! TO.N,A1*
X0Y-8000000D03*
G04 #@! TO.P,J3,8,Pin_8*
G04 #@! TO.N,A0*
X-2000000Y-8000000D03*
G04 #@! TO.P,J3,9,Pin_9*
G04 #@! TO.N,D13{slash}USER_LED*
X-4000000Y-8000000D03*
G04 #@! TO.P,J3,10,Pin_10*
G04 #@! TO.N,D12*
X-6000000Y-8000000D03*
G04 #@! TO.P,J3,11,Pin_11*
G04 #@! TO.N,D11*
X-8000000Y-8000000D03*
G04 #@! TD*
D17*
G04 #@! TO.P,J2,1,Pin_1*
G04 #@! TO.N,+5V*
X12000000Y8000000D03*
D18*
G04 #@! TO.P,J2,2,Pin_2*
G04 #@! TO.N,RESET*
X10000000Y8000000D03*
G04 #@! TO.P,J2,3,Pin_3*
G04 #@! TO.N,SS*
X8000000Y8000000D03*
G04 #@! TO.P,J2,4,Pin_4*
G04 #@! TO.N,SCK*
X6000000Y8000000D03*
G04 #@! TO.P,J2,5,Pin_5*
G04 #@! TO.N,MOSI*
X4000000Y8000000D03*
G04 #@! TO.P,J2,6,Pin_6*
G04 #@! TO.N,MISO*
X2000000Y8000000D03*
G04 #@! TO.P,J2,7,Pin_7*
G04 #@! TO.N,CTS*
X0Y8000000D03*
G04 #@! TO.P,J2,8,Pin_8*
G04 #@! TO.N,D0{slash}RX*
X-2000000Y8000000D03*
G04 #@! TO.P,J2,9,Pin_9*
G04 #@! TO.N,D1{slash}TX*
X-4000000Y8000000D03*
G04 #@! TO.P,J2,10,Pin_10*
G04 #@! TO.N,D2{slash}SDA*
X-6000000Y8000000D03*
G04 #@! TO.P,J2,11,Pin_11*
G04 #@! TO.N,D3{slash}SCL*
X-8000000Y8000000D03*
G04 #@! TD*
D19*
G04 #@! TO.P,J4,1,Pin_1*
G04 #@! TO.N,D4*
X-8000000Y6000000D03*
D18*
G04 #@! TO.P,J4,2,Pin_2*
G04 #@! TO.N,D5*
X-8000000Y4000000D03*
G04 #@! TO.P,J4,3,Pin_3*
G04 #@! TO.N,D6*
X-8000000Y2000000D03*
G04 #@! TO.P,J4,4,Pin_4*
G04 #@! TO.N,D7*
X-8000000Y0D03*
G04 #@! TO.P,J4,5,Pin_5*
G04 #@! TO.N,D8*
X-8000000Y-2000000D03*
G04 #@! TO.P,J4,6,Pin_6*
G04 #@! TO.N,D9*
X-8000000Y-4000000D03*
G04 #@! TO.P,J4,7,Pin_7*
G04 #@! TO.N,D10*
X-8000000Y-6000000D03*
G04 #@! TD*
D20*
G04 #@! TO.N,D-*
X273700Y-1259500D03*
G04 #@! TO.N,D+*
X4162100Y-1480000D03*
G04 #@! TO.N,VUSB*
X6897300Y164000D03*
G04 #@! TO.N,UCAP*
X4079300Y1121400D03*
G04 #@! TO.N,AREF*
X2455600Y-3884500D03*
G04 #@! TO.N,D7*
X-598500Y-3399200D03*
G04 #@! TO.N,Net-(D2-A)*
X1662400Y-933100D03*
X4151700Y-152400D03*
X6207900Y-5228600D03*
G04 #@! TO.N,D11*
X-5478900Y-6835300D03*
X-2788400Y-7040400D03*
X2527700Y1706200D03*
G04 #@! TO.N,CTS*
X-4790800Y5859200D03*
G04 #@! TO.N,D5*
X-4514600Y-2238600D03*
G04 #@! TO.N,A4*
X2905000Y-4427600D03*
G04 #@! TO.N,D13{slash}USER_LED*
X-6224600Y-5285400D03*
G04 #@! TO.N,+5V*
X7701400Y-2761700D03*
X-4538300Y3106000D03*
X-124300Y1607000D03*
X2015300Y6878700D03*
X9507300Y-3839300D03*
G04 #@! TO.N,Net-(U1-~{HWB}{slash}PE2)*
X-6557700Y-6042700D03*
G04 #@! TO.N,Net-(J1-D-)*
X1348200Y-3350400D03*
G04 #@! TO.N,Net-(J1-D+)*
X9276500Y3513800D03*
G04 #@! TO.N,Net-(D1-A)*
X5723500Y6223900D03*
G04 #@! TO.N,RESET*
X-1235500Y-663700D03*
X2758500Y7197000D03*
G04 #@! TO.N,XTAL2*
X-664400Y3202600D03*
G04 #@! TO.N,GND*
X5067100Y-6618500D03*
X-2435400Y-3178800D03*
X-2423200Y2167100D03*
X11042100Y6969700D03*
X2937700Y-991800D03*
G04 #@! TO.N,XTAL1*
X-50000Y6912500D03*
G04 #@! TD*
D21*
G04 #@! TO.N,GND*
X5067100Y-6641700D02*
X5067100Y-6618500D01*
G04 #@! TO.N,A2*
X-800000Y-5700000D02*
X-800000Y-6630000D01*
X-800000Y-6630000D02*
X-296000Y-7134000D01*
X-296000Y-7134000D02*
X498106Y-7134000D01*
X498106Y-7134000D02*
X1364106Y-8000000D01*
X1364106Y-8000000D02*
X2000000Y-8000000D01*
G04 #@! TO.N,VUSB*
X5700000Y800000D02*
X6261300Y800000D01*
X6261300Y800000D02*
X6897300Y164000D01*
G04 #@! TO.N,D6*
X-8000000Y2000000D02*
X-6800000Y800000D01*
X-6800000Y800000D02*
X-5700000Y800000D01*
G04 #@! TO.N,D8*
X-8000000Y-2000000D02*
X-8000000Y-1358300D01*
X-8000000Y-1358300D02*
X-6641700Y0D01*
X-6641700Y0D02*
X-5700000Y0D01*
G04 #@! TO.N,D9*
X-8000000Y-4000000D02*
X-8000000Y-3224709D01*
X-8000000Y-3224709D02*
X-6922000Y-2146709D01*
X-6922000Y-1092000D02*
X-6630000Y-800000D01*
X-6922000Y-2146709D02*
X-6922000Y-1092000D01*
X-6630000Y-800000D02*
X-5700000Y-800000D01*
G04 #@! TO.N,D10*
X-8000000Y-6000000D02*
X-7134000Y-5134000D01*
X-7134000Y-5134000D02*
X-7134000Y-3034000D01*
X-7134000Y-3034000D02*
X-6641000Y-2541000D01*
X-6641000Y-2541000D02*
X-6641000Y-1611000D01*
X-6641000Y-1611000D02*
X-6630000Y-1600000D01*
X-6630000Y-1600000D02*
X-5700000Y-1600000D01*
G04 #@! TO.N,A1*
X-1600000Y-5700000D02*
X-1600000Y-6400000D01*
X-1600000Y-6400000D02*
X0Y-8000000D01*
G04 #@! TO.N,A3*
X4000000Y-8000000D02*
X3224709Y-8000000D01*
X684200Y-6922700D02*
X0Y-6238500D01*
X0Y-6238500D02*
X0Y-5700000D01*
X3224709Y-8000000D02*
X2147409Y-6922700D01*
X2147409Y-6922700D02*
X684200Y-6922700D01*
G04 #@! TO.N,SS*
X5700000Y1600000D02*
X6258700Y1600000D01*
X6258700Y1600000D02*
X8639200Y3980500D01*
X8639200Y3980500D02*
X8639200Y6494100D01*
X8639200Y6494100D02*
X8000000Y7133300D01*
X8000000Y7133300D02*
X8000000Y8000000D01*
G04 #@! TO.N,SCK*
X6000000Y8000000D02*
X6350800Y8000000D01*
X6350800Y8000000D02*
X8357500Y5993300D01*
G04 #@! TO.N,MOSI*
X4000000Y8000000D02*
X5039300Y6960700D01*
X5039300Y6960700D02*
X5039300Y6212900D01*
X5039300Y6212900D02*
X6641700Y4610500D01*
X6641700Y4610500D02*
X6641700Y3200000D01*
X6641700Y3200000D02*
X5700000Y3200000D01*
G04 #@! TO.N,MISO*
X2000000Y8000000D02*
X2687100Y8000000D01*
X2687100Y8000000D02*
X3898800Y6788300D01*
G04 #@! TO.N,+5V*
X2015300Y6878700D02*
X2400000Y6494000D01*
X2400000Y6494000D02*
X2400000Y5700000D01*
G04 #@! TO.N,D1{slash}TX*
X-4000000Y8000000D02*
X-3200000Y7200000D01*
X-3200000Y7200000D02*
X-3200000Y5700000D01*
G04 #@! TO.N,D3{slash}SCL*
X-8000000Y8000000D02*
X-8000000Y7940200D01*
X-8000000Y7940200D02*
X-4488300Y4428500D01*
G04 #@! TO.N,D-*
X5700000Y-2400000D02*
X4758300Y-2400000D01*
X4386800Y-2400000D02*
X4758300Y-2400000D01*
X3669900Y-1683100D02*
X4386800Y-2400000D01*
X697300Y-1683100D02*
X3669900Y-1683100D01*
X273700Y-1259500D02*
X697300Y-1683100D01*
G04 #@! TO.N,D+*
X5700000Y-1600000D02*
X4758300Y-1600000D01*
X4638300Y-1480000D02*
X4162100Y-1480000D01*
X4758300Y-1600000D02*
X4638300Y-1480000D01*
X4162100Y-1480000D02*
X4161000Y-1478900D01*
X4161000Y-1478900D02*
X4162100Y-1480000D01*
G04 #@! TO.N,VUSB*
X8550000Y-1300000D02*
X7658300Y-1300000D01*
X6897300Y-539000D02*
X7658300Y-1300000D01*
X6897300Y164000D02*
X6897300Y-539000D01*
G04 #@! TO.N,UCAP*
X4758300Y442400D02*
X4079300Y1121400D01*
X4758300Y0D02*
X4758300Y442400D01*
X5700000Y0D02*
X4758300Y0D01*
G04 #@! TO.N,AREF*
X2400000Y-3940100D02*
X2455600Y-3884500D01*
X2400000Y-5700000D02*
X2400000Y-3940100D01*
X2455600Y-3884500D02*
X2400000Y-3940100D01*
X2400000Y-3940100D02*
X2455600Y-3884500D01*
G04 #@! TO.N,D2{slash}SDA*
X-1600000Y5700000D02*
X-1600000Y4758300D01*
X-6000000Y6372900D02*
X-6000000Y8000000D01*
X-4385400Y4758300D02*
X-6000000Y6372900D01*
X-1600000Y4758300D02*
X-4385400Y4758300D01*
G04 #@! TO.N,D7*
X255800Y-2778000D02*
X-365400Y-3399200D01*
X3248600Y-2778000D02*
X255800Y-2778000D01*
X4470600Y-4000000D02*
X3248600Y-2778000D01*
X5700000Y-4000000D02*
X4470600Y-4000000D01*
X-365400Y-3399200D02*
X-458500Y-3399200D01*
X-458500Y-3399200D02*
X-598500Y-3399200D01*
X-598500Y-3399200D02*
X-570700Y-3399200D01*
X-570700Y-3399200D02*
X-598500Y-3399200D01*
G04 #@! TO.N,Net-(D2-A)*
X2442000Y-152400D02*
X4151700Y-152400D01*
X1660800Y-933600D02*
X2442000Y-152400D01*
X7441100Y-5228600D02*
X7712500Y-5500000D01*
X6207900Y-5228600D02*
X7441100Y-5228600D01*
X1660800Y-933600D02*
X1661300Y-933100D01*
X1661300Y-933100D02*
X1662400Y-933100D01*
X1662400Y-933100D02*
X1661300Y-933100D01*
X1661300Y-933100D02*
X1662400Y-933100D01*
X1662400Y-933100D02*
X1824100Y-1094800D01*
X1824100Y-1094800D02*
X1662400Y-933100D01*
G04 #@! TO.N,D4*
X-5700000Y2400000D02*
X-6641700Y2400000D01*
X-6641700Y4641700D02*
X-8000000Y6000000D01*
X-6641700Y2400000D02*
X-6641700Y4641700D01*
G04 #@! TO.N,D11*
X-2993500Y-6835300D02*
X-2788400Y-7040400D01*
X-5478900Y-6835300D02*
X-2993500Y-6835300D01*
X4000000Y3178500D02*
X4000000Y5700000D01*
X2527700Y1706200D02*
X4000000Y3178500D01*
X2527700Y1706200D02*
X2423000Y1706200D01*
X2423000Y1706200D02*
X2527700Y1706200D01*
X-2788400Y-7040400D02*
X-2967900Y-6860900D01*
X-2967900Y-6860900D02*
X-2788400Y-7040400D01*
G04 #@! TO.N,D0{slash}RX*
X-2400000Y6733300D02*
X-2000000Y7133300D01*
X-2400000Y5700000D02*
X-2400000Y6733300D01*
X-2000000Y8000000D02*
X-2000000Y7133300D01*
G04 #@! TO.N,SCK*
X5700000Y2400000D02*
X6641700Y2400000D01*
X8357500Y4115800D02*
X6641700Y2400000D01*
X8357500Y5993300D02*
X8357500Y4115800D01*
G04 #@! TO.N,D3{slash}SCL*
X-1129800Y4428500D02*
X-800000Y4758300D01*
X-4488300Y4428500D02*
X-1129800Y4428500D01*
X-800000Y5700000D02*
X-800000Y4758300D01*
G04 #@! TO.N,A5*
X8000000Y-8000000D02*
X7133300Y-8000000D01*
X1600000Y-5700000D02*
X1600000Y-6641700D01*
X7133300Y-7820400D02*
X7133300Y-8000000D01*
X6424300Y-7111400D02*
X7133300Y-7820400D01*
X2916900Y-7111400D02*
X6424300Y-7111400D01*
X2447200Y-6641700D02*
X2916900Y-7111400D01*
X1600000Y-6641700D02*
X2447200Y-6641700D01*
G04 #@! TO.N,MISO*
X4207700Y6788300D02*
X3898800Y6788300D01*
X4758300Y6237700D02*
X4207700Y6788300D01*
X4758300Y4000000D02*
X4758300Y6237700D01*
X5700000Y4000000D02*
X4758300Y4000000D01*
G04 #@! TO.N,D12*
X-5700000Y1600000D02*
X-4758300Y1600000D01*
X-6000000Y-8000000D02*
X-6000000Y-7133300D01*
X-6000000Y-6011200D02*
X-6000000Y-7133300D01*
X-4476600Y-4487800D02*
X-6000000Y-6011200D01*
X-4476600Y-3370400D02*
X-4476600Y-4487800D01*
X-4021500Y-2915300D02*
X-4476600Y-3370400D01*
X-4021500Y863200D02*
X-4021500Y-2915300D01*
X-4758300Y1600000D02*
X-4021500Y863200D01*
G04 #@! TO.N,A0*
X-2400000Y-6733300D02*
X-2000000Y-7133300D01*
X-2400000Y-5700000D02*
X-2400000Y-6733300D01*
X-2000000Y-8000000D02*
X-2000000Y-7133300D01*
G04 #@! TO.N,D5*
X-4676000Y-2400000D02*
X-4514600Y-2238600D01*
X-5700000Y-2400000D02*
X-4676000Y-2400000D01*
G04 #@! TO.N,A4*
X800000Y-5700000D02*
X800000Y-4758300D01*
X2986900Y-4345700D02*
X2905000Y-4427600D01*
X2986900Y-3711900D02*
X2986900Y-4345700D01*
X2655600Y-3380600D02*
X2986900Y-3711900D01*
X2177700Y-3380600D02*
X2655600Y-3380600D01*
X800000Y-4758300D02*
X2177700Y-3380600D01*
X2905000Y-4427600D02*
X2986900Y-4345700D01*
X2986900Y-4345700D02*
X2905000Y-4427600D01*
G04 #@! TO.N,D13{slash}USER_LED*
X-5700000Y-3200000D02*
X-4758300Y-3200000D01*
X-5686100Y-5285400D02*
X-6224600Y-5285400D01*
X-4758300Y-4357600D02*
X-5686100Y-5285400D01*
X-4758300Y-3200000D02*
X-4758300Y-4357600D01*
G04 #@! TO.N,+5V*
X-5700000Y3200000D02*
X-4758300Y3200000D01*
X-4664300Y3106000D02*
X-4758300Y3200000D01*
X-4538300Y3106000D02*
X-4664300Y3106000D01*
X5700000Y-3200000D02*
X4758300Y-3200000D01*
X2400000Y5700000D02*
X2400000Y4758300D01*
X-4000000Y-3666700D02*
X-4000000Y-5700000D01*
X-2634100Y-2300800D02*
X-4000000Y-3666700D01*
X-3104700Y1672400D02*
X-4538300Y3106000D01*
X-2634100Y1672400D02*
X-3104700Y1672400D01*
X-191300Y2167000D02*
X-191300Y1674000D01*
X2400000Y4758300D02*
X-191300Y2167000D01*
X-2632500Y1674000D02*
X-2634100Y1672400D01*
X-191300Y1674000D02*
X-2632500Y1674000D01*
X-124300Y1607000D02*
X-191300Y1674000D01*
X3859100Y-2300800D02*
X-2634100Y-2300800D01*
X4758300Y-3200000D02*
X3859100Y-2300800D01*
X-2634100Y1672400D02*
X-2634100Y-2300800D01*
X7263100Y-3200000D02*
X5700000Y-3200000D01*
X7701400Y-2761700D02*
X7263100Y-3200000D01*
X5289400Y-5700000D02*
X4000000Y-5700000D01*
X5792000Y-6202600D02*
X5289400Y-5700000D01*
X8072300Y-6202600D02*
X5792000Y-6202600D01*
X8500000Y-5774900D02*
X8072300Y-6202600D01*
X8500000Y-4846600D02*
X8500000Y-5774900D01*
X9507300Y-3839300D02*
X8500000Y-4846600D01*
G04 #@! TO.N,Net-(U1-~{HWB}{slash}PE2)*
X-6716400Y-5884000D02*
X-6557700Y-6042700D01*
X-6716400Y-5016400D02*
X-6716400Y-5884000D01*
X-5700000Y-4000000D02*
X-6716400Y-5016400D01*
X-6557700Y-6042700D02*
X-6557700Y-6041100D01*
X-6557700Y-6041100D02*
X-6557700Y-6042700D01*
G04 #@! TO.N,Net-(J1-D-)*
X8550000Y-650000D02*
X9441700Y-650000D01*
X1348200Y-3350400D02*
X1199700Y-3350400D01*
X1199700Y-3350400D02*
X1348200Y-3350400D01*
X1632800Y-3065800D02*
X1348200Y-3350400D01*
X3104200Y-3065800D02*
X1632800Y-3065800D01*
X4525400Y-4487000D02*
X3104200Y-3065800D01*
X8109500Y-4487000D02*
X4525400Y-4487000D01*
X9303800Y-3292700D02*
X8109500Y-4487000D01*
X9634800Y-3292700D02*
X9303800Y-3292700D01*
X9918300Y-3009200D02*
X9634800Y-3292700D01*
X9918300Y-1126600D02*
X9918300Y-3009200D01*
X9441700Y-650000D02*
X9918300Y-1126600D01*
G04 #@! TO.N,Net-(J1-D+)*
X7658300Y2582400D02*
X7658300Y0D01*
X8589700Y3513800D02*
X7658300Y2582400D01*
X9276500Y3513800D02*
X8589700Y3513800D01*
X8550000Y0D02*
X7658300Y0D01*
G04 #@! TO.N,Net-(D1-A)*
X6988600Y6223900D02*
X5723500Y6223900D01*
X7712500Y5500000D02*
X6988600Y6223900D01*
G04 #@! TO.N,RESET*
X3200000Y6755500D02*
X2758500Y7197000D01*
X3200000Y5700000D02*
X3200000Y6755500D01*
X3200000Y3771800D02*
X-1235500Y-663700D01*
X3200000Y5700000D02*
X3200000Y3771800D01*
G04 #@! TO.N,XTAL2*
X800000Y4667000D02*
X-664400Y3202600D01*
X800000Y5700000D02*
X800000Y4667000D01*
G04 #@! TO.N,GND*
X11200000Y-3575000D02*
X10058300Y-3575000D01*
X11200000Y3575000D02*
X10058300Y3575000D01*
X12000000Y-8000000D02*
X11133300Y-8000000D01*
X8970000Y-2320000D02*
X8970000Y-2511600D01*
X9246600Y1936700D02*
X10058300Y1125000D01*
X8970000Y1936700D02*
X9246600Y1936700D01*
X8970000Y2320000D02*
X8970000Y1936700D01*
X11200000Y1125000D02*
X10629200Y1125000D01*
X10629200Y1125000D02*
X10058300Y1125000D01*
X5700000Y-800000D02*
X6641700Y-800000D01*
X9883800Y-6641700D02*
X9287500Y-6641700D01*
X11133300Y-7891200D02*
X9883800Y-6641700D01*
X11133300Y-8000000D02*
X11133300Y-7891200D01*
X3200000Y-5700000D02*
X3200000Y-6641700D01*
X-5700000Y4000000D02*
X-4758300Y4000000D01*
X-3200000Y-5700000D02*
X-3200000Y-4758300D01*
X-510100Y2648200D02*
X-2423200Y2648200D01*
X1600000Y4758300D02*
X-510100Y2648200D01*
X-3775000Y4000000D02*
X-4758300Y4000000D01*
X-2423200Y2648200D02*
X-3775000Y4000000D01*
X-2423200Y2648200D02*
X-2423200Y2167100D01*
X-3200000Y-3943400D02*
X-2435400Y-3178800D01*
X-3200000Y-4758300D02*
X-3200000Y-3943400D01*
X9572400Y5500000D02*
X9287500Y5500000D01*
X11042100Y6969700D02*
X9572400Y5500000D01*
X1600000Y5700000D02*
X1600000Y4758300D01*
X8970000Y2320000D02*
X9886700Y2320000D01*
X9993800Y2427100D02*
X9993800Y3575000D01*
X9886700Y2320000D02*
X9993800Y2427100D01*
X10058300Y3575000D02*
X9993800Y3575000D01*
X9287500Y4281300D02*
X9287500Y5500000D01*
X9993800Y3575000D02*
X9287500Y4281300D01*
X8353300Y-2511600D02*
X8970000Y-2511600D01*
X6641700Y-800000D02*
X8353300Y-2511600D01*
X10058300Y-4729200D02*
X10058300Y-3575000D01*
X9287500Y-5500000D02*
X10058300Y-4729200D01*
X9287500Y-6641700D02*
X9287500Y-5500000D01*
X11200000Y554200D02*
X11200000Y-1125000D01*
X10629200Y1125000D02*
X11200000Y554200D01*
X11200000Y-1125000D02*
X11200000Y-3575000D01*
X5700000Y-800000D02*
X4758300Y-800000D01*
X3200000Y-6641700D02*
X5067100Y-6641700D01*
X3129500Y-800000D02*
X4758300Y-800000D01*
X2937700Y-991800D02*
X3129500Y-800000D01*
X-2435400Y-3178800D02*
X-2523600Y-3267000D01*
X-2523600Y-3267000D02*
X-2435400Y-3178800D01*
X5067100Y-6641700D02*
X9287500Y-6641700D01*
G04 #@! TO.N,XTAL1*
X0Y6862500D02*
X0Y5700000D01*
X-50000Y6912500D02*
X0Y6862500D01*
G04 #@! TO.N,CTS*
X-4000000Y5700000D02*
X-4000000Y6641700D01*
X-4790800Y6289400D02*
X-4438500Y6641700D01*
X-4438500Y6641700D02*
X-4000000Y6641700D01*
X-4790800Y5859200D02*
X-4790800Y6289400D01*
G04 #@! TO.N,GND*
X8550000Y1300000D02*
X8716700Y1300000D01*
X8716700Y1300000D02*
X8970000Y1553300D01*
X8970000Y1936700D02*
X8970000Y1553300D01*
G04 #@! TD*
G04 #@! TA.AperFunction,Conductor*
G04 #@! TO.N,GND*
G36*
X9344045Y8485148D02*
G01*
X9358397Y8450500D01*
X9350139Y8423277D01*
X9312758Y8367332D01*
X9312758Y8367331D01*
X9254304Y8226212D01*
X9254299Y8226193D01*
X9224500Y8076385D01*
X9224500Y7923614D01*
X9254299Y7773806D01*
X9254304Y7773787D01*
X9312758Y7632668D01*
X9312758Y7632667D01*
X9397627Y7505650D01*
X9505650Y7397627D01*
X9585843Y7344045D01*
X9632663Y7312761D01*
X9632664Y7312760D01*
X9632668Y7312758D01*
X9773787Y7254304D01*
X9773806Y7254299D01*
X9923614Y7224500D01*
X9923620Y7224500D01*
X10076385Y7224500D01*
X10226193Y7254299D01*
X10226202Y7254301D01*
X10226205Y7254302D01*
X10226206Y7254302D01*
X10226212Y7254304D01*
X10367331Y7312758D01*
X10367332Y7312758D01*
X10367335Y7312760D01*
X10367337Y7312761D01*
X10440277Y7361498D01*
X10494349Y7397627D01*
X10602372Y7505650D01*
X10648081Y7574059D01*
X10687239Y7632663D01*
X10745698Y7773795D01*
X10762407Y7857799D01*
X10775499Y7923614D01*
X10775500Y7923621D01*
X10775500Y8076378D01*
X10775499Y8076385D01*
X10770599Y8101019D01*
X10745698Y8226205D01*
X10687239Y8367337D01*
X10649861Y8423277D01*
X10642545Y8460060D01*
X10663380Y8491242D01*
X10690603Y8499500D01*
X11175500Y8499500D01*
X11210148Y8485148D01*
X11224500Y8450500D01*
X11224500Y7315105D01*
X11224500Y7315104D01*
X11224501Y7315102D01*
X11228193Y7296537D01*
X11230332Y7285784D01*
X11230332Y7285783D01*
X11252542Y7252543D01*
X11285787Y7230330D01*
X11315095Y7224500D01*
X11315101Y7224500D01*
X12450500Y7224500D01*
X12485148Y7210148D01*
X12499500Y7175500D01*
X12499500Y-7176000D01*
X12485148Y-7210648D01*
X12450500Y-7225000D01*
X12050000Y-7225000D01*
X12050000Y-7600000D01*
X11950000Y-7600000D01*
X11950000Y-7225000D01*
X11315155Y-7225000D01*
X11315154Y-7225001D01*
X11285981Y-7230802D01*
X11285977Y-7230804D01*
X11252902Y-7252904D01*
X11230802Y-7285980D01*
X11225000Y-7315154D01*
X11225000Y-7950000D01*
X11600000Y-7950000D01*
X11600000Y-8050000D01*
X11225001Y-8050000D01*
X11225001Y-8450500D01*
X11210649Y-8485148D01*
X11176001Y-8499500D01*
X10690603Y-8499500D01*
X10655955Y-8485148D01*
X10641603Y-8450500D01*
X10649861Y-8423277D01*
X10665414Y-8400000D01*
X10687239Y-8367337D01*
X10745698Y-8226205D01*
X10775500Y-8076380D01*
X10775500Y-7923620D01*
X10745698Y-7773795D01*
X10732591Y-7742153D01*
X10687241Y-7632668D01*
X10687241Y-7632667D01*
X10687239Y-7632664D01*
X10687239Y-7632663D01*
X10644518Y-7568726D01*
X10602372Y-7505650D01*
X10494349Y-7397627D01*
X10423277Y-7350139D01*
X10367337Y-7312761D01*
X10367333Y-7312759D01*
X10367331Y-7312758D01*
X10226212Y-7254304D01*
X10226206Y-7254302D01*
X10226205Y-7254302D01*
X10226202Y-7254301D01*
X10226193Y-7254299D01*
X10076385Y-7224500D01*
X10076380Y-7224500D01*
X9923620Y-7224500D01*
X9923614Y-7224500D01*
X9773806Y-7254299D01*
X9773787Y-7254304D01*
X9632668Y-7312758D01*
X9632664Y-7312760D01*
X9632663Y-7312761D01*
X9611066Y-7327191D01*
X9505650Y-7397627D01*
X9397627Y-7505650D01*
X9312758Y-7632667D01*
X9312758Y-7632668D01*
X9254304Y-7773787D01*
X9254299Y-7773806D01*
X9224500Y-7923614D01*
X9224500Y-8076385D01*
X9254299Y-8226193D01*
X9254304Y-8226212D01*
X9312758Y-8367331D01*
X9312758Y-8367332D01*
X9350139Y-8423277D01*
X9357455Y-8460060D01*
X9336620Y-8491242D01*
X9309397Y-8499500D01*
X8690603Y-8499500D01*
X8655955Y-8485148D01*
X8641603Y-8450500D01*
X8649861Y-8423277D01*
X8665414Y-8400000D01*
X8687239Y-8367337D01*
X8745698Y-8226205D01*
X8775500Y-8076380D01*
X8775500Y-7923620D01*
X8745698Y-7773795D01*
X8732591Y-7742153D01*
X8687241Y-7632668D01*
X8687241Y-7632667D01*
X8687239Y-7632664D01*
X8687239Y-7632663D01*
X8644518Y-7568726D01*
X8602372Y-7505650D01*
X8494349Y-7397627D01*
X8423277Y-7350139D01*
X8367337Y-7312761D01*
X8367333Y-7312759D01*
X8367331Y-7312758D01*
X8226212Y-7254304D01*
X8226206Y-7254302D01*
X8226205Y-7254302D01*
X8226202Y-7254301D01*
X8226193Y-7254299D01*
X8076385Y-7224500D01*
X8076380Y-7224500D01*
X7923620Y-7224500D01*
X7923614Y-7224500D01*
X7773806Y-7254299D01*
X7773787Y-7254304D01*
X7632668Y-7312758D01*
X7632664Y-7312760D01*
X7632663Y-7312761D01*
X7611066Y-7327191D01*
X7505650Y-7397627D01*
X7397627Y-7505650D01*
X7312761Y-7632662D01*
X7312182Y-7634061D01*
X7311819Y-7634423D01*
X7311624Y-7634789D01*
X7311513Y-7634729D01*
X7285662Y-7660579D01*
X7248159Y-7660578D01*
X7232264Y-7649956D01*
X6592690Y-7010383D01*
X6592689Y-7010381D01*
X6592689Y-7010382D01*
X6585798Y-7003490D01*
X6532210Y-6949902D01*
X6516754Y-6943500D01*
X6462194Y-6920900D01*
X6462193Y-6920900D01*
X3016104Y-6920900D01*
X2981456Y-6906548D01*
X2850407Y-6775499D01*
X2699148Y-6624241D01*
X2684797Y-6589594D01*
X2699149Y-6554946D01*
X2701582Y-6552673D01*
X2709734Y-6545559D01*
X2714213Y-6544669D01*
X2747457Y-6522457D01*
X2763176Y-6498929D01*
X2768085Y-6494647D01*
X2780151Y-6490584D01*
X2790739Y-6483510D01*
X2797293Y-6484813D01*
X2803628Y-6482681D01*
X2815033Y-6488341D01*
X2827522Y-6490825D01*
X2834896Y-6498199D01*
X2837221Y-6499353D01*
X2837815Y-6501118D01*
X2841041Y-6504344D01*
X2852903Y-6522096D01*
X2885980Y-6544197D01*
X2915154Y-6549999D01*
X3149999Y-6549999D01*
X3150000Y-6549998D01*
X3150000Y-4850000D01*
X3144871Y-4844872D01*
X3122603Y-4835648D01*
X3108251Y-4801000D01*
X3122603Y-4766352D01*
X3132745Y-4758569D01*
X3150913Y-4748080D01*
X3225480Y-4673513D01*
X3278207Y-4582187D01*
X3305499Y-4480330D01*
X3305500Y-4480330D01*
X3305500Y-4374870D01*
X3305499Y-4374869D01*
X3281392Y-4284899D01*
X3278207Y-4273013D01*
X3278206Y-4273012D01*
X3278206Y-4273010D01*
X3225479Y-4181686D01*
X3191752Y-4147959D01*
X3177400Y-4113311D01*
X3177400Y-3674009D01*
X3177399Y-3674005D01*
X3170991Y-3658535D01*
X3148398Y-3603990D01*
X3094810Y-3550402D01*
X3094808Y-3550401D01*
X3092017Y-3547610D01*
X3092017Y-3547609D01*
X3092013Y-3547606D01*
X2884355Y-3339948D01*
X2870003Y-3305300D01*
X2884355Y-3270652D01*
X2919003Y-3256300D01*
X3004997Y-3256300D01*
X3039644Y-3270651D01*
X4363901Y-4594909D01*
X4363902Y-4594910D01*
X4417490Y-4648498D01*
X4487507Y-4677500D01*
X4487509Y-4677500D01*
X8147391Y-4677500D01*
X8147392Y-4677500D01*
X8147393Y-4677500D01*
X8217410Y-4648498D01*
X8270998Y-4594910D01*
X8270998Y-4594908D01*
X9023152Y-3842754D01*
X9057800Y-3828402D01*
X9092448Y-3842754D01*
X9106800Y-3877402D01*
X9106800Y-3892026D01*
X9116038Y-3926505D01*
X9111142Y-3963688D01*
X9103355Y-3973835D01*
X8554710Y-4522482D01*
X8392091Y-4685101D01*
X8392090Y-4685102D01*
X8365296Y-4711896D01*
X8338502Y-4738689D01*
X8309500Y-4808705D01*
X8309500Y-5078474D01*
X8295148Y-5113122D01*
X8260500Y-5127474D01*
X8225852Y-5113122D01*
X8216091Y-5099183D01*
X8206434Y-5078474D01*
X8196799Y-5057811D01*
X8196797Y-5057809D01*
X8196797Y-5057808D01*
X8117191Y-4978202D01*
X8117189Y-4978201D01*
X8015156Y-4930622D01*
X8015154Y-4930621D01*
X8005854Y-4929396D01*
X7968659Y-4924500D01*
X7968655Y-4924500D01*
X7456345Y-4924500D01*
X7456340Y-4924501D01*
X7409846Y-4930620D01*
X7307811Y-4978200D01*
X7285038Y-5000974D01*
X7262263Y-5023748D01*
X7227617Y-5038100D01*
X6588663Y-5038100D01*
X6554015Y-5023748D01*
X6546228Y-5013601D01*
X6528380Y-4982687D01*
X6453813Y-4908120D01*
X6432223Y-4895655D01*
X6362489Y-4855393D01*
X6362485Y-4855392D01*
X6260630Y-4828100D01*
X6260627Y-4828100D01*
X6155173Y-4828100D01*
X6155170Y-4828100D01*
X6053314Y-4855392D01*
X6053310Y-4855393D01*
X5961986Y-4908120D01*
X5961986Y-4908121D01*
X5887421Y-4982686D01*
X5887420Y-4982686D01*
X5834693Y-5074010D01*
X5834692Y-5074014D01*
X5807400Y-5175869D01*
X5807400Y-5281330D01*
X5834692Y-5383185D01*
X5834693Y-5383189D01*
X5883717Y-5468100D01*
X5887420Y-5474513D01*
X5961987Y-5549080D01*
X5995413Y-5568378D01*
X6053310Y-5601806D01*
X6053312Y-5601806D01*
X6053313Y-5601807D01*
X6133647Y-5623332D01*
X6155169Y-5629099D01*
X6155170Y-5629100D01*
X6155173Y-5629100D01*
X6260630Y-5629100D01*
X6260630Y-5629099D01*
X6362487Y-5601807D01*
X6453813Y-5549080D01*
X6528380Y-5474513D01*
X6546228Y-5443598D01*
X6575982Y-5420769D01*
X6588663Y-5419100D01*
X7125500Y-5419100D01*
X7160148Y-5433452D01*
X7174500Y-5468100D01*
X7174500Y-5793654D01*
X7174501Y-5793659D01*
X7180620Y-5840151D01*
X7180621Y-5840153D01*
X7228201Y-5942189D01*
X7228202Y-5942190D01*
X7228296Y-5942391D01*
X7229932Y-5979859D01*
X7204596Y-6007509D01*
X7183887Y-6012100D01*
X5891203Y-6012100D01*
X5856555Y-5997748D01*
X5457790Y-5598983D01*
X5457789Y-5598981D01*
X5457789Y-5598982D01*
X5450898Y-5592090D01*
X5397310Y-5538502D01*
X5379954Y-5531313D01*
X5327294Y-5509500D01*
X5327293Y-5509500D01*
X4424499Y-5509500D01*
X4389851Y-5495148D01*
X4375499Y-5460500D01*
X4375499Y-4940105D01*
X4375499Y-4940102D01*
X4369669Y-4910787D01*
X4369667Y-4910784D01*
X4369667Y-4910783D01*
X4347457Y-4877543D01*
X4314212Y-4855330D01*
X4284901Y-4849500D01*
X3715105Y-4849500D01*
X3715104Y-4849500D01*
X3715102Y-4849501D01*
X3685787Y-4855331D01*
X3685786Y-4855331D01*
X3685784Y-4855332D01*
X3685783Y-4855332D01*
X3652543Y-4877542D01*
X3652542Y-4877543D01*
X3640440Y-4895655D01*
X3609257Y-4916490D01*
X3572475Y-4909172D01*
X3558957Y-4895654D01*
X3547095Y-4877902D01*
X3514019Y-4855802D01*
X3484846Y-4850000D01*
X3250000Y-4850000D01*
X3250000Y-6549999D01*
X3484845Y-6549999D01*
X3484845Y-6549998D01*
X3514018Y-6544197D01*
X3514022Y-6544195D01*
X3547095Y-6522096D01*
X3558956Y-6504345D01*
X3590138Y-6483509D01*
X3626921Y-6490824D01*
X3640441Y-6504345D01*
X3652541Y-6522455D01*
X3652542Y-6522456D01*
X3652543Y-6522457D01*
X3685787Y-6544669D01*
X3715101Y-6550500D01*
X4284898Y-6550499D01*
X4314213Y-6544669D01*
X4347457Y-6522457D01*
X4369669Y-6489213D01*
X4375500Y-6459899D01*
X4375500Y-5939500D01*
X4389852Y-5904852D01*
X4424500Y-5890500D01*
X5190197Y-5890500D01*
X5224845Y-5904852D01*
X5627706Y-6307713D01*
X5627709Y-6307717D01*
X5627710Y-6307717D01*
X5630501Y-6310508D01*
X5630502Y-6310510D01*
X5684090Y-6364098D01*
X5754107Y-6393100D01*
X5754108Y-6393100D01*
X5754109Y-6393100D01*
X8110191Y-6393100D01*
X8110192Y-6393100D01*
X8110193Y-6393100D01*
X8180210Y-6364098D01*
X8233798Y-6310510D01*
X8233798Y-6310509D01*
X8240689Y-6303618D01*
X8240689Y-6303616D01*
X8661498Y-5882810D01*
X8672776Y-5855581D01*
X8699294Y-5829063D01*
X8736797Y-5829063D01*
X8762455Y-5853624D01*
X8803619Y-5941900D01*
X8883099Y-6021380D01*
X8883101Y-6021381D01*
X8984977Y-6068887D01*
X9031406Y-6074999D01*
X9237499Y-6074999D01*
X9337500Y-6074999D01*
X9543592Y-6074999D01*
X9543597Y-6074998D01*
X9590021Y-6068888D01*
X9691898Y-6021381D01*
X9691900Y-6021380D01*
X9771380Y-5941900D01*
X9771381Y-5941898D01*
X9818887Y-5840022D01*
X9825000Y-5793594D01*
X9825000Y-5550000D01*
X9337500Y-5550000D01*
X9337500Y-6074999D01*
X9237499Y-6074999D01*
X9237500Y-6074998D01*
X9237500Y-5450000D01*
X9337500Y-5450000D01*
X9824999Y-5450000D01*
X9824999Y-5206407D01*
X9824998Y-5206402D01*
X9818888Y-5159978D01*
X9771381Y-5058101D01*
X9771380Y-5058099D01*
X9691900Y-4978619D01*
X9691898Y-4978618D01*
X9590022Y-4931112D01*
X9543594Y-4925000D01*
X9337500Y-4925000D01*
X9337500Y-5450000D01*
X9237500Y-5450000D01*
X9237500Y-4925000D01*
X9031407Y-4925000D01*
X9031402Y-4925001D01*
X8984978Y-4931111D01*
X8883101Y-4978618D01*
X8883099Y-4978619D01*
X8803619Y-5058099D01*
X8803618Y-5058101D01*
X8783909Y-5100368D01*
X8756259Y-5125705D01*
X8718792Y-5124069D01*
X8693455Y-5096419D01*
X8690500Y-5079660D01*
X8690500Y-4945803D01*
X8704852Y-4911155D01*
X9033822Y-4582185D01*
X9372764Y-4243242D01*
X9407411Y-4228891D01*
X9420092Y-4230560D01*
X9427888Y-4232649D01*
X9454571Y-4239800D01*
X9454573Y-4239800D01*
X9560030Y-4239800D01*
X9560030Y-4239799D01*
X9661887Y-4212507D01*
X9753213Y-4159780D01*
X9827780Y-4085213D01*
X9880507Y-3993887D01*
X9907799Y-3892030D01*
X9907800Y-3892030D01*
X9907800Y-3786570D01*
X9907799Y-3786569D01*
X9888650Y-3715104D01*
X9880507Y-3684713D01*
X9880506Y-3684712D01*
X9880506Y-3684710D01*
X9848459Y-3629204D01*
X9845134Y-3623445D01*
X9827780Y-3593387D01*
X9753213Y-3518820D01*
X9752847Y-3518608D01*
X9750312Y-3516088D01*
X9749206Y-3513439D01*
X10150000Y-3513439D01*
X10150000Y-3525000D01*
X10577173Y-3525000D01*
X10575000Y-3530245D01*
X10575000Y-3619755D01*
X10577173Y-3625000D01*
X10150000Y-3625000D01*
X10150000Y-3636560D01*
X10174017Y-3757298D01*
X10174019Y-3757307D01*
X10221130Y-3871044D01*
X10289528Y-3973411D01*
X10376588Y-4060471D01*
X10478955Y-4128869D01*
X10478954Y-4128869D01*
X10592692Y-4175980D01*
X10592701Y-4175982D01*
X10713439Y-4199999D01*
X10713443Y-4200000D01*
X11150000Y-4200000D01*
X11150000Y-3800000D01*
X11250000Y-3800000D01*
X11250000Y-4200000D01*
X11686557Y-4200000D01*
X11686560Y-4199999D01*
X11807298Y-4175982D01*
X11807307Y-4175980D01*
X11921044Y-4128869D01*
X12023411Y-4060471D01*
X12110471Y-3973411D01*
X12178869Y-3871044D01*
X12225980Y-3757307D01*
X12225982Y-3757298D01*
X12249999Y-3636560D01*
X12250000Y-3636557D01*
X12250000Y-3625000D01*
X11822827Y-3625000D01*
X11825000Y-3619755D01*
X11825000Y-3530245D01*
X11822827Y-3525000D01*
X12250000Y-3525000D01*
X12250000Y-3513443D01*
X12249999Y-3513439D01*
X12225982Y-3392701D01*
X12225980Y-3392692D01*
X12178869Y-3278955D01*
X12110471Y-3176588D01*
X12023411Y-3089528D01*
X11921044Y-3021130D01*
X11921045Y-3021130D01*
X11807307Y-2974019D01*
X11807298Y-2974017D01*
X11686560Y-2950000D01*
X11250000Y-2950000D01*
X11250000Y-3350000D01*
X11150000Y-3350000D01*
X11150000Y-2950000D01*
X10713439Y-2950000D01*
X10592701Y-2974017D01*
X10592692Y-2974019D01*
X10478955Y-3021130D01*
X10376588Y-3089528D01*
X10289528Y-3176588D01*
X10221130Y-3278955D01*
X10174019Y-3392692D01*
X10174017Y-3392701D01*
X10150000Y-3513439D01*
X9749206Y-3513439D01*
X9744202Y-3501455D01*
X9736279Y-3487722D01*
X9737135Y-3484530D01*
X9735862Y-3481481D01*
X9741889Y-3466812D01*
X9745998Y-3451500D01*
X9750105Y-3446817D01*
X9750116Y-3446792D01*
X9750134Y-3446784D01*
X9750214Y-3446694D01*
X9770504Y-3426404D01*
X9796298Y-3400610D01*
X9796298Y-3400609D01*
X9803187Y-3393720D01*
X9803188Y-3393717D01*
X10079799Y-3117109D01*
X10108801Y-3047092D01*
X10108801Y-2971307D01*
X10108801Y-2967364D01*
X10108800Y-2967350D01*
X10108800Y-2117594D01*
X10123152Y-2082946D01*
X10157800Y-2068594D01*
X10185023Y-2076852D01*
X10210982Y-2094197D01*
X10240154Y-2099999D01*
X11149999Y-2099999D01*
X11250000Y-2099999D01*
X12159845Y-2099999D01*
X12159845Y-2099998D01*
X12189018Y-2094197D01*
X12189022Y-2094195D01*
X12222097Y-2072095D01*
X12244197Y-2039019D01*
X12250000Y-2009845D01*
X12250000Y-1175000D01*
X11250000Y-1175000D01*
X11250000Y-2099999D01*
X11149999Y-2099999D01*
X11150000Y-2099998D01*
X11150000Y-1075000D01*
X11250000Y-1075000D01*
X12249999Y-1075000D01*
X12249999Y-240155D01*
X12249998Y-240154D01*
X12244197Y-210981D01*
X12244195Y-210977D01*
X12222095Y-177902D01*
X12189019Y-155802D01*
X12159846Y-150000D01*
X11250000Y-150000D01*
X11250000Y-1075000D01*
X11150000Y-1075000D01*
X11150000Y-150000D01*
X10240155Y-150000D01*
X10240154Y-150001D01*
X10210981Y-155802D01*
X10210977Y-155804D01*
X10177902Y-177904D01*
X10155802Y-210980D01*
X10150000Y-240154D01*
X10150000Y-970594D01*
X10135649Y-1005243D01*
X10101001Y-1019595D01*
X10101000Y-1019594D01*
X10101000Y-1019595D01*
X10066352Y-1005244D01*
X10046935Y-985827D01*
X10026210Y-965102D01*
X10026209Y-965101D01*
X9610089Y-548982D01*
X9603198Y-542090D01*
X9549610Y-488502D01*
X9543514Y-485977D01*
X9479594Y-459500D01*
X9479593Y-459500D01*
X9394571Y-459500D01*
X9359923Y-445148D01*
X9346513Y-420060D01*
X9344669Y-410787D01*
X9344667Y-410784D01*
X9344667Y-410783D01*
X9322457Y-377543D01*
X9304794Y-365741D01*
X9283958Y-334558D01*
X9291275Y-297776D01*
X9304789Y-284261D01*
X9322457Y-272457D01*
X9344669Y-239213D01*
X9350500Y-209899D01*
X9350499Y209898D01*
X9344669Y239213D01*
X9344040Y240154D01*
X10150001Y240154D01*
X10155802Y210981D01*
X10155804Y210977D01*
X10177904Y177902D01*
X10210980Y155802D01*
X10240154Y150000D01*
X11150000Y150000D01*
X11250000Y150000D01*
X12159844Y150000D01*
X12159845Y150001D01*
X12189018Y155802D01*
X12189022Y155804D01*
X12222097Y177904D01*
X12244197Y210980D01*
X12250000Y240154D01*
X12250000Y1075000D01*
X11250000Y1075000D01*
X11250000Y150000D01*
X11150000Y150000D01*
X11150000Y1075000D01*
X10150001Y1075000D01*
X10150001Y240154D01*
X9344040Y240154D01*
X9322457Y272457D01*
X9304793Y284258D01*
X9283959Y315439D01*
X9291274Y352222D01*
X9304792Y365740D01*
X9322457Y377543D01*
X9343848Y409558D01*
X9344669Y410786D01*
X9344669Y410787D01*
X9350499Y440095D01*
X9350500Y440101D01*
X9350499Y859898D01*
X9344669Y889213D01*
X9322457Y922457D01*
X9304344Y934558D01*
X9283510Y965739D01*
X9290825Y1002522D01*
X9304344Y1016041D01*
X9322096Y1027903D01*
X9344197Y1060980D01*
X9350000Y1090154D01*
X9350000Y1250000D01*
X8599000Y1250000D01*
X8564352Y1264352D01*
X8550000Y1299000D01*
X8550000Y1301000D01*
X8564352Y1335648D01*
X8599000Y1350000D01*
X9349999Y1350000D01*
X9349999Y1509845D01*
X9344197Y1539018D01*
X9344195Y1539023D01*
X9324314Y1568776D01*
X9316996Y1605558D01*
X9337831Y1636741D01*
X9365055Y1645000D01*
X9704844Y1645000D01*
X9704845Y1645001D01*
X9734018Y1650802D01*
X9734022Y1650804D01*
X9767097Y1672904D01*
X9789197Y1705980D01*
X9795000Y1735154D01*
X9795000Y2009845D01*
X10150000Y2009845D01*
X10150000Y1175000D01*
X11150000Y1175000D01*
X11250000Y1175000D01*
X12249999Y1175000D01*
X12249999Y2009845D01*
X12244197Y2039018D01*
X12244195Y2039022D01*
X12222095Y2072097D01*
X12189019Y2094197D01*
X12159845Y2099999D01*
X11250000Y2099999D01*
X11250000Y1175000D01*
X11150000Y1175000D01*
X11150000Y2099999D01*
X10240155Y2099999D01*
X10210981Y2094197D01*
X10210977Y2094195D01*
X10177902Y2072095D01*
X10155802Y2039019D01*
X10150000Y2009845D01*
X9795000Y2009845D01*
X9795000Y2270000D01*
X8145001Y2270000D01*
X8145001Y1735154D01*
X8150802Y1705981D01*
X8150804Y1705976D01*
X8170686Y1676222D01*
X8178002Y1639439D01*
X8157167Y1608257D01*
X8129944Y1599999D01*
X7897800Y1599999D01*
X7863152Y1614351D01*
X7848800Y1648999D01*
X7848800Y2483196D01*
X7863152Y2517844D01*
X8061352Y2716044D01*
X8096000Y2730396D01*
X8130648Y2716044D01*
X8145000Y2681396D01*
X8145000Y2370000D01*
X8920000Y2370000D01*
X9020000Y2370000D01*
X9794999Y2370000D01*
X9794999Y2904845D01*
X9789197Y2934018D01*
X9789195Y2934022D01*
X9767095Y2967097D01*
X9734019Y2989197D01*
X9704845Y2994999D01*
X9020000Y2994999D01*
X9020000Y2370000D01*
X8920000Y2370000D01*
X8920000Y2994999D01*
X8458603Y2994999D01*
X8423955Y3009351D01*
X8409603Y3043999D01*
X8423955Y3078647D01*
X8654256Y3308948D01*
X8688904Y3323300D01*
X8895737Y3323300D01*
X8930385Y3308948D01*
X8938170Y3298802D01*
X8949630Y3278955D01*
X8956022Y3267884D01*
X9030586Y3193321D01*
X9030586Y3193320D01*
X9121910Y3140593D01*
X9121914Y3140592D01*
X9223769Y3113300D01*
X9223773Y3113300D01*
X9329230Y3113300D01*
X9431085Y3140592D01*
X9431089Y3140593D01*
X9522413Y3193320D01*
X9596979Y3267886D01*
X9649706Y3359210D01*
X9649707Y3359214D01*
X9656417Y3384254D01*
X9676999Y3461069D01*
X9677000Y3461070D01*
X9677000Y3540710D01*
X9677000Y3566527D01*
X9658235Y3636560D01*
X10150000Y3636560D01*
X10150000Y3625000D01*
X10577173Y3625000D01*
X10575000Y3619755D01*
X10575000Y3530245D01*
X10577173Y3525000D01*
X10150000Y3525000D01*
X10150000Y3513439D01*
X10174017Y3392701D01*
X10174019Y3392692D01*
X10221130Y3278955D01*
X10289528Y3176588D01*
X10376588Y3089528D01*
X10478955Y3021130D01*
X10478954Y3021130D01*
X10592692Y2974019D01*
X10592701Y2974017D01*
X10713439Y2950000D01*
X11150000Y2950000D01*
X11150000Y3350000D01*
X11250000Y3350000D01*
X11250000Y2950000D01*
X11686560Y2950000D01*
X11807298Y2974017D01*
X11807307Y2974019D01*
X11921044Y3021130D01*
X12023411Y3089528D01*
X12110471Y3176588D01*
X12178869Y3278955D01*
X12225980Y3392692D01*
X12225982Y3392701D01*
X12249999Y3513439D01*
X12250000Y3513443D01*
X12250000Y3525000D01*
X11822827Y3525000D01*
X11825000Y3530245D01*
X11825000Y3619755D01*
X11822827Y3625000D01*
X12250000Y3625000D01*
X12250000Y3636557D01*
X12249999Y3636560D01*
X12225982Y3757298D01*
X12225980Y3757307D01*
X12178869Y3871044D01*
X12110471Y3973411D01*
X12023411Y4060471D01*
X11921044Y4128869D01*
X11921045Y4128869D01*
X11807307Y4175980D01*
X11807298Y4175982D01*
X11686560Y4199999D01*
X11686557Y4200000D01*
X11250000Y4200000D01*
X11250000Y3800000D01*
X11150000Y3800000D01*
X11150000Y4200000D01*
X10713443Y4200000D01*
X10713439Y4199999D01*
X10592701Y4175982D01*
X10592692Y4175980D01*
X10478955Y4128869D01*
X10376588Y4060471D01*
X10289528Y3973411D01*
X10221130Y3871044D01*
X10174019Y3757307D01*
X10174017Y3757298D01*
X10150000Y3636560D01*
X9658235Y3636560D01*
X9649707Y3668387D01*
X9596980Y3759713D01*
X9522413Y3834280D01*
X9431087Y3887007D01*
X9390343Y3897924D01*
X9329230Y3914300D01*
X9329227Y3914300D01*
X9223773Y3914300D01*
X9223770Y3914300D01*
X9147378Y3893830D01*
X9121913Y3887007D01*
X9121912Y3887006D01*
X9121910Y3887006D01*
X9094264Y3871044D01*
X9030587Y3834280D01*
X8956020Y3759713D01*
X8941122Y3733909D01*
X8938172Y3728799D01*
X8908418Y3705969D01*
X8895737Y3704300D01*
X8750704Y3704300D01*
X8716056Y3718652D01*
X8701704Y3753300D01*
X8716056Y3787948D01*
X8800696Y3872587D01*
X8800696Y3872588D01*
X8800698Y3872590D01*
X8829700Y3942607D01*
X8829700Y4018392D01*
X8829700Y4926605D01*
X8844052Y4961253D01*
X8878700Y4975605D01*
X8899408Y4971014D01*
X8984977Y4931112D01*
X9031406Y4925000D01*
X9237500Y4925000D01*
X9337500Y4925000D01*
X9543592Y4925000D01*
X9543597Y4925001D01*
X9590021Y4931111D01*
X9691898Y4978618D01*
X9691900Y4978619D01*
X9771380Y5058099D01*
X9771381Y5058101D01*
X9818887Y5159977D01*
X9825000Y5206405D01*
X9825000Y5450000D01*
X9337500Y5450000D01*
X9337500Y4925000D01*
X9237500Y4925000D01*
X9237500Y5550000D01*
X9337500Y5550000D01*
X9824999Y5550000D01*
X9824999Y5793592D01*
X9824998Y5793597D01*
X9818888Y5840021D01*
X9771381Y5941898D01*
X9771380Y5941900D01*
X9691900Y6021380D01*
X9691898Y6021381D01*
X9590022Y6068887D01*
X9543593Y6074999D01*
X9337500Y6074999D01*
X9337500Y5550000D01*
X9237500Y5550000D01*
X9237500Y6074999D01*
X9031407Y6074999D01*
X9031402Y6074998D01*
X8984980Y6068888D01*
X8899409Y6028985D01*
X8861941Y6027349D01*
X8834291Y6052685D01*
X8829700Y6073394D01*
X8829700Y6531990D01*
X8829700Y6531993D01*
X8800698Y6602010D01*
X8747110Y6655598D01*
X8747109Y6655598D01*
X8223045Y7179661D01*
X8208694Y7214308D01*
X8223046Y7248956D01*
X8238943Y7259578D01*
X8367331Y7312758D01*
X8367332Y7312758D01*
X8367335Y7312760D01*
X8367337Y7312761D01*
X8440277Y7361498D01*
X8494349Y7397627D01*
X8602372Y7505650D01*
X8648081Y7574059D01*
X8687239Y7632663D01*
X8745698Y7773795D01*
X8762407Y7857799D01*
X8775499Y7923614D01*
X8775500Y7923621D01*
X8775500Y8076378D01*
X8775499Y8076385D01*
X8770599Y8101019D01*
X8745698Y8226205D01*
X8687239Y8367337D01*
X8649861Y8423277D01*
X8642545Y8460060D01*
X8663380Y8491242D01*
X8690603Y8499500D01*
X9309397Y8499500D01*
X9344045Y8485148D01*
G37*
G04 #@! TD.AperFunction*
G04 #@! TA.AperFunction,Conductor*
G36*
X238679Y-2505652D02*
G01*
X253031Y-2540300D01*
X238679Y-2574948D01*
X221693Y-2584028D01*
X222366Y-2585653D01*
X217907Y-2587500D01*
X160640Y-2611221D01*
X147888Y-2616503D01*
X-301745Y-3066136D01*
X-336393Y-3080488D01*
X-360893Y-3073924D01*
X-443915Y-3025992D01*
X-545770Y-2998700D01*
X-545773Y-2998700D01*
X-651227Y-2998700D01*
X-651230Y-2998700D01*
X-753085Y-3025992D01*
X-753089Y-3025993D01*
X-812715Y-3060419D01*
X-844413Y-3078720D01*
X-918980Y-3153287D01*
X-932433Y-3176588D01*
X-971706Y-3244610D01*
X-971706Y-3244612D01*
X-971707Y-3244613D01*
X-987918Y-3305113D01*
X-998999Y-3346469D01*
X-999000Y-3346470D01*
X-999000Y-3451930D01*
X-982624Y-3513043D01*
X-971707Y-3553787D01*
X-918980Y-3645113D01*
X-844413Y-3719680D01*
X-753087Y-3772407D01*
X-651230Y-3799699D01*
X-651230Y-3799700D01*
X-651227Y-3799700D01*
X-545770Y-3799700D01*
X-545769Y-3799699D01*
X-482350Y-3782706D01*
X-443913Y-3772407D01*
X-443912Y-3772406D01*
X-443910Y-3772406D01*
X-359389Y-3723607D01*
X-352587Y-3719680D01*
X-278020Y-3645113D01*
X-270458Y-3632016D01*
X-225293Y-3553789D01*
X-225292Y-3553786D01*
X-219434Y-3531924D01*
X-206755Y-3509963D01*
X-206274Y-3509482D01*
X-203902Y-3507110D01*
X-203901Y-3507108D01*
X58597Y-3244610D01*
X320356Y-2982852D01*
X355004Y-2968500D01*
X1045411Y-2968500D01*
X1080059Y-2982852D01*
X1094411Y-3017500D01*
X1080059Y-3052148D01*
X1027721Y-3104486D01*
X1027720Y-3104486D01*
X974993Y-3195810D01*
X974992Y-3195814D01*
X947700Y-3297669D01*
X947700Y-3403130D01*
X974992Y-3504985D01*
X974993Y-3504989D01*
X1024329Y-3590439D01*
X1027720Y-3596313D01*
X1102287Y-3670880D01*
X1126247Y-3684713D01*
X1193610Y-3723606D01*
X1193612Y-3723606D01*
X1193613Y-3723607D01*
X1273947Y-3745132D01*
X1295469Y-3750899D01*
X1295470Y-3750900D01*
X1295473Y-3750900D01*
X1400926Y-3750900D01*
X1400927Y-3750900D01*
X1411521Y-3748061D01*
X1448701Y-3752954D01*
X1471534Y-3782706D01*
X1466641Y-3819888D01*
X1458852Y-3830039D01*
X1065653Y-4223239D01*
X692091Y-4596801D01*
X692090Y-4596802D01*
X665296Y-4623596D01*
X638502Y-4650389D01*
X609500Y-4720405D01*
X609500Y-4800500D01*
X595148Y-4835148D01*
X560501Y-4849500D01*
X515105Y-4849500D01*
X515104Y-4849500D01*
X515102Y-4849501D01*
X485787Y-4855331D01*
X485786Y-4855331D01*
X485784Y-4855332D01*
X485783Y-4855332D01*
X452543Y-4877542D01*
X452542Y-4877543D01*
X440740Y-4895206D01*
X409557Y-4916041D01*
X372775Y-4908723D01*
X359259Y-4895207D01*
X347457Y-4877543D01*
X314918Y-4855802D01*
X314212Y-4855330D01*
X284901Y-4849500D01*
X-284894Y-4849500D01*
X-284898Y-4849501D01*
X-314213Y-4855331D01*
X-314214Y-4855331D01*
X-314215Y-4855332D01*
X-314216Y-4855332D01*
X-347456Y-4877542D01*
X-347457Y-4877543D01*
X-356060Y-4890419D01*
X-359258Y-4895205D01*
X-390440Y-4916040D01*
X-427223Y-4908724D01*
X-440742Y-4895205D01*
X-452543Y-4877543D01*
X-485787Y-4855330D01*
X-515098Y-4849500D01*
X-1084894Y-4849500D01*
X-1084898Y-4849501D01*
X-1114213Y-4855331D01*
X-1114214Y-4855331D01*
X-1114215Y-4855332D01*
X-1114216Y-4855332D01*
X-1147456Y-4877542D01*
X-1147457Y-4877543D01*
X-1156060Y-4890419D01*
X-1159258Y-4895205D01*
X-1190440Y-4916040D01*
X-1227223Y-4908724D01*
X-1240742Y-4895205D01*
X-1252543Y-4877543D01*
X-1285787Y-4855330D01*
X-1315098Y-4849500D01*
X-1884894Y-4849500D01*
X-1884898Y-4849501D01*
X-1914213Y-4855331D01*
X-1914214Y-4855331D01*
X-1914215Y-4855332D01*
X-1914216Y-4855332D01*
X-1947456Y-4877542D01*
X-1947457Y-4877543D01*
X-1956060Y-4890419D01*
X-1959258Y-4895205D01*
X-1990440Y-4916040D01*
X-2027223Y-4908724D01*
X-2040742Y-4895205D01*
X-2052543Y-4877543D01*
X-2085787Y-4855330D01*
X-2115098Y-4849500D01*
X-2684894Y-4849500D01*
X-2684898Y-4849501D01*
X-2714213Y-4855331D01*
X-2714214Y-4855331D01*
X-2714215Y-4855332D01*
X-2714216Y-4855332D01*
X-2747456Y-4877542D01*
X-2747457Y-4877543D01*
X-2756076Y-4890443D01*
X-2759558Y-4895654D01*
X-2790740Y-4916489D01*
X-2827523Y-4909173D01*
X-2841041Y-4895656D01*
X-2852904Y-4877902D01*
X-2885980Y-4855802D01*
X-2915154Y-4850000D01*
X-3150000Y-4850000D01*
X-3150000Y-5651000D01*
X-3164352Y-5685648D01*
X-3199000Y-5700000D01*
X-3201000Y-5700000D01*
X-3235648Y-5685648D01*
X-3250000Y-5651000D01*
X-3250000Y-4850000D01*
X-3484844Y-4850000D01*
X-3484845Y-4850001D01*
X-3514018Y-4855802D01*
X-3514022Y-4855804D01*
X-3547096Y-4877903D01*
X-3558957Y-4895655D01*
X-3590139Y-4916490D01*
X-3626922Y-4909174D01*
X-3640441Y-4895655D01*
X-3652543Y-4877543D01*
X-3685787Y-4855330D01*
X-3715095Y-4849500D01*
X-3715101Y-4849500D01*
X-3760500Y-4849500D01*
X-3795148Y-4835148D01*
X-3809500Y-4800500D01*
X-3809500Y-3765903D01*
X-3795148Y-3731255D01*
X-2569544Y-2505652D01*
X-2534896Y-2491300D01*
X204031Y-2491300D01*
X238679Y-2505652D01*
G37*
G04 #@! TD.AperFunction*
G04 #@! TA.AperFunction,Conductor*
G36*
X4459147Y6267445D02*
G01*
X4553448Y6173144D01*
X4567800Y6138496D01*
X4567800Y3962105D01*
X4596803Y3892088D01*
X4650388Y3838503D01*
X4650389Y3838502D01*
X4650390Y3838502D01*
X4660583Y3834280D01*
X4720405Y3809500D01*
X4720407Y3809500D01*
X4800501Y3809500D01*
X4835149Y3795148D01*
X4849501Y3760500D01*
X4849501Y3715102D01*
X4851649Y3704300D01*
X4855332Y3685784D01*
X4855332Y3685783D01*
X4877542Y3652543D01*
X4877543Y3652542D01*
X4895206Y3640740D01*
X4916041Y3609557D01*
X4908723Y3572775D01*
X4895207Y3559259D01*
X4877543Y3547457D01*
X4877542Y3547455D01*
X4855330Y3514213D01*
X4855330Y3514212D01*
X4849500Y3484904D01*
X4849500Y2915105D01*
X4849500Y2915104D01*
X4849501Y2915102D01*
X4849502Y2915095D01*
X4855332Y2885784D01*
X4855332Y2885783D01*
X4877542Y2852543D01*
X4877543Y2852542D01*
X4895206Y2840740D01*
X4916041Y2809557D01*
X4908723Y2772775D01*
X4895207Y2759259D01*
X4877543Y2747457D01*
X4877542Y2747455D01*
X4855330Y2714213D01*
X4855330Y2714212D01*
X4849500Y2684904D01*
X4849500Y2115105D01*
X4849500Y2115104D01*
X4849501Y2115102D01*
X4854465Y2090139D01*
X4855332Y2085784D01*
X4855332Y2085783D01*
X4877542Y2052543D01*
X4877543Y2052542D01*
X4895206Y2040740D01*
X4916041Y2009557D01*
X4908723Y1972775D01*
X4895207Y1959259D01*
X4877543Y1947457D01*
X4877542Y1947455D01*
X4855330Y1914213D01*
X4855330Y1914212D01*
X4849500Y1884904D01*
X4849500Y1315105D01*
X4849500Y1315104D01*
X4849501Y1315102D01*
X4855185Y1286520D01*
X4855332Y1285784D01*
X4855332Y1285783D01*
X4877542Y1252543D01*
X4877543Y1252542D01*
X4895206Y1240740D01*
X4916041Y1209557D01*
X4908723Y1172775D01*
X4895207Y1159259D01*
X4877543Y1147457D01*
X4877542Y1147455D01*
X4855330Y1114213D01*
X4855330Y1114212D01*
X4849500Y1084904D01*
X4849500Y738902D01*
X4835148Y704254D01*
X4800500Y689902D01*
X4765852Y704254D01*
X4644799Y825307D01*
X4483242Y986863D01*
X4468891Y1021510D01*
X4470561Y1034193D01*
X4479800Y1068671D01*
X4479800Y1174130D01*
X4458317Y1254304D01*
X4452507Y1275987D01*
X4399780Y1367313D01*
X4325213Y1441880D01*
X4233887Y1494607D01*
X4193143Y1505524D01*
X4132030Y1521900D01*
X4132027Y1521900D01*
X4026573Y1521900D01*
X4026570Y1521900D01*
X3950178Y1501430D01*
X3924713Y1494607D01*
X3924712Y1494606D01*
X3924710Y1494606D01*
X3877845Y1467548D01*
X3833387Y1441880D01*
X3833386Y1441879D01*
X3758820Y1367313D01*
X3706093Y1275989D01*
X3706092Y1275985D01*
X3678800Y1174130D01*
X3678800Y1068669D01*
X3706092Y966814D01*
X3706093Y966810D01*
X3758820Y875486D01*
X3833386Y800921D01*
X3833386Y800920D01*
X3924710Y748193D01*
X3924714Y748192D01*
X4026569Y720900D01*
X4026573Y720900D01*
X4132028Y720900D01*
X4166507Y730138D01*
X4203689Y725242D01*
X4213836Y717455D01*
X4553448Y377844D01*
X4567800Y343196D01*
X4567800Y110763D01*
X4553448Y76115D01*
X4518800Y61763D01*
X4484152Y76115D01*
X4476368Y86257D01*
X4472180Y93513D01*
X4397613Y168080D01*
X4306287Y220807D01*
X4265543Y231724D01*
X4204430Y248100D01*
X4204427Y248100D01*
X4098973Y248100D01*
X4098970Y248100D01*
X4022578Y227630D01*
X3997113Y220807D01*
X3997112Y220806D01*
X3997110Y220806D01*
X3944620Y190500D01*
X3905787Y168080D01*
X3831220Y93513D01*
X3813372Y62599D01*
X3783618Y39769D01*
X3770937Y38100D01*
X2404107Y38100D01*
X2334090Y9098D01*
X2280502Y-44490D01*
X2280501Y-44491D01*
X1796068Y-528923D01*
X1761420Y-543275D01*
X1748738Y-541605D01*
X1715130Y-532600D01*
X1715127Y-532600D01*
X1609673Y-532600D01*
X1609670Y-532600D01*
X1507814Y-559892D01*
X1507810Y-559893D01*
X1416486Y-612620D01*
X1416486Y-612621D01*
X1341921Y-687186D01*
X1341920Y-687186D01*
X1289193Y-778510D01*
X1289192Y-778514D01*
X1261900Y-880369D01*
X1261900Y-985830D01*
X1289192Y-1087685D01*
X1289193Y-1087689D01*
X1330666Y-1159521D01*
X1341920Y-1179013D01*
X1416487Y-1253580D01*
X1436269Y-1265001D01*
X1507810Y-1306306D01*
X1507812Y-1306306D01*
X1507813Y-1306307D01*
X1553326Y-1318502D01*
X1609669Y-1333599D01*
X1609670Y-1333600D01*
X1609673Y-1333600D01*
X1715130Y-1333600D01*
X1715130Y-1333599D01*
X1816987Y-1306307D01*
X1842002Y-1291864D01*
X1857548Y-1287698D01*
X1857259Y-1286241D01*
X1861988Y-1285300D01*
X1861992Y-1285300D01*
X1932009Y-1256298D01*
X1932011Y-1256296D01*
X1932012Y-1256296D01*
X1985596Y-1202712D01*
X1985596Y-1202711D01*
X1985598Y-1202709D01*
X2014600Y-1132692D01*
X2014600Y-1132687D01*
X2015541Y-1127959D01*
X2016998Y-1128248D01*
X2021164Y-1112702D01*
X2035607Y-1087687D01*
X2062899Y-985830D01*
X2062900Y-985830D01*
X2062900Y-880370D01*
X2062899Y-880369D01*
X2053429Y-845024D01*
X2058324Y-807842D01*
X2066107Y-797698D01*
X2506555Y-357252D01*
X2541203Y-342900D01*
X3770937Y-342900D01*
X3805585Y-357252D01*
X3813370Y-367397D01*
X3831220Y-398313D01*
X3905787Y-472880D01*
X3928141Y-485786D01*
X3997110Y-525606D01*
X3997112Y-525606D01*
X3997113Y-525607D01*
X4056819Y-541605D01*
X4098969Y-552899D01*
X4098970Y-552900D01*
X4098973Y-552900D01*
X4204430Y-552900D01*
X4204430Y-552899D01*
X4306287Y-525607D01*
X4397613Y-472880D01*
X4472180Y-398313D01*
X4524907Y-306987D01*
X4552199Y-205130D01*
X4552200Y-205130D01*
X4552200Y-181605D01*
X4566552Y-146957D01*
X4601200Y-132605D01*
X4635848Y-146957D01*
X4650387Y-161496D01*
X4650388Y-161496D01*
X4650390Y-161498D01*
X4720407Y-190500D01*
X4800501Y-190500D01*
X4835149Y-204852D01*
X4849501Y-239500D01*
X4849501Y-284898D01*
X4855331Y-314213D01*
X4855331Y-314214D01*
X4855332Y-314215D01*
X4855332Y-314216D01*
X4877542Y-347456D01*
X4877543Y-347457D01*
X4884676Y-352223D01*
X4895654Y-359558D01*
X4916489Y-390740D01*
X4909173Y-427523D01*
X4895656Y-441041D01*
X4877902Y-452904D01*
X4855802Y-485980D01*
X4850000Y-515154D01*
X4850000Y-750000D01*
X6549999Y-750000D01*
X6549999Y-515155D01*
X6549998Y-515154D01*
X6544197Y-485981D01*
X6544195Y-485977D01*
X6522096Y-452903D01*
X6504344Y-441042D01*
X6483508Y-409859D01*
X6490825Y-373077D01*
X6504343Y-359559D01*
X6522457Y-347457D01*
X6544669Y-314213D01*
X6550500Y-284899D01*
X6550499Y-173886D01*
X6564850Y-139240D01*
X6599499Y-124888D01*
X6628529Y-134413D01*
X6631518Y-136611D01*
X6651387Y-156480D01*
X6684650Y-175684D01*
X6686830Y-177287D01*
X6695239Y-191190D01*
X6705130Y-204079D01*
X6705712Y-208504D01*
X6706240Y-209376D01*
X6705971Y-210467D01*
X6706800Y-216762D01*
X6706800Y-576894D01*
X6721599Y-612621D01*
X6735802Y-646910D01*
X6789390Y-700498D01*
X6789391Y-700498D01*
X6796282Y-707389D01*
X6796281Y-707389D01*
X6796283Y-707390D01*
X7550388Y-1461497D01*
X7550389Y-1461497D01*
X7550391Y-1461499D01*
X7620408Y-1490501D01*
X7620410Y-1490501D01*
X7701894Y-1490501D01*
X7701902Y-1490500D01*
X7705429Y-1490500D01*
X7740077Y-1504852D01*
X7753486Y-1529939D01*
X7755331Y-1539213D01*
X7755331Y-1539214D01*
X7755332Y-1539215D01*
X7755332Y-1539216D01*
X7775084Y-1568777D01*
X7777543Y-1572457D01*
X7810787Y-1594669D01*
X7840101Y-1600500D01*
X8129611Y-1600499D01*
X8164258Y-1614851D01*
X8178610Y-1649499D01*
X8170353Y-1676721D01*
X8150802Y-1705982D01*
X8145000Y-1735154D01*
X8145000Y-2270000D01*
X8921000Y-2270000D01*
X8955648Y-2284352D01*
X8970000Y-2319000D01*
X8970000Y-2320000D01*
X8971000Y-2320000D01*
X9005648Y-2334352D01*
X9020000Y-2369000D01*
X9020000Y-2994999D01*
X9544798Y-2994999D01*
X9579446Y-3009351D01*
X9593798Y-3043999D01*
X9579446Y-3078647D01*
X9570245Y-3087848D01*
X9535597Y-3102200D01*
X9265905Y-3102200D01*
X9195888Y-3131203D01*
X9195887Y-3131203D01*
X8044945Y-4282148D01*
X8010297Y-4296500D01*
X6599500Y-4296500D01*
X6564852Y-4282148D01*
X6550500Y-4247500D01*
X6550499Y-3715105D01*
X6550499Y-3715102D01*
X6544669Y-3685787D01*
X6544667Y-3685784D01*
X6544667Y-3685783D01*
X6522457Y-3652543D01*
X6504794Y-3640741D01*
X6483958Y-3609558D01*
X6491275Y-3572776D01*
X6504789Y-3559261D01*
X6522457Y-3547457D01*
X6544669Y-3514213D01*
X6550500Y-3484899D01*
X6550500Y-3439500D01*
X6564852Y-3404852D01*
X6599500Y-3390500D01*
X7300991Y-3390500D01*
X7300992Y-3390500D01*
X7300993Y-3390500D01*
X7371010Y-3361498D01*
X7424598Y-3307910D01*
X7424598Y-3307909D01*
X7431489Y-3301018D01*
X7431490Y-3301016D01*
X7566863Y-3165642D01*
X7601510Y-3151291D01*
X7614192Y-3152960D01*
X7616480Y-3153574D01*
X7648671Y-3162200D01*
X7648673Y-3162200D01*
X7754130Y-3162200D01*
X7754130Y-3162199D01*
X7855987Y-3134907D01*
X7858939Y-3133203D01*
X7868223Y-3127842D01*
X7947313Y-3082180D01*
X8021880Y-3007613D01*
X8065035Y-2932865D01*
X8094788Y-2910036D01*
X8131970Y-2914931D01*
X8148212Y-2930143D01*
X8172904Y-2967097D01*
X8205980Y-2989197D01*
X8235154Y-2994999D01*
X8919999Y-2994999D01*
X8920000Y-2994998D01*
X8920000Y-2370000D01*
X8145001Y-2370000D01*
X8145001Y-2546168D01*
X8130649Y-2580816D01*
X8096001Y-2595168D01*
X8061353Y-2580816D01*
X8053566Y-2570668D01*
X8021879Y-2515786D01*
X7947313Y-2441220D01*
X7855989Y-2388493D01*
X7855985Y-2388492D01*
X7754130Y-2361200D01*
X7754127Y-2361200D01*
X7648673Y-2361200D01*
X7648670Y-2361200D01*
X7546814Y-2388492D01*
X7546810Y-2388493D01*
X7455486Y-2441220D01*
X7455486Y-2441221D01*
X7380921Y-2515786D01*
X7380920Y-2515786D01*
X7328193Y-2607110D01*
X7328192Y-2607114D01*
X7300900Y-2708969D01*
X7300900Y-2814427D01*
X7310138Y-2848907D01*
X7305242Y-2886089D01*
X7297455Y-2896236D01*
X7198544Y-2995148D01*
X7163897Y-3009500D01*
X6599499Y-3009500D01*
X6564851Y-2995148D01*
X6550499Y-2960500D01*
X6550499Y-2915105D01*
X6550499Y-2915102D01*
X6544669Y-2885787D01*
X6544667Y-2885784D01*
X6544667Y-2885783D01*
X6522457Y-2852543D01*
X6504794Y-2840741D01*
X6483958Y-2809558D01*
X6491275Y-2772776D01*
X6504789Y-2759261D01*
X6522457Y-2747457D01*
X6544669Y-2714213D01*
X6550500Y-2684899D01*
X6550499Y-2115102D01*
X6544669Y-2085787D01*
X6544667Y-2085784D01*
X6544667Y-2085783D01*
X6522457Y-2052543D01*
X6504794Y-2040741D01*
X6483958Y-2009558D01*
X6491275Y-1972776D01*
X6504789Y-1959261D01*
X6522457Y-1947457D01*
X6544669Y-1914213D01*
X6550500Y-1884899D01*
X6550499Y-1315102D01*
X6544669Y-1285787D01*
X6544667Y-1285784D01*
X6544667Y-1285783D01*
X6522457Y-1252543D01*
X6504345Y-1240441D01*
X6483509Y-1209258D01*
X6490826Y-1172476D01*
X6504345Y-1158957D01*
X6522097Y-1147095D01*
X6544197Y-1114019D01*
X6550000Y-1084845D01*
X6550000Y-850000D01*
X4850001Y-850000D01*
X4850001Y-1084845D01*
X4855802Y-1114018D01*
X4855804Y-1114022D01*
X4877903Y-1147096D01*
X4895655Y-1158957D01*
X4916490Y-1190139D01*
X4909174Y-1226922D01*
X4895655Y-1240441D01*
X4877543Y-1252543D01*
X4855330Y-1285786D01*
X4849682Y-1314181D01*
X4828846Y-1345363D01*
X4792063Y-1352678D01*
X4766977Y-1339269D01*
X4746210Y-1318502D01*
X4716769Y-1306307D01*
X4676194Y-1289500D01*
X4676193Y-1289500D01*
X4542863Y-1289500D01*
X4508215Y-1275148D01*
X4500428Y-1265001D01*
X4482580Y-1234087D01*
X4408013Y-1159520D01*
X4407038Y-1158957D01*
X4316689Y-1106793D01*
X4316685Y-1106792D01*
X4214830Y-1079500D01*
X4214827Y-1079500D01*
X4109373Y-1079500D01*
X4109370Y-1079500D01*
X4007514Y-1106792D01*
X4007510Y-1106793D01*
X3916186Y-1159520D01*
X3916186Y-1159521D01*
X3841621Y-1234086D01*
X3841620Y-1234086D01*
X3788893Y-1325410D01*
X3788892Y-1325414D01*
X3761600Y-1427269D01*
X3761600Y-1443600D01*
X3747248Y-1478248D01*
X3712600Y-1492600D01*
X796503Y-1492600D01*
X761855Y-1478248D01*
X677643Y-1394036D01*
X663291Y-1359388D01*
X664960Y-1346709D01*
X674200Y-1312227D01*
X674200Y-1206773D01*
X674200Y-1206770D01*
X674199Y-1206769D01*
X666762Y-1179013D01*
X646907Y-1104913D01*
X646906Y-1104912D01*
X646906Y-1104910D01*
X602237Y-1027543D01*
X594180Y-1013587D01*
X519613Y-939020D01*
X511365Y-934258D01*
X428289Y-886293D01*
X428285Y-886292D01*
X326430Y-859000D01*
X326427Y-859000D01*
X220973Y-859000D01*
X220970Y-859000D01*
X119114Y-886292D01*
X119110Y-886293D01*
X27786Y-939020D01*
X27786Y-939021D01*
X-46780Y-1013587D01*
X-54837Y-1027543D01*
X-99506Y-1104910D01*
X-99506Y-1104912D01*
X-99507Y-1104913D01*
X-119362Y-1179013D01*
X-126799Y-1206769D01*
X-126800Y-1206770D01*
X-126800Y-1312230D01*
X-113326Y-1362513D01*
X-99507Y-1414087D01*
X-46780Y-1505413D01*
X27787Y-1579980D01*
X53229Y-1594669D01*
X119110Y-1632706D01*
X119112Y-1632706D01*
X119113Y-1632707D01*
X186492Y-1650761D01*
X220969Y-1659999D01*
X220970Y-1660000D01*
X220973Y-1660000D01*
X326428Y-1660000D01*
X342642Y-1655655D01*
X360905Y-1650761D01*
X398087Y-1655655D01*
X408236Y-1663443D01*
X533006Y-1788213D01*
X533009Y-1788217D01*
X533010Y-1788217D01*
X535801Y-1791008D01*
X535802Y-1791010D01*
X589390Y-1844598D01*
X659407Y-1873600D01*
X659408Y-1873600D01*
X735193Y-1873600D01*
X3570697Y-1873600D01*
X3605345Y-1887952D01*
X3744045Y-2026652D01*
X3758397Y-2061300D01*
X3744045Y-2095948D01*
X3709397Y-2110300D01*
X-2394600Y-2110300D01*
X-2429248Y-2095948D01*
X-2443600Y-2061300D01*
X-2443600Y1434500D01*
X-2429248Y1469148D01*
X-2394600Y1483500D01*
X-543125Y1483500D01*
X-508477Y1469148D01*
X-499140Y1455177D01*
X-499113Y1455194D01*
X-498868Y1454770D01*
X-497857Y1453257D01*
X-497507Y1452412D01*
X-472731Y1409500D01*
X-448375Y1367313D01*
X-444779Y1361086D01*
X-370213Y1286520D01*
X-278889Y1233793D01*
X-278885Y1233792D01*
X-177030Y1206500D01*
X-177027Y1206500D01*
X-71569Y1206500D01*
X30285Y1233792D01*
X30289Y1233793D01*
X121613Y1286520D01*
X196179Y1361086D01*
X199775Y1367313D01*
X224131Y1409500D01*
X248906Y1452410D01*
X248907Y1452414D01*
X249539Y1454770D01*
X270432Y1532747D01*
X276199Y1554269D01*
X276200Y1554270D01*
X276200Y1659730D01*
X259824Y1720843D01*
X248907Y1761587D01*
X196180Y1852913D01*
X121613Y1927480D01*
X30287Y1980207D01*
X30284Y1980207D01*
X29449Y1980554D01*
X29125Y1980877D01*
X27505Y1981813D01*
X27755Y1982247D01*
X22556Y1987446D01*
X13552Y1991176D01*
X9822Y2000179D01*
X2930Y2007072D01*
X-800Y2025824D01*
X-800Y2067795D01*
X13552Y2102443D01*
X2561497Y4650388D01*
X2561497Y4650389D01*
X2561499Y4650391D01*
X2590501Y4720408D01*
X2590501Y4796193D01*
X2590501Y4800500D01*
X2604853Y4835148D01*
X2639500Y4849500D01*
X2684894Y4849500D01*
X2684898Y4849501D01*
X2714213Y4855331D01*
X2714214Y4855331D01*
X2714215Y4855332D01*
X2714216Y4855332D01*
X2747456Y4877542D01*
X2747698Y4877903D01*
X2759259Y4895206D01*
X2790440Y4916040D01*
X2827223Y4908724D01*
X2840742Y4895205D01*
X2852543Y4877543D01*
X2885787Y4855330D01*
X2915095Y4849500D01*
X2915101Y4849500D01*
X2960500Y4849500D01*
X2995148Y4835148D01*
X3009500Y4800500D01*
X3009500Y3871003D01*
X2995148Y3836355D01*
X-1100962Y-259755D01*
X-1135610Y-274107D01*
X-1148290Y-272438D01*
X-1182772Y-263200D01*
X-1182773Y-263200D01*
X-1288227Y-263200D01*
X-1288230Y-263200D01*
X-1390085Y-290492D01*
X-1390089Y-290493D01*
X-1466410Y-334558D01*
X-1481413Y-343220D01*
X-1555980Y-417787D01*
X-1569406Y-441041D01*
X-1608706Y-509110D01*
X-1608706Y-509112D01*
X-1608707Y-509113D01*
X-1622313Y-559892D01*
X-1635999Y-610969D01*
X-1636000Y-610970D01*
X-1636000Y-716430D01*
X-1620172Y-775499D01*
X-1608707Y-818287D01*
X-1555980Y-909613D01*
X-1481413Y-984180D01*
X-1390087Y-1036907D01*
X-1288230Y-1064199D01*
X-1288230Y-1064200D01*
X-1288227Y-1064200D01*
X-1182770Y-1064200D01*
X-1182769Y-1064199D01*
X-1159287Y-1057907D01*
X-1080913Y-1036907D01*
X-1080912Y-1036906D01*
X-1080910Y-1036906D01*
X-1000534Y-990500D01*
X-989587Y-984180D01*
X-915020Y-909613D01*
X-904178Y-890834D01*
X-862293Y-818289D01*
X-862292Y-818285D01*
X-835000Y-716430D01*
X-835000Y-610972D01*
X-844238Y-576490D01*
X-839341Y-539308D01*
X-831555Y-529162D01*
X3361496Y3663887D01*
X3361496Y3663888D01*
X3361498Y3663890D01*
X3390500Y3733907D01*
X3390500Y3809692D01*
X3390500Y4800500D01*
X3404852Y4835148D01*
X3439499Y4849500D01*
X3484894Y4849500D01*
X3484898Y4849501D01*
X3514213Y4855331D01*
X3514214Y4855331D01*
X3514215Y4855332D01*
X3514216Y4855332D01*
X3547456Y4877542D01*
X3547698Y4877903D01*
X3559259Y4895206D01*
X3590440Y4916040D01*
X3627223Y4908724D01*
X3640742Y4895205D01*
X3652543Y4877543D01*
X3685787Y4855330D01*
X3715095Y4849500D01*
X3715101Y4849500D01*
X3760500Y4849500D01*
X3795148Y4835148D01*
X3809500Y4800500D01*
X3809500Y3277703D01*
X3795148Y3243055D01*
X2662236Y2110143D01*
X2627588Y2095791D01*
X2614909Y2097460D01*
X2590046Y2104122D01*
X2580428Y2106700D01*
X2580427Y2106700D01*
X2474973Y2106700D01*
X2474970Y2106700D01*
X2405526Y2088092D01*
X2373113Y2079407D01*
X2373112Y2079406D01*
X2373110Y2079406D01*
X2353000Y2067795D01*
X2281787Y2026680D01*
X2281786Y2026679D01*
X2207220Y1952113D01*
X2154493Y1860789D01*
X2154492Y1860785D01*
X2127200Y1758930D01*
X2127200Y1653469D01*
X2154492Y1551614D01*
X2154493Y1551610D01*
X2207220Y1460286D01*
X2281786Y1385721D01*
X2281786Y1385720D01*
X2373110Y1332993D01*
X2373114Y1332992D01*
X2474969Y1305700D01*
X2474973Y1305700D01*
X2580430Y1305700D01*
X2682285Y1332992D01*
X2682289Y1332993D01*
X2773613Y1385720D01*
X2848179Y1460286D01*
X2900906Y1551610D01*
X2900907Y1551614D01*
X2901619Y1554269D01*
X2928199Y1653469D01*
X2928200Y1653470D01*
X2928200Y1758927D01*
X2924213Y1773806D01*
X2918961Y1793405D01*
X2923855Y1830587D01*
X2931643Y1840736D01*
X4161497Y3070588D01*
X4161498Y3070590D01*
X4161499Y3070591D01*
X4179189Y3113300D01*
X4190500Y3140607D01*
X4190500Y4800500D01*
X4204852Y4835148D01*
X4239499Y4849500D01*
X4284894Y4849500D01*
X4284898Y4849501D01*
X4314213Y4855331D01*
X4314214Y4855331D01*
X4314215Y4855332D01*
X4314216Y4855332D01*
X4347456Y4877542D01*
X4347698Y4877903D01*
X4359559Y4895656D01*
X4369669Y4910786D01*
X4369669Y4910787D01*
X4375499Y4940095D01*
X4375500Y4940101D01*
X4375499Y6232797D01*
X4389851Y6267445D01*
X4424499Y6281797D01*
X4459147Y6267445D01*
G37*
G04 #@! TD.AperFunction*
G04 #@! TA.AperFunction,Conductor*
G36*
X1344045Y8485148D02*
G01*
X1358397Y8450500D01*
X1350139Y8423277D01*
X1312758Y8367332D01*
X1312758Y8367331D01*
X1254304Y8226212D01*
X1254299Y8226193D01*
X1224500Y8076385D01*
X1224500Y7923614D01*
X1254299Y7773806D01*
X1254304Y7773787D01*
X1312758Y7632668D01*
X1312758Y7632667D01*
X1397627Y7505650D01*
X1505650Y7397627D01*
X1632666Y7312759D01*
X1741904Y7267511D01*
X1768422Y7240992D01*
X1768422Y7203489D01*
X1757800Y7187593D01*
X1694820Y7124613D01*
X1642093Y7033289D01*
X1642092Y7033285D01*
X1614800Y6931430D01*
X1614800Y6825969D01*
X1642092Y6724114D01*
X1642093Y6724110D01*
X1694820Y6632786D01*
X1696776Y6630238D01*
X1695710Y6629420D01*
X1708312Y6598999D01*
X1693960Y6564351D01*
X1659312Y6549999D01*
X1650000Y6549999D01*
X1650000Y4850000D01*
X1884844Y4850000D01*
X1884845Y4850001D01*
X1914018Y4855802D01*
X1914022Y4855804D01*
X1947096Y4877903D01*
X1958957Y4895655D01*
X1990139Y4916490D01*
X2026922Y4909174D01*
X2040441Y4895655D01*
X2052543Y4877543D01*
X2085786Y4855330D01*
X2114181Y4849682D01*
X2145364Y4828846D01*
X2152679Y4792064D01*
X2139269Y4766976D01*
X-292316Y2335389D01*
X-292318Y2335389D01*
X-299209Y2328498D01*
X-299210Y2328498D01*
X-352798Y2274910D01*
X-381800Y2204893D01*
X-381800Y2204890D01*
X-381800Y1936189D01*
X-396152Y1901541D01*
X-418841Y1878852D01*
X-453489Y1864500D01*
X-2670394Y1864500D01*
X-2673702Y1863842D01*
X-2683262Y1862900D01*
X-3005496Y1862900D01*
X-3040144Y1877252D01*
X-4134355Y2971462D01*
X-4148707Y3006110D01*
X-4147038Y3018790D01*
X-4137800Y3053272D01*
X-4137800Y3158730D01*
X-4165092Y3260585D01*
X-4165093Y3260589D01*
X-4217820Y3351913D01*
X-4292386Y3426479D01*
X-4292387Y3426480D01*
X-4330551Y3448514D01*
X-4383710Y3479206D01*
X-4383712Y3479206D01*
X-4383713Y3479207D01*
X-4409178Y3486030D01*
X-4485570Y3506500D01*
X-4485573Y3506500D01*
X-4591027Y3506500D01*
X-4591030Y3506500D01*
X-4652143Y3490124D01*
X-4692887Y3479207D01*
X-4776003Y3431219D01*
X-4813183Y3426324D01*
X-4842936Y3449154D01*
X-4849501Y3473655D01*
X-4849501Y3484895D01*
X-4849501Y3484898D01*
X-4855331Y3514213D01*
X-4855332Y3514215D01*
X-4855332Y3514216D01*
X-4877542Y3547456D01*
X-4895654Y3559558D01*
X-4916489Y3590740D01*
X-4909173Y3627523D01*
X-4895656Y3641041D01*
X-4877902Y3652904D01*
X-4855802Y3685980D01*
X-4850000Y3715154D01*
X-4850000Y3950000D01*
X-5651000Y3950000D01*
X-5685648Y3964352D01*
X-5700000Y3999000D01*
X-5700000Y4000000D01*
X-5701000Y4000000D01*
X-5735648Y4014352D01*
X-5750000Y4049000D01*
X-5750000Y4374998D01*
X-5650000Y4374998D01*
X-5650000Y4050000D01*
X-4850001Y4050000D01*
X-4850001Y4284845D01*
X-4855802Y4314018D01*
X-4855804Y4314022D01*
X-4877904Y4347097D01*
X-4910980Y4369197D01*
X-4940154Y4374999D01*
X-5649999Y4374999D01*
X-5650000Y4374998D01*
X-5750000Y4374998D01*
X-5750000Y4374999D01*
X-6402200Y4374999D01*
X-6436848Y4389351D01*
X-6451200Y4423999D01*
X-6451200Y4679594D01*
X-6480202Y4749610D01*
X-6506092Y4775500D01*
X-6533790Y4803198D01*
X-7304652Y5574059D01*
X-7319004Y5608707D01*
X-7313575Y5630395D01*
X-7313682Y5630440D01*
X-7313383Y5631160D01*
X-7313226Y5631790D01*
X-7312766Y5632651D01*
X-7254303Y5773791D01*
X-7254299Y5773806D01*
X-7224500Y5923614D01*
X-7224500Y6076385D01*
X-7254299Y6226193D01*
X-7254304Y6226212D01*
X-7312758Y6367331D01*
X-7312758Y6367332D01*
X-7397627Y6494349D01*
X-7505650Y6602372D01*
X-7553128Y6634095D01*
X-7632663Y6687239D01*
X-7721684Y6724113D01*
X-7773787Y6745695D01*
X-7773789Y6745695D01*
X-7773795Y6745698D01*
X-7866645Y6764167D01*
X-7923614Y6775499D01*
X-7923616Y6775499D01*
X-7923620Y6775500D01*
X-8076380Y6775500D01*
X-8226205Y6745698D01*
X-8367337Y6687239D01*
X-8423279Y6649859D01*
X-8460059Y6642543D01*
X-8491242Y6663379D01*
X-8499500Y6690602D01*
X-8499500Y7309397D01*
X-8485148Y7344045D01*
X-8450500Y7358397D01*
X-8423277Y7350139D01*
X-8367337Y7312761D01*
X-8367333Y7312759D01*
X-8367331Y7312758D01*
X-8226212Y7254304D01*
X-8226206Y7254302D01*
X-8226205Y7254302D01*
X-8226202Y7254301D01*
X-8226193Y7254299D01*
X-8076385Y7224500D01*
X-8076380Y7224500D01*
X-7923614Y7224500D01*
X-7773804Y7254299D01*
X-7773793Y7254302D01*
X-7669490Y7297506D01*
X-7631987Y7297506D01*
X-7616091Y7286884D01*
X-4656690Y4327483D01*
X-4656689Y4327481D01*
X-4656689Y4327482D01*
X-4649798Y4320591D01*
X-4649798Y4320590D01*
X-4614053Y4284845D01*
X-4596210Y4267002D01*
X-4526194Y4238000D01*
X-4526193Y4238000D01*
X-1091905Y4238000D01*
X-1021889Y4267002D01*
X-995096Y4293796D01*
X-968302Y4320590D01*
X-968301Y4320591D01*
X-692091Y4596801D01*
X-692090Y4596802D01*
X-655540Y4633352D01*
X-638502Y4650389D01*
X-609500Y4720405D01*
X-609500Y4800500D01*
X-595148Y4835148D01*
X-560501Y4849500D01*
X-515105Y4849500D01*
X-515104Y4849500D01*
X-515102Y4849501D01*
X-485787Y4855331D01*
X-485786Y4855331D01*
X-485784Y4855332D01*
X-485783Y4855332D01*
X-452543Y4877542D01*
X-452542Y4877543D01*
X-440740Y4895206D01*
X-409557Y4916041D01*
X-372775Y4908723D01*
X-359259Y4895207D01*
X-347457Y4877543D01*
X-330722Y4866362D01*
X-314212Y4855330D01*
X-284901Y4849500D01*
X-284899Y4849500D01*
X284894Y4849500D01*
X284898Y4849501D01*
X314213Y4855331D01*
X314214Y4855331D01*
X314215Y4855332D01*
X314216Y4855332D01*
X347456Y4877542D01*
X347698Y4877903D01*
X359259Y4895206D01*
X390440Y4916040D01*
X427223Y4908724D01*
X440742Y4895205D01*
X452543Y4877543D01*
X485787Y4855330D01*
X515095Y4849500D01*
X515101Y4849500D01*
X560500Y4849500D01*
X595148Y4835148D01*
X609500Y4800500D01*
X609500Y4766202D01*
X595148Y4731555D01*
X-529863Y3606542D01*
X-564510Y3592191D01*
X-577193Y3593861D01*
X-611671Y3603100D01*
X-611673Y3603100D01*
X-717127Y3603100D01*
X-717130Y3603100D01*
X-763256Y3590740D01*
X-818987Y3575807D01*
X-818988Y3575806D01*
X-818989Y3575806D01*
X-824239Y3572775D01*
X-910313Y3523080D01*
X-984880Y3448513D01*
X-1021980Y3384254D01*
X-1036908Y3358397D01*
X-1037607Y3357187D01*
X-1064899Y3255330D01*
X-1064900Y3255330D01*
X-1064900Y3149870D01*
X-1064899Y3149869D01*
X-1062413Y3140592D01*
X-1043657Y3070591D01*
X-1037607Y3048014D01*
X-1037606Y3048010D01*
X-1007085Y2995148D01*
X-994887Y2974019D01*
X-984879Y2956686D01*
X-910313Y2882120D01*
X-818989Y2829393D01*
X-818985Y2829392D01*
X-717130Y2802100D01*
X-717127Y2802100D01*
X-611669Y2802100D01*
X-509814Y2829392D01*
X-509810Y2829393D01*
X-418486Y2882120D01*
X-418486Y2882121D01*
X-343921Y2956686D01*
X-343920Y2956686D01*
X-291193Y3048010D01*
X-291192Y3048014D01*
X-263900Y3149869D01*
X-263900Y3255327D01*
X-273138Y3289807D01*
X-268242Y3326989D01*
X-260455Y3337136D01*
X961496Y4559087D01*
X961496Y4559088D01*
X961498Y4559090D01*
X990500Y4629107D01*
X990500Y4704892D01*
X990500Y4800500D01*
X1004852Y4835148D01*
X1039499Y4849500D01*
X1084894Y4849500D01*
X1084898Y4849501D01*
X1114213Y4855331D01*
X1114214Y4855331D01*
X1114215Y4855332D01*
X1114216Y4855332D01*
X1147456Y4877542D01*
X1147698Y4877903D01*
X1159559Y4895655D01*
X1190740Y4916489D01*
X1227523Y4909173D01*
X1241041Y4895656D01*
X1252904Y4877902D01*
X1285980Y4855802D01*
X1315154Y4850000D01*
X1550000Y4850000D01*
X1550000Y6549999D01*
X1315155Y6549999D01*
X1285981Y6544197D01*
X1285977Y6544195D01*
X1252903Y6522096D01*
X1241042Y6504344D01*
X1209859Y6483508D01*
X1173077Y6490825D01*
X1159559Y6504344D01*
X1147457Y6522457D01*
X1114213Y6544669D01*
X1084899Y6550500D01*
X515102Y6550499D01*
X485787Y6544669D01*
X485784Y6544667D01*
X485783Y6544667D01*
X452543Y6522457D01*
X440741Y6504794D01*
X409558Y6483958D01*
X372776Y6491275D01*
X359261Y6504789D01*
X347457Y6522457D01*
X330835Y6533563D01*
X314215Y6544668D01*
X314214Y6544668D01*
X314213Y6544669D01*
X284899Y6550500D01*
X272688Y6550499D01*
X238042Y6564848D01*
X223688Y6599496D01*
X238036Y6634143D01*
X270480Y6666587D01*
X315268Y6744162D01*
X323206Y6757910D01*
X323207Y6757914D01*
X324883Y6764167D01*
X350499Y6859769D01*
X350500Y6859770D01*
X350500Y6965230D01*
X332264Y7033285D01*
X323207Y7067087D01*
X320433Y7071891D01*
X313144Y7084516D01*
X270480Y7158413D01*
X241563Y7187330D01*
X227211Y7221978D01*
X241563Y7256626D01*
X257460Y7267248D01*
X367331Y7312758D01*
X367332Y7312758D01*
X367335Y7312760D01*
X367337Y7312761D01*
X440277Y7361498D01*
X494349Y7397627D01*
X602372Y7505650D01*
X648081Y7574059D01*
X687239Y7632663D01*
X745698Y7773795D01*
X762407Y7857799D01*
X775499Y7923614D01*
X775500Y7923621D01*
X775500Y8076378D01*
X775499Y8076385D01*
X770599Y8101019D01*
X745698Y8226205D01*
X687239Y8367337D01*
X649861Y8423277D01*
X642545Y8460060D01*
X663380Y8491242D01*
X690603Y8499500D01*
X1309397Y8499500D01*
X1344045Y8485148D01*
G37*
G04 #@! TD.AperFunction*
G04 #@! TD*
M02*
