M48
; DRILL file {KiCad 9.0.1-9.0.1-0~ubuntu25.04.1} date 2025-05-06T20:57:22+1000
; FORMAT={-:-/ absolute / metric / decimal}
; #@! TF.CreationDate,2025-05-06T20:57:22+10:00
; #@! TF.GenerationSoftware,Kicad,Pcbnew,9.0.1-9.0.1-0~ubuntu25.04.1
; #@! TF.FileFunction,Plated,1,2,PTH
FMAT,2
METRIC
; #@! TA.AperFunction,Plated,PTH,ViaDrill
T1C0.300
; #@! TA.AperFunction,Plated,PTH,ComponentDrill
T2C0.450
; #@! TA.AperFunction,Plated,PTH,ComponentDrill
T3C0.800
%
G90
G05
T1
X-6.558Y-6.043
X-6.225Y-5.285
X-5.479Y-6.835
X-4.791Y5.859
X-4.538Y3.106
X-4.515Y-2.239
X-2.788Y-7.04
X-2.435Y-3.179
X-2.423Y2.167
X-1.236Y-0.664
X-0.664Y3.203
X-0.598Y-3.399
X-0.124Y1.607
X-0.05Y6.912
X0.274Y-1.259
X1.348Y-3.35
X1.662Y-0.933
X2.015Y6.879
X2.456Y-3.884
X2.528Y1.706
X2.758Y7.197
X2.905Y-4.428
X2.938Y-0.992
X4.079Y1.121
X4.152Y-0.152
X4.162Y-1.48
X5.067Y-6.619
X5.723Y6.224
X6.208Y-5.229
X6.897Y0.164
X7.701Y-2.762
X9.277Y3.514
X9.507Y-3.839
X11.042Y6.97
T3
X-8.0Y8.0
X-8.0Y6.0
X-8.0Y4.0
X-8.0Y2.0
X-8.0Y0.0
X-8.0Y-2.0
X-8.0Y-4.0
X-8.0Y-6.0
X-8.0Y-8.0
X-6.0Y8.0
X-6.0Y-8.0
X-4.0Y8.0
X-4.0Y-8.0
X-2.0Y8.0
X-2.0Y-8.0
X0.0Y8.0
X0.0Y-8.0
X2.0Y8.0
X2.0Y-8.0
X4.0Y8.0
X4.0Y-8.0
X6.0Y8.0
X6.0Y-8.0
X8.0Y8.0
X8.0Y-8.0
X10.0Y8.0
X10.0Y-8.0
X12.0Y8.0
X12.0Y-8.0
T2
G00X10.8Y3.575
M15
G01X11.6Y3.575
M16
G05
G00X11.6Y-3.575
M15
G01X10.8Y-3.575
M16
G05
M30
