G04 #@! TF.GenerationSoftware,KiCad,Pcbnew,9.0.1-9.0.1-0~ubuntu25.04.1*
G04 #@! TF.CreationDate,2025-05-06T20:57:22+10:00*
G04 #@! TF.ProjectId,MiniUNO,4d696e69-554e-44f2-9e6b-696361645f70,rev?*
G04 #@! TF.SameCoordinates,Original*
G04 #@! TF.FileFunction,Copper,L2,Bot*
G04 #@! TF.FilePolarity,Positive*
%FSLAX46Y46*%
G04 Gerber Fmt 4.6, Leading zero omitted, Abs format (unit mm)*
G04 Created by KiCad (PCBNEW 9.0.1-9.0.1-0~ubuntu25.04.1) date 2025-05-06 20:57:22*
%MOMM*%
%LPD*%
G01*
G04 APERTURE LIST*
G04 Aperture macros list*
%AMRoundRect*
0 Rectangle with rounded corners*
0 $1 Rounding radius*
0 $2 $3 $4 $5 $6 $7 $8 $9 X,Y pos of 4 corners*
0 Add a 4 corners polygon primitive as box body*
4,1,4,$2,$3,$4,$5,$6,$7,$8,$9,$2,$3,0*
0 Add four circle primitives for the rounded corners*
1,1,$1+$1,$2,$3*
1,1,$1+$1,$4,$5*
1,1,$1+$1,$6,$7*
1,1,$1+$1,$8,$9*
0 Add four rect primitives between the rounded corners*
20,1,$1+$1,$2,$3,$4,$5,0*
20,1,$1+$1,$4,$5,$6,$7,0*
20,1,$1+$1,$6,$7,$8,$9,0*
20,1,$1+$1,$8,$9,$2,$3,0*%
G04 Aperture macros list end*
G04 #@! TA.AperFunction,SMDPad,CuDef*
%ADD10RoundRect,0.225000X0.250000X-0.225000X0.250000X0.225000X-0.250000X0.225000X-0.250000X-0.225000X0*%
G04 #@! TD*
G04 #@! TA.AperFunction,SMDPad,CuDef*
%ADD11RoundRect,0.225000X0.225000X0.250000X-0.225000X0.250000X-0.225000X-0.250000X0.225000X-0.250000X0*%
G04 #@! TD*
G04 #@! TA.AperFunction,SMDPad,CuDef*
%ADD12RoundRect,0.200000X-0.200000X-0.275000X0.200000X-0.275000X0.200000X0.275000X-0.200000X0.275000X0*%
G04 #@! TD*
G04 #@! TA.AperFunction,SMDPad,CuDef*
%ADD13R,1.300500X0.900500*%
G04 #@! TD*
G04 #@! TA.AperFunction,SMDPad,CuDef*
%ADD14RoundRect,0.200000X0.200000X0.275000X-0.200000X0.275000X-0.200000X-0.275000X0.200000X-0.275000X0*%
G04 #@! TD*
G04 #@! TA.AperFunction,SMDPad,CuDef*
%ADD15RoundRect,0.200000X0.275000X-0.200000X0.275000X0.200000X-0.275000X0.200000X-0.275000X-0.200000X0*%
G04 #@! TD*
G04 #@! TA.AperFunction,HeatsinkPad*
%ADD16O,1.900000X1.050000*%
G04 #@! TD*
G04 #@! TA.AperFunction,SMDPad,CuDef*
%ADD17R,1.300000X0.550000*%
G04 #@! TD*
G04 #@! TA.AperFunction,SMDPad,CuDef*
%ADD18R,1.475000X0.800000*%
G04 #@! TD*
G04 #@! TA.AperFunction,SMDPad,CuDef*
%ADD19R,3.125000X1.850000*%
G04 #@! TD*
G04 #@! TA.AperFunction,ComponentPad*
%ADD20R,1.350000X1.350000*%
G04 #@! TD*
G04 #@! TA.AperFunction,ComponentPad*
%ADD21O,1.350000X1.350000*%
G04 #@! TD*
G04 #@! TA.AperFunction,SMDPad,CuDef*
%ADD22RoundRect,0.250000X-0.450000X-0.250000X0.450000X-0.250000X0.450000X0.250000X-0.450000X0.250000X0*%
G04 #@! TD*
G04 #@! TA.AperFunction,ComponentPad*
%ADD23C,1.350000*%
G04 #@! TD*
G04 #@! TA.AperFunction,SMDPad,CuDef*
%ADD24RoundRect,0.225000X-0.250000X0.225000X-0.250000X-0.225000X0.250000X-0.225000X0.250000X0.225000X0*%
G04 #@! TD*
G04 #@! TA.AperFunction,SMDPad,CuDef*
%ADD25RoundRect,0.150000X-0.587500X-0.150000X0.587500X-0.150000X0.587500X0.150000X-0.587500X0.150000X0*%
G04 #@! TD*
G04 #@! TA.AperFunction,ViaPad*
%ADD26C,0.600000*%
G04 #@! TD*
G04 #@! TA.AperFunction,Conductor*
%ADD27C,0.180000*%
G04 #@! TD*
G04 APERTURE END LIST*
D10*
G04 #@! TO.P,C1,1*
G04 #@! TO.N,XTAL1*
X-3500000Y2225000D03*
G04 #@! TO.P,C1,2*
G04 #@! TO.N,GND*
X-3500000Y3775000D03*
G04 #@! TD*
D11*
G04 #@! TO.P,C6,1*
G04 #@! TO.N,UCAP*
X5275000Y-2500000D03*
G04 #@! TO.P,C6,2*
G04 #@! TO.N,GND*
X3725000Y-2500000D03*
G04 #@! TD*
D12*
G04 #@! TO.P,R4,1*
G04 #@! TO.N,RESET*
X175000Y2500000D03*
G04 #@! TO.P,R4,2*
G04 #@! TO.N,+5V*
X1825000Y2500000D03*
G04 #@! TD*
D10*
G04 #@! TO.P,C3,1*
G04 #@! TO.N,+5V*
X-5500000Y2225000D03*
G04 #@! TO.P,C3,2*
G04 #@! TO.N,GND*
X-5500000Y3775000D03*
G04 #@! TD*
D13*
G04 #@! TO.P,Y1,1*
G04 #@! TO.N,XTAL1*
X-4349750Y549750D03*
G04 #@! TO.P,Y1,2,GND*
G04 #@! TO.N,GND*
X-2650250Y549750D03*
G04 #@! TO.P,Y1,3*
G04 #@! TO.N,XTAL2*
X-2650250Y-549750D03*
G04 #@! TO.P,Y1,4,GND*
G04 #@! TO.N,GND*
X-4349750Y-549750D03*
G04 #@! TD*
D10*
G04 #@! TO.P,C4,1*
G04 #@! TO.N,+5V*
X-3500000Y-3775000D03*
G04 #@! TO.P,C4,2*
G04 #@! TO.N,GND*
X-3500000Y-2225000D03*
G04 #@! TD*
D14*
G04 #@! TO.P,R2,1*
G04 #@! TO.N,Net-(J1-D-)*
X1825000Y0D03*
G04 #@! TO.P,R2,2*
G04 #@! TO.N,D-*
X175000Y0D03*
G04 #@! TD*
D11*
G04 #@! TO.P,C7,1*
G04 #@! TO.N,AREF*
X1775000Y-5000000D03*
G04 #@! TO.P,C7,2*
G04 #@! TO.N,GND*
X225000Y-5000000D03*
G04 #@! TD*
D12*
G04 #@! TO.P,R5,1*
G04 #@! TO.N,+5V*
X175000Y5000000D03*
G04 #@! TO.P,R5,2*
G04 #@! TO.N,Net-(D1-A)*
X1825000Y5000000D03*
G04 #@! TD*
D10*
G04 #@! TO.P,C5,1*
G04 #@! TO.N,+5V*
X-1500000Y-3775000D03*
G04 #@! TO.P,C5,2*
G04 #@! TO.N,GND*
X-1500000Y-2225000D03*
G04 #@! TD*
G04 #@! TO.P,C2,1*
G04 #@! TO.N,XTAL2*
X-1500000Y2225000D03*
G04 #@! TO.P,C2,2*
G04 #@! TO.N,GND*
X-1500000Y3775000D03*
G04 #@! TD*
D12*
G04 #@! TO.P,R7,1*
G04 #@! TO.N,GND*
X3675000Y5000000D03*
G04 #@! TO.P,R7,2*
G04 #@! TO.N,VUSB*
X5325000Y5000000D03*
G04 #@! TD*
G04 #@! TO.P,R8,1*
G04 #@! TO.N,GND*
X3675000Y-5000000D03*
G04 #@! TO.P,R8,2*
G04 #@! TO.N,VIN*
X5325000Y-5000000D03*
G04 #@! TD*
D15*
G04 #@! TO.P,R3,1*
G04 #@! TO.N,Net-(U1-~{HWB}{slash}PE2)*
X-5500000Y-3825000D03*
G04 #@! TO.P,R3,2*
G04 #@! TO.N,GND*
X-5500000Y-2175000D03*
G04 #@! TD*
D14*
G04 #@! TO.P,R1,1*
G04 #@! TO.N,Net-(J1-D+)*
X5325000Y2500000D03*
G04 #@! TO.P,R1,2*
G04 #@! TO.N,D+*
X3675000Y2500000D03*
G04 #@! TD*
D12*
G04 #@! TO.P,R6,1*
G04 #@! TO.N,D13{slash}USER_LED*
X175000Y-2500000D03*
G04 #@! TO.P,R6,2*
G04 #@! TO.N,Net-(D2-A)*
X1825000Y-2500000D03*
G04 #@! TD*
D16*
G04 #@! TO.P,J1,6,Shield*
G04 #@! TO.N,GND*
X11200000Y-3575000D03*
X11200000Y3575000D03*
G04 #@! TD*
D17*
G04 #@! TO.P,IC1,1,GND*
G04 #@! TO.N,GND*
X8250000Y-1500000D03*
D18*
G04 #@! TO.P,IC1,2,IN*
G04 #@! TO.N,Net-(IC1-IN)*
X8338000Y0D03*
D19*
X10638000Y0D03*
D17*
G04 #@! TO.P,IC1,3,OUT*
G04 #@! TO.N,+5V*
X8250000Y1500000D03*
G04 #@! TD*
D20*
G04 #@! TO.P,J3,1,Pin_1*
G04 #@! TO.N,GND*
X12000000Y-8000000D03*
D21*
G04 #@! TO.P,J3,2,Pin_2*
G04 #@! TO.N,VIN*
X10000000Y-8000000D03*
G04 #@! TO.P,J3,3,Pin_3*
G04 #@! TO.N,A5*
X8000000Y-8000000D03*
G04 #@! TO.P,J3,4,Pin_4*
G04 #@! TO.N,A4*
X6000000Y-8000000D03*
G04 #@! TO.P,J3,5,Pin_5*
G04 #@! TO.N,A3*
X4000000Y-8000000D03*
G04 #@! TO.P,J3,6,Pin_6*
G04 #@! TO.N,A2*
X2000000Y-8000000D03*
G04 #@! TO.P,J3,7,Pin_7*
G04 #@! TO.N,A1*
X0Y-8000000D03*
G04 #@! TO.P,J3,8,Pin_8*
G04 #@! TO.N,A0*
X-2000000Y-8000000D03*
G04 #@! TO.P,J3,9,Pin_9*
G04 #@! TO.N,D13{slash}USER_LED*
X-4000000Y-8000000D03*
G04 #@! TO.P,J3,10,Pin_10*
G04 #@! TO.N,D12*
X-6000000Y-8000000D03*
G04 #@! TO.P,J3,11,Pin_11*
G04 #@! TO.N,D11*
X-8000000Y-8000000D03*
G04 #@! TD*
D20*
G04 #@! TO.P,J2,1,Pin_1*
G04 #@! TO.N,+5V*
X12000000Y8000000D03*
D21*
G04 #@! TO.P,J2,2,Pin_2*
G04 #@! TO.N,RESET*
X10000000Y8000000D03*
G04 #@! TO.P,J2,3,Pin_3*
G04 #@! TO.N,SS*
X8000000Y8000000D03*
G04 #@! TO.P,J2,4,Pin_4*
G04 #@! TO.N,SCK*
X6000000Y8000000D03*
G04 #@! TO.P,J2,5,Pin_5*
G04 #@! TO.N,MOSI*
X4000000Y8000000D03*
G04 #@! TO.P,J2,6,Pin_6*
G04 #@! TO.N,MISO*
X2000000Y8000000D03*
G04 #@! TO.P,J2,7,Pin_7*
G04 #@! TO.N,CTS*
X0Y8000000D03*
G04 #@! TO.P,J2,8,Pin_8*
G04 #@! TO.N,D0{slash}RX*
X-2000000Y8000000D03*
G04 #@! TO.P,J2,9,Pin_9*
G04 #@! TO.N,D1{slash}TX*
X-4000000Y8000000D03*
G04 #@! TO.P,J2,10,Pin_10*
G04 #@! TO.N,D2{slash}SDA*
X-6000000Y8000000D03*
G04 #@! TO.P,J2,11,Pin_11*
G04 #@! TO.N,D3{slash}SCL*
X-8000000Y8000000D03*
G04 #@! TD*
D10*
G04 #@! TO.P,C8,1*
G04 #@! TO.N,+5V*
X11750000Y4725000D03*
G04 #@! TO.P,C8,2*
G04 #@! TO.N,GND*
X11750000Y6275000D03*
G04 #@! TD*
D22*
G04 #@! TO.P,Q1,1,G*
G04 #@! TO.N,VIN*
X7400000Y-5700000D03*
G04 #@! TO.P,Q1,2,S*
G04 #@! TO.N,+5V*
X7400000Y-3800000D03*
G04 #@! TO.P,Q1,3,D*
G04 #@! TO.N,VUSB*
X9600000Y-4750000D03*
G04 #@! TD*
D23*
G04 #@! TO.P,J4,1,Pin_1*
G04 #@! TO.N,D4*
X-8000000Y6000000D03*
D21*
G04 #@! TO.P,J4,2,Pin_2*
G04 #@! TO.N,D5*
X-8000000Y4000000D03*
G04 #@! TO.P,J4,3,Pin_3*
G04 #@! TO.N,D6*
X-8000000Y2000000D03*
G04 #@! TO.P,J4,4,Pin_4*
G04 #@! TO.N,D7*
X-8000000Y0D03*
G04 #@! TO.P,J4,5,Pin_5*
G04 #@! TO.N,D8*
X-8000000Y-2000000D03*
G04 #@! TO.P,J4,6,Pin_6*
G04 #@! TO.N,D9*
X-8000000Y-4000000D03*
G04 #@! TO.P,J4,7,Pin_7*
G04 #@! TO.N,D10*
X-8000000Y-6000000D03*
G04 #@! TD*
D24*
G04 #@! TO.P,C9,1*
G04 #@! TO.N,Net-(IC1-IN)*
X11750000Y-4725000D03*
G04 #@! TO.P,C9,2*
G04 #@! TO.N,GND*
X11750000Y-6275000D03*
G04 #@! TD*
D25*
G04 #@! TO.P,Q2,1,G*
G04 #@! TO.N,+5V*
X7625000Y3800000D03*
G04 #@! TO.P,Q2,2,S*
G04 #@! TO.N,Net-(IC1-IN)*
X7625000Y5700000D03*
G04 #@! TO.P,Q2,3,D*
G04 #@! TO.N,VIN*
X9500000Y4750000D03*
G04 #@! TD*
D26*
G04 #@! TO.N,D-*
X273700Y-1259500D03*
G04 #@! TO.N,D+*
X4162100Y-1480000D03*
G04 #@! TO.N,VUSB*
X6897300Y164000D03*
G04 #@! TO.N,UCAP*
X4079300Y1121400D03*
G04 #@! TO.N,AREF*
X2455600Y-3884500D03*
G04 #@! TO.N,D7*
X-598500Y-3399200D03*
G04 #@! TO.N,Net-(D2-A)*
X1662400Y-933100D03*
X4151700Y-152400D03*
X6207900Y-5228600D03*
G04 #@! TO.N,D11*
X-5478900Y-6835300D03*
X-2788400Y-7040400D03*
X2527700Y1706200D03*
G04 #@! TO.N,CTS*
X-4790800Y5859200D03*
G04 #@! TO.N,D5*
X-4514600Y-2238600D03*
G04 #@! TO.N,A4*
X2905000Y-4427600D03*
G04 #@! TO.N,D13{slash}USER_LED*
X-6224600Y-5285400D03*
G04 #@! TO.N,+5V*
X7701400Y-2761700D03*
X-4538300Y3106000D03*
X-124300Y1607000D03*
X2015300Y6878700D03*
X9507300Y-3839300D03*
G04 #@! TO.N,Net-(U1-~{HWB}{slash}PE2)*
X-6557700Y-6042700D03*
G04 #@! TO.N,Net-(J1-D-)*
X1348200Y-3350400D03*
G04 #@! TO.N,Net-(J1-D+)*
X9276500Y3513800D03*
G04 #@! TO.N,Net-(D1-A)*
X5723500Y6223900D03*
G04 #@! TO.N,RESET*
X-1235500Y-663700D03*
X2758500Y7197000D03*
G04 #@! TO.N,XTAL2*
X-664400Y3202600D03*
G04 #@! TO.N,GND*
X5067100Y-6618500D03*
X-2435400Y-3178800D03*
X-2423200Y2167100D03*
X11042100Y6969700D03*
X2937700Y-991800D03*
G04 #@! TO.N,XTAL1*
X-50000Y6912500D03*
G04 #@! TD*
D27*
G04 #@! TO.N,GND*
X5067100Y-6618500D02*
X3675000Y-5226400D01*
X3675000Y-5226400D02*
X3675000Y-5000000D01*
G04 #@! TO.N,D5*
X-8000000Y4000000D02*
X-6583500Y2583500D01*
X-6583500Y2583500D02*
X-6583500Y-2153900D01*
X-6583500Y-2153900D02*
X-5924800Y-2812600D01*
X-5924800Y-2812600D02*
X-5088600Y-2812600D01*
X-5088600Y-2812600D02*
X-4514600Y-2238600D01*
G04 #@! TO.N,GND*
X225000Y-5000000D02*
X645721Y-5000000D01*
X645721Y-5000000D02*
X2606221Y-3039500D01*
X2606221Y-3039500D02*
X2800700Y-3039500D01*
X2800700Y-3039500D02*
X2844400Y-2995800D01*
X3675000Y-5000000D02*
X3675000Y-3826500D01*
X3675000Y-3826500D02*
X3258700Y-3410200D01*
G04 #@! TO.N,VIN*
X10000000Y-8000000D02*
X7700000Y-5700000D01*
X7700000Y-5700000D02*
X7400000Y-5700000D01*
G04 #@! TO.N,A4*
X6000000Y-8000000D02*
X5568300Y-8000000D01*
X5568300Y-8000000D02*
X2905000Y-5336700D01*
X2905000Y-5336700D02*
X2905000Y-4427600D01*
G04 #@! TO.N,D11*
X-8000000Y-8000000D02*
X-6835300Y-6835300D01*
X-6835300Y-6835300D02*
X-5478900Y-6835300D01*
G04 #@! TO.N,D7*
X-8000000Y0D02*
X-7133300Y-866700D01*
X-7133300Y-866700D02*
X-7133300Y-2002500D01*
X-7133300Y-2002500D02*
X-6001900Y-3133900D01*
X-6001900Y-3133900D02*
X-5114400Y-3133900D01*
X-5114400Y-3133900D02*
X-4281100Y-3967200D01*
X-4281100Y-3967200D02*
X-4281100Y-4064400D01*
X-598500Y-3954500D02*
X-598500Y-3399200D01*
X-4281100Y-4064400D02*
X-3915400Y-4430100D01*
X-3915400Y-4430100D02*
X-1074100Y-4430100D01*
X-1074100Y-4430100D02*
X-598500Y-3954500D01*
G04 #@! TO.N,CTS*
X0Y8000000D02*
X-2120800Y5879200D01*
X-2120800Y5879200D02*
X-2879200Y5879200D01*
G04 #@! TO.N,+5V*
X12000000Y8000000D02*
X11377100Y8000000D01*
X11377100Y8000000D02*
X10550400Y7173300D01*
G04 #@! TO.N,RESET*
X10000000Y8000000D02*
X9133300Y7133300D01*
X9133300Y7133300D02*
X2822200Y7133300D01*
X2822200Y7133300D02*
X2758500Y7197000D01*
G04 #@! TO.N,Net-(IC1-IN)*
X9108600Y0D02*
X10046200Y0D01*
X10046200Y0D02*
X10638000Y0D01*
X8338000Y0D02*
X8723300Y0D01*
X8723300Y0D02*
X9108600Y0D01*
X10046200Y3863100D02*
X10046200Y0D01*
X10436700Y4253600D02*
X10046200Y3863100D01*
X10436700Y5072000D02*
X10436700Y4253600D01*
X9808700Y5700000D02*
X10436700Y5072000D01*
X7625000Y5700000D02*
X9808700Y5700000D01*
X8508700Y0D02*
X8723300Y0D01*
X7408300Y-1100400D02*
X8508700Y0D01*
X7408300Y-1854400D02*
X7408300Y-1100400D01*
X7771200Y-2217300D02*
X7408300Y-1854400D01*
X8635600Y-2217300D02*
X7771200Y-2217300D01*
X9999000Y-3580700D02*
X8635600Y-2217300D01*
X9999000Y-3817800D02*
X9999000Y-3580700D01*
X10906200Y-4725000D02*
X9999000Y-3817800D01*
X11750000Y-4725000D02*
X10906200Y-4725000D01*
G04 #@! TO.N,D-*
X175000Y-1160800D02*
X273700Y-1259500D01*
X175000Y0D02*
X175000Y-1160800D01*
G04 #@! TO.N,D+*
X3545000Y-862900D02*
X4162100Y-1480000D01*
X3545000Y2370000D02*
X3545000Y-862900D01*
X3675000Y2500000D02*
X3545000Y2370000D01*
X4162100Y-1480000D02*
X4161000Y-1478900D01*
X4161000Y-1478900D02*
X4162100Y-1480000D01*
G04 #@! TO.N,VUSB*
X6507300Y-4245300D02*
X6507300Y-91300D01*
X7012000Y-4750000D02*
X6507300Y-4245300D01*
X9600000Y-4750000D02*
X7012000Y-4750000D01*
X6642000Y-91300D02*
X6507300Y-91300D01*
X6897300Y164000D02*
X6642000Y-91300D01*
X4680000Y4355000D02*
X5325000Y5000000D01*
X4680000Y1736000D02*
X4680000Y4355000D01*
X6507300Y-91300D02*
X4680000Y1736000D01*
G04 #@! TO.N,UCAP*
X5275000Y-74300D02*
X5275000Y-2500000D01*
X4079300Y1121400D02*
X5275000Y-74300D01*
G04 #@! TO.N,VIN*
X5671600Y-4653400D02*
X5963300Y-4653400D01*
X5325000Y-5000000D02*
X5671600Y-4653400D01*
X6353400Y-4653400D02*
X5963300Y-4653400D01*
X7400000Y-5700000D02*
X6353400Y-4653400D01*
X7257800Y4750000D02*
X9500000Y4750000D01*
X6319200Y5688600D02*
X7257800Y4750000D01*
X4968900Y5688600D02*
X6319200Y5688600D01*
X4398300Y5118000D02*
X4968900Y5688600D01*
X4398300Y1619200D02*
X4398300Y5118000D01*
X5963300Y54200D02*
X4398300Y1619200D01*
X5963300Y-4653400D02*
X5963300Y54200D01*
G04 #@! TO.N,AREF*
X1775000Y-4565100D02*
X1775000Y-5000000D01*
X2400000Y-3940100D02*
X1775000Y-4565100D01*
X2400000Y-3940100D02*
X2455600Y-3884500D01*
G04 #@! TO.N,Net-(D2-A)*
X5769000Y-5667500D02*
X6207900Y-5228600D01*
X4962300Y-5667500D02*
X5769000Y-5667500D01*
X4587800Y-5293000D02*
X4962300Y-5667500D01*
X4587800Y-1961300D02*
X4587800Y-5293000D01*
X4664800Y-1884300D02*
X4587800Y-1961300D01*
X4664800Y-665500D02*
X4664800Y-1884300D01*
X4151700Y-152400D02*
X4664800Y-665500D01*
X1825000Y-1095700D02*
X1824100Y-1094800D01*
X1825000Y-2500000D02*
X1825000Y-1095700D01*
X1824100Y-1094800D02*
X1662400Y-933100D01*
G04 #@! TO.N,D11*
X-2788400Y-6945800D02*
X-2788400Y-7040400D01*
X827600Y-3329800D02*
X-2788400Y-6945800D01*
X827600Y110800D02*
X827600Y-3329800D01*
X2423000Y1706200D02*
X827600Y110800D01*
X2527700Y1706200D02*
X2423000Y1706200D01*
X2527700Y1706200D02*
X2423000Y1706200D01*
X2423000Y1706200D02*
X2527700Y1706200D01*
X-2788400Y-7040400D02*
X-2967900Y-6860900D01*
X-2967900Y-6860900D02*
X-2788400Y-7040400D01*
G04 #@! TO.N,CTS*
X-2899200Y5859200D02*
X-4790800Y5859200D01*
X-2879200Y5879200D02*
X-2899200Y5859200D01*
G04 #@! TO.N,A4*
X2905000Y-4427600D02*
X2986900Y-4345700D01*
X2986900Y-4345700D02*
X2905000Y-4427600D01*
G04 #@! TO.N,D13{slash}USER_LED*
X-4000000Y-8000000D02*
X-4000000Y-7566600D01*
X-4000000Y-7321800D02*
X-4000000Y-7133300D01*
X-4000000Y-7566600D02*
X-4000000Y-7321800D01*
X-5847900Y-5285400D02*
X-6224600Y-5285400D01*
X-4000000Y-7133300D02*
X-5847900Y-5285400D01*
X-2303100Y-5436400D02*
X-4000000Y-7133300D01*
X-1679300Y-5436400D02*
X-2303100Y-5436400D01*
X175000Y-3582100D02*
X-1679300Y-5436400D01*
X175000Y-2500000D02*
X175000Y-3582100D01*
G04 #@! TO.N,+5V*
X7479400Y1500000D02*
X7408300Y1500000D01*
X8250000Y1500000D02*
X7479400Y1500000D01*
X-4619000Y3106000D02*
X-4538300Y3106000D01*
X-5500000Y2225000D02*
X-4619000Y3106000D01*
X1417300Y3757700D02*
X175000Y5000000D01*
X1417300Y2500000D02*
X1417300Y3757700D01*
X1417300Y2500000D02*
X1825000Y2500000D01*
X-3500000Y-3775000D02*
X-1500000Y-3775000D01*
X-124300Y1605400D02*
X-124300Y1607000D01*
X11300Y1469800D02*
X-124300Y1605400D01*
X10550400Y7173300D02*
X10550400Y6778400D01*
X2188700Y6705300D02*
X2015300Y6878700D01*
X3089400Y6705300D02*
X2188700Y6705300D01*
X3162500Y6778400D02*
X3089400Y6705300D01*
X10550400Y6778400D02*
X3162500Y6778400D01*
X10550400Y5924600D02*
X11750000Y4725000D01*
X10550400Y6778400D02*
X10550400Y5924600D01*
X7408300Y3583300D02*
X7625000Y3800000D01*
X7408300Y1500000D02*
X7408300Y3583300D01*
X7389000Y1409600D02*
X7479400Y1500000D01*
X7389000Y-39700D02*
X7389000Y1409600D01*
X7118300Y-310400D02*
X7389000Y-39700D01*
X7118300Y-3518300D02*
X7118300Y-310400D01*
X7400000Y-3800000D02*
X7118300Y-3518300D01*
X387100Y1469800D02*
X1417300Y2500000D01*
X11300Y1469800D02*
X387100Y1469800D01*
X-1500000Y-3605400D02*
X-1500000Y-3775000D01*
X-743800Y-2849200D02*
X-1500000Y-3605400D01*
X-743800Y714700D02*
X-743800Y-2849200D01*
X11300Y1469800D02*
X-743800Y714700D01*
X9166600Y-3498600D02*
X7701400Y-3498600D01*
X9507300Y-3839300D02*
X9166600Y-3498600D01*
X7400000Y-3800000D02*
X7701400Y-3498600D01*
X7701400Y-3498600D02*
X7701400Y-2761700D01*
G04 #@! TO.N,Net-(U1-~{HWB}{slash}PE2)*
X-6719100Y-5044100D02*
X-5500000Y-3825000D01*
X-6719100Y-5881300D02*
X-6719100Y-5044100D01*
X-6557700Y-6042700D02*
X-6719100Y-5881300D01*
X-6557700Y-6042700D02*
X-6557700Y-6041100D01*
X-6557700Y-6041100D02*
X-6557700Y-6042700D01*
G04 #@! TO.N,Net-(J1-D-)*
X1348200Y-3350400D02*
X1199700Y-3350400D01*
X1199700Y-3350400D02*
X1348200Y-3350400D01*
X1169100Y-655900D02*
X1825000Y0D01*
X1169100Y-3171300D02*
X1169100Y-655900D01*
X1348200Y-3350400D02*
X1169100Y-3171300D01*
G04 #@! TO.N,Net-(J1-D+)*
X8464100Y4326200D02*
X9276500Y3513800D01*
X6913300Y4326200D02*
X8464100Y4326200D01*
X5325000Y2737900D02*
X6913300Y4326200D01*
X5325000Y2500000D02*
X5325000Y2737900D01*
G04 #@! TO.N,Net-(D1-A)*
X3048900Y6223900D02*
X5723500Y6223900D01*
X1825000Y5000000D02*
X3048900Y6223900D01*
G04 #@! TO.N,RESET*
X-1235500Y1191100D02*
X-1235500Y-663700D01*
X73400Y2500000D02*
X-1235500Y1191100D01*
X175000Y2500000D02*
X73400Y2500000D01*
G04 #@! TO.N,XTAL2*
X-2650200Y-549800D02*
X-1808300Y-549800D01*
X-1808300Y1916700D02*
X-1808300Y-549800D01*
X-1500000Y2225000D02*
X-1808300Y1916700D01*
X-1500000Y2367000D02*
X-1500000Y2225000D01*
X-664400Y3202600D02*
X-1500000Y2367000D01*
G04 #@! TO.N,GND*
X-4349700Y-549800D02*
X-4349700Y-1191800D01*
X12000000Y-8000000D02*
X12000000Y-7133300D01*
X-5500000Y3775000D02*
X-3500000Y3775000D01*
X-3500000Y-2041500D02*
X-3500000Y-2133200D01*
X-4349700Y-1191800D02*
X-3500000Y-2041500D01*
X-3500000Y541900D02*
X-3492200Y549700D01*
X-3500000Y-2133200D02*
X-3500000Y541900D01*
X-2650200Y549700D02*
X-3492200Y549700D01*
X11750000Y-6883300D02*
X11750000Y-6275000D01*
X12000000Y-7133300D02*
X11750000Y-6883300D01*
X-3500000Y-2133200D02*
X-3500000Y-2225000D01*
X-1500000Y-2225000D02*
X-3500000Y-2225000D01*
X-5332900Y-2175000D02*
X-4349700Y-1191800D01*
X-5500000Y-2175000D02*
X-5332900Y-2175000D01*
X-6193600Y3081400D02*
X-5500000Y3775000D01*
X-6193600Y-1481400D02*
X-6193600Y3081400D01*
X-5500000Y-2175000D02*
X-6193600Y-1481400D01*
X-3389200Y-2225000D02*
X-3500000Y-2225000D01*
X-2435400Y-3178800D02*
X-3389200Y-2225000D01*
X-2650200Y1940100D02*
X-2423200Y2167100D01*
X-2650200Y549700D02*
X-2650200Y1940100D01*
X11736800Y6275000D02*
X11042100Y6969700D01*
X11750000Y6275000D02*
X11736800Y6275000D01*
X-2423200Y2851800D02*
X-1500000Y3775000D01*
X-2423200Y2167100D02*
X-2423200Y2851800D01*
X3725000Y-2500000D02*
X3036800Y-3188200D01*
X3258700Y-3410200D02*
X3036800Y-3188200D01*
X3036800Y-3188200D02*
X2844400Y-2995800D01*
X9125000Y-1500000D02*
X8250000Y-1500000D01*
X11200000Y-3575000D02*
X9125000Y-1500000D01*
X3675000Y3959100D02*
X3675000Y5000000D01*
X2844400Y3128500D02*
X3675000Y3959100D01*
X2657000Y3128500D02*
X2844400Y3128500D01*
X1000000Y4785500D02*
X2657000Y3128500D01*
X1000000Y5274100D02*
X1000000Y4785500D01*
X574000Y5700100D02*
X1000000Y5274100D01*
X-176600Y5700100D02*
X574000Y5700100D01*
X-1500000Y4376700D02*
X-176600Y5700100D01*
X-1500000Y3775000D02*
X-1500000Y4376700D01*
X2844400Y-1085100D02*
X2937700Y-991800D01*
X2844400Y-2995800D02*
X2844400Y-1085100D01*
X-2435400Y-3178800D02*
X-2523600Y-3267000D01*
X-2523600Y-3267000D02*
X-2435400Y-3178800D01*
X3019400Y2953500D02*
X2844400Y3128500D01*
X3019400Y-910100D02*
X3019400Y2953500D01*
X2937700Y-991800D02*
X3019400Y-910100D01*
G04 #@! TO.N,XTAL1*
X-3500000Y2041300D02*
X-3500000Y2225000D01*
X-4349700Y1191600D02*
X-3500000Y2041300D01*
X-4349700Y549700D02*
X-4349700Y1191600D01*
X-2499900Y4462600D02*
X-50000Y6912500D01*
X-2499900Y3225100D02*
X-2499900Y4462600D01*
X-3500000Y2225000D02*
X-2499900Y3225100D01*
G04 #@! TD*
G04 #@! TA.AperFunction,Conductor*
G04 #@! TO.N,GND*
G36*
X-6655955Y8485148D02*
G01*
X-6641603Y8450500D01*
X-6649861Y8423277D01*
X-6687239Y8367337D01*
X-6745698Y8226205D01*
X-6775500Y8076380D01*
X-6775500Y7923620D01*
X-6745698Y7773795D01*
X-6687239Y7632663D01*
X-6648081Y7574059D01*
X-6602372Y7505650D01*
X-6494349Y7397627D01*
X-6435636Y7358397D01*
X-6367337Y7312761D01*
X-6367333Y7312759D01*
X-6367331Y7312758D01*
X-6226212Y7254304D01*
X-6226206Y7254302D01*
X-6226205Y7254302D01*
X-6226202Y7254301D01*
X-6226193Y7254299D01*
X-6076385Y7224500D01*
X-6076380Y7224500D01*
X-5923614Y7224500D01*
X-5773806Y7254299D01*
X-5773787Y7254304D01*
X-5632668Y7312758D01*
X-5632667Y7312758D01*
X-5505650Y7397627D01*
X-5397627Y7505650D01*
X-5312758Y7632667D01*
X-5312758Y7632668D01*
X-5254304Y7773787D01*
X-5254299Y7773806D01*
X-5224500Y7923614D01*
X-5224500Y8076385D01*
X-5254299Y8226193D01*
X-5254304Y8226212D01*
X-5312758Y8367331D01*
X-5312758Y8367332D01*
X-5350139Y8423277D01*
X-5357455Y8460060D01*
X-5336620Y8491242D01*
X-5309397Y8499500D01*
X-4690603Y8499500D01*
X-4655955Y8485148D01*
X-4641603Y8450500D01*
X-4649861Y8423277D01*
X-4687239Y8367337D01*
X-4745698Y8226205D01*
X-4775500Y8076380D01*
X-4775500Y7923620D01*
X-4745698Y7773795D01*
X-4687239Y7632663D01*
X-4648081Y7574059D01*
X-4602372Y7505650D01*
X-4494349Y7397627D01*
X-4435636Y7358397D01*
X-4367337Y7312761D01*
X-4367333Y7312759D01*
X-4367331Y7312758D01*
X-4226212Y7254304D01*
X-4226206Y7254302D01*
X-4226205Y7254302D01*
X-4226202Y7254301D01*
X-4226193Y7254299D01*
X-4076385Y7224500D01*
X-4076380Y7224500D01*
X-3923614Y7224500D01*
X-3773806Y7254299D01*
X-3773787Y7254304D01*
X-3632668Y7312758D01*
X-3632667Y7312758D01*
X-3505650Y7397627D01*
X-3397627Y7505650D01*
X-3312758Y7632667D01*
X-3312758Y7632668D01*
X-3254304Y7773787D01*
X-3254299Y7773806D01*
X-3224500Y7923614D01*
X-3224500Y8076385D01*
X-3254299Y8226193D01*
X-3254304Y8226212D01*
X-3312758Y8367331D01*
X-3312758Y8367332D01*
X-3350139Y8423277D01*
X-3357455Y8460060D01*
X-3336620Y8491242D01*
X-3309397Y8499500D01*
X-2690603Y8499500D01*
X-2655955Y8485148D01*
X-2641603Y8450500D01*
X-2649861Y8423277D01*
X-2687239Y8367337D01*
X-2745698Y8226205D01*
X-2775500Y8076380D01*
X-2775500Y7923620D01*
X-2745698Y7773795D01*
X-2687239Y7632663D01*
X-2648081Y7574059D01*
X-2602372Y7505650D01*
X-2494349Y7397627D01*
X-2435636Y7358397D01*
X-2367337Y7312761D01*
X-2367333Y7312759D01*
X-2367331Y7312758D01*
X-2226212Y7254304D01*
X-2226206Y7254302D01*
X-2226205Y7254302D01*
X-2226202Y7254301D01*
X-2226193Y7254299D01*
X-2076385Y7224500D01*
X-2076380Y7224500D01*
X-1923614Y7224500D01*
X-1773806Y7254299D01*
X-1773787Y7254304D01*
X-1632668Y7312758D01*
X-1632667Y7312758D01*
X-1505650Y7397627D01*
X-1397627Y7505650D01*
X-1312758Y7632667D01*
X-1312758Y7632668D01*
X-1254304Y7773787D01*
X-1254299Y7773806D01*
X-1224500Y7923614D01*
X-1224500Y8076385D01*
X-1254299Y8226193D01*
X-1254304Y8226212D01*
X-1312758Y8367331D01*
X-1312758Y8367332D01*
X-1350139Y8423277D01*
X-1357455Y8460060D01*
X-1336620Y8491242D01*
X-1309397Y8499500D01*
X-690603Y8499500D01*
X-655955Y8485148D01*
X-641603Y8450500D01*
X-649861Y8423277D01*
X-687239Y8367337D01*
X-745698Y8226205D01*
X-775500Y8076380D01*
X-775500Y7923620D01*
X-745698Y7773795D01*
X-687239Y7632663D01*
X-687235Y7632657D01*
X-686787Y7631818D01*
X-686754Y7631492D01*
X-686318Y7630438D01*
X-686637Y7630305D01*
X-683100Y7594497D01*
X-695344Y7574061D01*
X-1836516Y6432891D01*
X-2185355Y6084052D01*
X-2220003Y6069700D01*
X-2917093Y6069700D01*
X-2956372Y6053430D01*
X-2975124Y6049700D01*
X-4410037Y6049700D01*
X-4444685Y6064052D01*
X-4452472Y6074199D01*
X-4453734Y6076385D01*
X-4470320Y6105113D01*
X-4544887Y6179680D01*
X-4578313Y6198978D01*
X-4636210Y6232406D01*
X-4636212Y6232406D01*
X-4636213Y6232407D01*
X-4661678Y6239230D01*
X-4738070Y6259700D01*
X-4738073Y6259700D01*
X-4843527Y6259700D01*
X-4843530Y6259700D01*
X-4904643Y6243324D01*
X-4945387Y6232407D01*
X-5036713Y6179680D01*
X-5111280Y6105113D01*
X-5164007Y6013787D01*
X-5191299Y5911930D01*
X-5191300Y5911930D01*
X-5191300Y5806470D01*
X-5191299Y5806469D01*
X-5169470Y5725000D01*
X-5164007Y5704614D01*
X-5164006Y5704610D01*
X-5143273Y5668700D01*
X-5122470Y5632668D01*
X-5111279Y5613286D01*
X-5036713Y5538720D01*
X-4945389Y5485993D01*
X-4945385Y5485992D01*
X-4843530Y5458700D01*
X-4843527Y5458700D01*
X-4738069Y5458700D01*
X-4636214Y5485992D01*
X-4636210Y5485993D01*
X-4544886Y5538720D01*
X-4544886Y5538721D01*
X-4470322Y5613284D01*
X-4459131Y5632667D01*
X-4452471Y5644201D01*
X-4422718Y5667031D01*
X-4410037Y5668700D01*
X-2861305Y5668700D01*
X-2822028Y5684970D01*
X-2803276Y5688700D01*
X-2082905Y5688700D01*
X-2012889Y5717702D01*
X-1986096Y5744496D01*
X-1959302Y5771290D01*
X-1959301Y5771291D01*
X-1202032Y6528560D01*
X-425939Y7304652D01*
X-391291Y7319004D01*
X-369605Y7313572D01*
X-369560Y7313682D01*
X-368824Y7313377D01*
X-368196Y7313220D01*
X-367339Y7312762D01*
X-367337Y7312761D01*
X-358870Y7309254D01*
X-328169Y7296537D01*
X-301651Y7270018D01*
X-301651Y7232515D01*
X-312268Y7216624D01*
X-370480Y7158413D01*
X-423207Y7067087D01*
X-450499Y6965230D01*
X-450500Y6965230D01*
X-450500Y6859771D01*
X-441261Y6825293D01*
X-446155Y6788111D01*
X-453939Y6777966D01*
X-2600916Y4630990D01*
X-2600918Y4630989D01*
X-2607809Y4624098D01*
X-2607810Y4624098D01*
X-2661398Y4570510D01*
X-2690400Y4500493D01*
X-2690400Y4500490D01*
X-2690400Y3324302D01*
X-2704751Y3289655D01*
X-2965301Y3029105D01*
X-3204555Y2789851D01*
X-3239203Y2775499D01*
X-3788138Y2775499D01*
X-3835545Y2769259D01*
X-3939579Y2720747D01*
X-4020747Y2639579D01*
X-4069259Y2535545D01*
X-4075500Y2488139D01*
X-4075499Y1961862D01*
X-4069259Y1914455D01*
X-4028738Y1827559D01*
X-4027103Y1790094D01*
X-4038498Y1772207D01*
X-4450716Y1359990D01*
X-4450718Y1359989D01*
X-4457609Y1353098D01*
X-4457610Y1353098D01*
X-4511198Y1299510D01*
X-4540200Y1229493D01*
X-4540200Y1229490D01*
X-4540200Y1149499D01*
X-4554552Y1114851D01*
X-4589200Y1100499D01*
X-5009898Y1100499D01*
X-5039213Y1094669D01*
X-5072457Y1072457D01*
X-5094669Y1039213D01*
X-5100500Y1009899D01*
X-5100499Y89602D01*
X-5094669Y60287D01*
X-5094668Y60285D01*
X-5086619Y48239D01*
X-5072457Y27043D01*
X-5072455Y27042D01*
X-5072276Y26773D01*
X-5064960Y-10010D01*
X-5072276Y-27672D01*
X-5094197Y-60480D01*
X-5100000Y-89654D01*
X-5100000Y-499750D01*
X-3599501Y-499750D01*
X-3599501Y-89654D01*
X-3605302Y-60481D01*
X-3605305Y-60474D01*
X-3627223Y-27672D01*
X-3634539Y9110D01*
X-3627223Y26772D01*
X-3604831Y60283D01*
X-3604830Y60287D01*
X-3599000Y89595D01*
X-3599000Y1009845D01*
X-3400500Y1009845D01*
X-3400500Y599750D01*
X-2700250Y599750D01*
X-2700250Y1099999D01*
X-3310345Y1099999D01*
X-3339518Y1094197D01*
X-3339522Y1094195D01*
X-3372597Y1072095D01*
X-3394697Y1039019D01*
X-3400500Y1009845D01*
X-3599000Y1009845D01*
X-3599000Y1009894D01*
X-3599001Y1009895D01*
X-3599001Y1009898D01*
X-3604831Y1039213D01*
X-3604832Y1039215D01*
X-3604832Y1039216D01*
X-3627042Y1072456D01*
X-3630100Y1074499D01*
X-3660287Y1094669D01*
X-3689601Y1100500D01*
X-4053096Y1100499D01*
X-4087744Y1114851D01*
X-4102096Y1149499D01*
X-4087744Y1184147D01*
X-3611742Y1660148D01*
X-3577094Y1674500D01*
X-3211867Y1674500D01*
X-3211861Y1674501D01*
X-3164454Y1680740D01*
X-3060420Y1729253D01*
X-3060418Y1729254D01*
X-2979254Y1810418D01*
X-2979253Y1810420D01*
X-2930742Y1914452D01*
X-2930741Y1914453D01*
X-2926099Y1949716D01*
X-2924500Y1961861D01*
X-2924500Y2180141D01*
X-2924500Y2488132D01*
X-2924501Y2488138D01*
X-2926344Y2502138D01*
X-2916636Y2538362D01*
X-2912411Y2543180D01*
X-2391991Y3063601D01*
X-2391990Y3063602D01*
X-2362188Y3093404D01*
X-2338402Y3117189D01*
X-2309400Y3187205D01*
X-2309400Y3511919D01*
X-2074999Y3511919D01*
X-2074998Y3511914D01*
X-2068769Y3464585D01*
X-2020331Y3360711D01*
X-2020330Y3360709D01*
X-1939290Y3279669D01*
X-1939288Y3279668D01*
X-1835415Y3231231D01*
X-1788081Y3225000D01*
X-1550000Y3225000D01*
X-1550000Y3725000D01*
X-2074999Y3725000D01*
X-2074999Y3511919D01*
X-2309400Y3511919D01*
X-2309400Y4038081D01*
X-2075000Y4038081D01*
X-2075000Y3825000D01*
X-1550000Y3825000D01*
X-1550000Y4324998D01*
X-1450000Y4324998D01*
X-1450000Y3825000D01*
X-925001Y3825000D01*
X-925001Y4038085D01*
X-931230Y4085414D01*
X-979668Y4189288D01*
X-979669Y4189290D01*
X-1060709Y4270330D01*
X-1060711Y4270331D01*
X-1164584Y4318768D01*
X-1211918Y4324999D01*
X-1449999Y4324999D01*
X-1450000Y4324998D01*
X-1550000Y4324998D01*
X-1550000Y4324999D01*
X-1788081Y4324999D01*
X-1788085Y4324998D01*
X-1835414Y4318769D01*
X-1939288Y4270331D01*
X-1939290Y4270330D01*
X-2020330Y4189290D01*
X-2020331Y4189288D01*
X-2068768Y4085415D01*
X-2075000Y4038081D01*
X-2309400Y4038081D01*
X-2309400Y4363396D01*
X-2295048Y4398044D01*
X-184536Y6508555D01*
X-149888Y6522907D01*
X-137207Y6521238D01*
X-102728Y6512000D01*
X-102727Y6512000D01*
X2730Y6512000D01*
X104585Y6539292D01*
X104589Y6539293D01*
X195913Y6592020D01*
X270479Y6666586D01*
X282405Y6687241D01*
X303693Y6724114D01*
X323206Y6757910D01*
X323207Y6757914D01*
X350499Y6859769D01*
X350500Y6859770D01*
X350500Y6965230D01*
X332264Y7033285D01*
X323207Y7067087D01*
X270480Y7158413D01*
X241563Y7187330D01*
X227211Y7221978D01*
X241563Y7256626D01*
X257460Y7267248D01*
X367331Y7312758D01*
X367332Y7312758D01*
X367335Y7312760D01*
X367337Y7312761D01*
X414157Y7344045D01*
X494349Y7397627D01*
X602372Y7505650D01*
X648081Y7574059D01*
X687239Y7632663D01*
X745698Y7773795D01*
X775500Y7923620D01*
X775500Y8076380D01*
X745698Y8226205D01*
X687239Y8367337D01*
X649861Y8423277D01*
X642545Y8460060D01*
X663380Y8491242D01*
X690603Y8499500D01*
X1309397Y8499500D01*
X1344045Y8485148D01*
X1358397Y8450500D01*
X1350139Y8423277D01*
X1312758Y8367332D01*
X1312758Y8367331D01*
X1254304Y8226212D01*
X1254299Y8226193D01*
X1224500Y8076385D01*
X1224500Y7923614D01*
X1254299Y7773806D01*
X1254304Y7773787D01*
X1312758Y7632668D01*
X1312758Y7632667D01*
X1397627Y7505650D01*
X1505650Y7397627D01*
X1632666Y7312759D01*
X1741904Y7267511D01*
X1768422Y7240992D01*
X1768422Y7203489D01*
X1757800Y7187593D01*
X1694820Y7124613D01*
X1642093Y7033289D01*
X1642092Y7033285D01*
X1614800Y6931430D01*
X1614800Y6825969D01*
X1642092Y6724114D01*
X1642093Y6724110D01*
X1694820Y6632786D01*
X1769386Y6558221D01*
X1769386Y6558220D01*
X1860710Y6505493D01*
X1860714Y6505492D01*
X1962569Y6478200D01*
X1962573Y6478200D01*
X2068030Y6478200D01*
X2169885Y6505492D01*
X2169889Y6505493D01*
X2174637Y6508235D01*
X2199137Y6514800D01*
X3127294Y6514800D01*
X3197310Y6543802D01*
X3212106Y6558598D01*
X3227056Y6573548D01*
X3261703Y6587900D01*
X5402811Y6587900D01*
X5417762Y6581706D01*
X5433320Y6577243D01*
X5434744Y6574672D01*
X5437459Y6573548D01*
X5443651Y6558598D01*
X5451497Y6544440D01*
X5450590Y6541845D01*
X5451811Y6538900D01*
X5441154Y6508391D01*
X5439424Y6506217D01*
X5403020Y6469813D01*
X5383350Y6435743D01*
X5381080Y6432891D01*
X5367624Y6425434D01*
X5355418Y6416069D01*
X5349259Y6415258D01*
X5348277Y6414714D01*
X5347285Y6414998D01*
X5342737Y6414400D01*
X3011007Y6414400D01*
X2940990Y6385398D01*
X2887402Y6331810D01*
X2887402Y6331809D01*
X2880511Y6324918D01*
X2880510Y6324918D01*
X2880509Y6324916D01*
X2141173Y5585580D01*
X2106525Y5571228D01*
X2098665Y5572278D01*
X2098652Y5572160D01*
X2094992Y5572584D01*
X2094991Y5572585D01*
X2069865Y5575500D01*
X1580136Y5575499D01*
X1555009Y5572585D01*
X1554047Y5572160D01*
X1452233Y5527205D01*
X1372794Y5447766D01*
X1327415Y5344993D01*
X1324500Y5319865D01*
X1324500Y4680141D01*
X1324501Y4680131D01*
X1327415Y4655007D01*
X1372794Y4552233D01*
X1452234Y4472794D01*
X1452232Y4472794D01*
X1555006Y4427415D01*
X1573853Y4425228D01*
X1580135Y4424500D01*
X1580136Y4424500D01*
X2069858Y4424500D01*
X2069868Y4424501D01*
X2094992Y4427415D01*
X2197766Y4472794D01*
X2277205Y4552233D01*
X2322584Y4655006D01*
X2322584Y4655007D01*
X2322585Y4655009D01*
X2325500Y4680135D01*
X2325500Y4680205D01*
X3175001Y4680205D01*
X3177910Y4655123D01*
X3223213Y4552520D01*
X3302521Y4473213D01*
X3302519Y4473213D01*
X3405126Y4427909D01*
X3430189Y4425001D01*
X3430210Y4425000D01*
X3625000Y4425000D01*
X3625000Y4950000D01*
X3175001Y4950000D01*
X3175001Y4680205D01*
X2325500Y4680205D01*
X2325499Y5210796D01*
X2339851Y5245444D01*
X2414197Y5319790D01*
X3175000Y5319790D01*
X3175000Y5050000D01*
X3625000Y5050000D01*
X3625000Y5574999D01*
X3430212Y5574999D01*
X3430205Y5574998D01*
X3405123Y5572089D01*
X3302520Y5526786D01*
X3223213Y5447479D01*
X3177909Y5344873D01*
X3175001Y5319810D01*
X3175000Y5319790D01*
X2414197Y5319790D01*
X3113455Y6019048D01*
X3148103Y6033400D01*
X5342737Y6033400D01*
X5346479Y6031849D01*
X5350419Y6032794D01*
X5359845Y6026313D01*
X5377385Y6019048D01*
X5382389Y6013187D01*
X5383893Y6011114D01*
X5403020Y5977987D01*
X5420992Y5960014D01*
X5423263Y5956887D01*
X5426801Y5942124D01*
X5432611Y5928100D01*
X5431060Y5924357D01*
X5432005Y5920418D01*
X5424068Y5907477D01*
X5418259Y5893452D01*
X5414516Y5891901D01*
X5412398Y5888448D01*
X5397635Y5884909D01*
X5383611Y5879100D01*
X5006792Y5879100D01*
X4931007Y5879100D01*
X4860990Y5850098D01*
X4860988Y5850096D01*
X4860987Y5850096D01*
X4413671Y5402778D01*
X4290391Y5279498D01*
X4290390Y5279498D01*
X4258645Y5247753D01*
X4234146Y5237606D01*
X4223999Y5233403D01*
X4223998Y5233403D01*
X4189350Y5247755D01*
X4177859Y5275499D01*
X4174999Y5282403D01*
X4174999Y5319787D01*
X4174998Y5319794D01*
X4172089Y5344876D01*
X4126786Y5447479D01*
X4047479Y5526786D01*
X3944873Y5572090D01*
X3919810Y5574998D01*
X3919790Y5574999D01*
X3725000Y5574999D01*
X3725000Y4425000D01*
X3919787Y4425000D01*
X3919794Y4425001D01*
X3944876Y4427910D01*
X4047479Y4473213D01*
X4124152Y4549886D01*
X4158800Y4564238D01*
X4193448Y4549886D01*
X4207800Y4515238D01*
X4207800Y2985468D01*
X4193448Y2950820D01*
X4158800Y2936468D01*
X4124152Y2950820D01*
X4047766Y3027205D01*
X4047765Y3027206D01*
X3944991Y3072585D01*
X3919865Y3075500D01*
X3430136Y3075499D01*
X3405009Y3072585D01*
X3361263Y3053269D01*
X3302233Y3027205D01*
X3222794Y2947766D01*
X3177415Y2844993D01*
X3174500Y2819865D01*
X3174500Y2180141D01*
X3174501Y2180131D01*
X3177415Y2155007D01*
X3222794Y2052233D01*
X3302234Y1972794D01*
X3302234Y1972793D01*
X3325294Y1962611D01*
X3351192Y1935486D01*
X3354500Y1917787D01*
X3354500Y-900794D01*
X3379857Y-962011D01*
X3383502Y-970810D01*
X3437090Y-1024398D01*
X3437091Y-1024398D01*
X3443982Y-1031289D01*
X3443981Y-1031289D01*
X3443983Y-1031290D01*
X3758155Y-1345463D01*
X3772507Y-1380111D01*
X3770838Y-1392792D01*
X3761600Y-1427272D01*
X3761600Y-1532730D01*
X3788892Y-1634585D01*
X3788893Y-1634589D01*
X3840061Y-1723213D01*
X3841620Y-1725913D01*
X3916187Y-1800480D01*
X3973492Y-1833565D01*
X3996322Y-1863318D01*
X3991427Y-1900500D01*
X3961674Y-1923330D01*
X3948992Y-1925000D01*
X3775000Y-1925000D01*
X3775000Y-2450000D01*
X4274999Y-2450000D01*
X4274999Y-2211919D01*
X4274998Y-2211914D01*
X4268769Y-2164585D01*
X4220331Y-2060711D01*
X4220330Y-2060709D01*
X4139290Y-1979669D01*
X4139288Y-1979668D01*
X4126938Y-1973909D01*
X4101601Y-1946259D01*
X4103237Y-1908792D01*
X4130887Y-1883455D01*
X4147646Y-1880500D01*
X4214830Y-1880500D01*
X4214830Y-1880499D01*
X4316687Y-1853207D01*
X4335843Y-1842146D01*
X4373024Y-1837250D01*
X4402778Y-1860079D01*
X4407675Y-1897261D01*
X4405615Y-1903331D01*
X4397300Y-1923405D01*
X4397300Y-5330894D01*
X4418961Y-5383187D01*
X4426302Y-5400910D01*
X4479890Y-5454498D01*
X4479891Y-5454498D01*
X4486782Y-5461389D01*
X4486781Y-5461389D01*
X4486783Y-5461390D01*
X4798006Y-5772613D01*
X4798009Y-5772617D01*
X4798010Y-5772617D01*
X4800801Y-5775408D01*
X4800802Y-5775410D01*
X4854390Y-5828998D01*
X4924407Y-5858000D01*
X4924408Y-5858000D01*
X4924409Y-5858000D01*
X5806891Y-5858000D01*
X5806892Y-5858000D01*
X5806893Y-5858000D01*
X5876910Y-5828998D01*
X5930498Y-5775410D01*
X5930498Y-5775409D01*
X5937389Y-5768518D01*
X5937390Y-5768516D01*
X6073363Y-5632542D01*
X6108010Y-5618191D01*
X6120693Y-5619861D01*
X6155171Y-5629100D01*
X6155173Y-5629100D01*
X6260630Y-5629100D01*
X6260630Y-5629099D01*
X6362487Y-5601807D01*
X6453813Y-5549080D01*
X6515852Y-5487041D01*
X6550500Y-5472689D01*
X6585148Y-5487041D01*
X6599500Y-5521689D01*
X6599500Y-5983261D01*
X6603676Y-6011919D01*
X6609427Y-6051393D01*
X6660802Y-6156483D01*
X6743517Y-6239198D01*
X6848607Y-6290573D01*
X6896884Y-6297606D01*
X6916738Y-6300500D01*
X6916740Y-6300500D01*
X7883262Y-6300500D01*
X7897076Y-6298486D01*
X7951393Y-6290573D01*
X7966826Y-6283027D01*
X8004256Y-6280704D01*
X8022994Y-6292401D01*
X9304652Y-7574059D01*
X9319004Y-7608707D01*
X9313575Y-7630395D01*
X9313682Y-7630440D01*
X9313383Y-7631160D01*
X9313226Y-7631790D01*
X9312766Y-7632651D01*
X9254303Y-7773791D01*
X9254299Y-7773806D01*
X9224500Y-7923614D01*
X9224500Y-8076385D01*
X9254299Y-8226193D01*
X9254304Y-8226212D01*
X9312758Y-8367331D01*
X9312758Y-8367332D01*
X9350139Y-8423277D01*
X9357455Y-8460060D01*
X9336620Y-8491242D01*
X9309397Y-8499500D01*
X8690603Y-8499500D01*
X8655955Y-8485148D01*
X8641603Y-8450500D01*
X8649861Y-8423277D01*
X8665414Y-8400000D01*
X8687239Y-8367337D01*
X8745698Y-8226205D01*
X8775500Y-8076380D01*
X8775500Y-7923620D01*
X8773040Y-7911255D01*
X8745700Y-7773806D01*
X8745698Y-7773795D01*
X8687239Y-7632663D01*
X8644518Y-7568726D01*
X8602372Y-7505650D01*
X8494349Y-7397627D01*
X8403044Y-7336620D01*
X8367337Y-7312761D01*
X8367333Y-7312759D01*
X8367331Y-7312758D01*
X8226212Y-7254304D01*
X8226206Y-7254302D01*
X8226205Y-7254302D01*
X8226202Y-7254301D01*
X8226193Y-7254299D01*
X8076385Y-7224500D01*
X8076380Y-7224500D01*
X7923620Y-7224500D01*
X7923614Y-7224500D01*
X7773806Y-7254299D01*
X7773787Y-7254304D01*
X7632668Y-7312758D01*
X7632664Y-7312760D01*
X7632663Y-7312761D01*
X7631445Y-7313575D01*
X7505650Y-7397627D01*
X7397627Y-7505650D01*
X7312758Y-7632667D01*
X7312758Y-7632668D01*
X7254304Y-7773787D01*
X7254299Y-7773806D01*
X7224500Y-7923614D01*
X7224500Y-8076385D01*
X7254299Y-8226193D01*
X7254304Y-8226212D01*
X7312758Y-8367331D01*
X7312758Y-8367332D01*
X7350139Y-8423277D01*
X7357455Y-8460060D01*
X7336620Y-8491242D01*
X7309397Y-8499500D01*
X6690603Y-8499500D01*
X6655955Y-8485148D01*
X6641603Y-8450500D01*
X6649861Y-8423277D01*
X6665414Y-8400000D01*
X6687239Y-8367337D01*
X6745698Y-8226205D01*
X6775500Y-8076380D01*
X6775500Y-7923620D01*
X6773040Y-7911255D01*
X6745700Y-7773806D01*
X6745698Y-7773795D01*
X6687239Y-7632663D01*
X6644518Y-7568726D01*
X6602372Y-7505650D01*
X6494349Y-7397627D01*
X6403044Y-7336620D01*
X6367337Y-7312761D01*
X6367333Y-7312759D01*
X6367331Y-7312758D01*
X6226212Y-7254304D01*
X6226206Y-7254302D01*
X6226205Y-7254302D01*
X6226202Y-7254301D01*
X6226193Y-7254299D01*
X6076385Y-7224500D01*
X6076380Y-7224500D01*
X5923620Y-7224500D01*
X5923614Y-7224500D01*
X5773806Y-7254299D01*
X5773787Y-7254304D01*
X5632668Y-7312758D01*
X5632664Y-7312760D01*
X5632663Y-7312761D01*
X5631445Y-7313575D01*
X5505650Y-7397627D01*
X5405140Y-7498137D01*
X5370492Y-7512489D01*
X5335844Y-7498137D01*
X3496354Y-5658647D01*
X3482002Y-5623999D01*
X3496354Y-5589351D01*
X3531002Y-5574999D01*
X3625000Y-5574999D01*
X3725000Y-5574999D01*
X3919788Y-5574999D01*
X3919794Y-5574998D01*
X3944876Y-5572089D01*
X4047479Y-5526786D01*
X4126786Y-5447479D01*
X4172090Y-5344873D01*
X4174998Y-5319810D01*
X4175000Y-5319790D01*
X4175000Y-5050000D01*
X3725000Y-5050000D01*
X3725000Y-5574999D01*
X3625000Y-5574999D01*
X3625000Y-4950000D01*
X3725000Y-4950000D01*
X4174999Y-4950000D01*
X4174999Y-4680212D01*
X4174998Y-4680205D01*
X4172089Y-4655123D01*
X4126786Y-4552520D01*
X4047479Y-4473213D01*
X4047480Y-4473213D01*
X3944873Y-4427909D01*
X3919810Y-4425001D01*
X3919790Y-4425000D01*
X3725000Y-4425000D01*
X3725000Y-4950000D01*
X3625000Y-4950000D01*
X3625000Y-4425000D01*
X3430212Y-4425000D01*
X3430205Y-4425001D01*
X3405121Y-4427910D01*
X3374291Y-4441523D01*
X3336798Y-4442389D01*
X3309675Y-4416489D01*
X3305500Y-4396698D01*
X3305500Y-4374870D01*
X3305499Y-4374869D01*
X3288230Y-4310420D01*
X3278207Y-4273013D01*
X3278206Y-4273012D01*
X3278206Y-4273010D01*
X3242290Y-4210803D01*
X3225480Y-4181687D01*
X3150913Y-4107120D01*
X3136248Y-4098653D01*
X3059589Y-4054393D01*
X3059585Y-4054392D01*
X2957730Y-4027100D01*
X2957727Y-4027100D01*
X2895877Y-4027100D01*
X2861229Y-4012748D01*
X2846877Y-3978100D01*
X2848547Y-3965418D01*
X2856099Y-3937230D01*
X2856100Y-3937230D01*
X2856100Y-3831770D01*
X2856099Y-3831769D01*
X2843989Y-3786573D01*
X2828807Y-3729913D01*
X2828806Y-3729912D01*
X2828806Y-3729910D01*
X2789887Y-3662502D01*
X2776080Y-3638587D01*
X2701513Y-3564020D01*
X2610189Y-3511293D01*
X2610185Y-3511292D01*
X2508330Y-3484000D01*
X2508327Y-3484000D01*
X2402873Y-3484000D01*
X2402870Y-3484000D01*
X2301014Y-3511292D01*
X2301010Y-3511293D01*
X2209686Y-3564020D01*
X2209686Y-3564021D01*
X2135121Y-3638586D01*
X2135120Y-3638586D01*
X2082393Y-3729910D01*
X2082392Y-3729914D01*
X2055100Y-3831769D01*
X2055100Y-3937226D01*
X2064338Y-3971705D01*
X2059442Y-4008888D01*
X2051655Y-4019035D01*
X1760274Y-4310418D01*
X1667091Y-4403601D01*
X1667090Y-4403602D01*
X1660541Y-4410151D01*
X1625895Y-4424500D01*
X1511865Y-4424500D01*
X1511860Y-4424501D01*
X1464454Y-4430740D01*
X1360420Y-4479253D01*
X1360418Y-4479254D01*
X1279254Y-4560418D01*
X1279253Y-4560420D01*
X1230742Y-4664452D01*
X1230741Y-4664453D01*
X1228667Y-4680212D01*
X1225503Y-4704248D01*
X1224500Y-4711864D01*
X1224500Y-5288132D01*
X1224501Y-5288138D01*
X1230740Y-5335545D01*
X1279253Y-5439579D01*
X1279254Y-5439581D01*
X1360418Y-5520745D01*
X1360420Y-5520746D01*
X1360421Y-5520747D01*
X1464455Y-5569259D01*
X1511861Y-5575500D01*
X2038138Y-5575499D01*
X2085545Y-5569259D01*
X2189579Y-5520747D01*
X2270747Y-5439579D01*
X2319259Y-5335545D01*
X2325500Y-5288139D01*
X2325499Y-4711862D01*
X2319259Y-4664455D01*
X2319258Y-4664453D01*
X2290308Y-4602370D01*
X2270747Y-4560421D01*
X2270746Y-4560420D01*
X2270745Y-4560418D01*
X2194564Y-4484238D01*
X2180212Y-4449590D01*
X2194564Y-4414942D01*
X2242175Y-4367331D01*
X2321064Y-4288442D01*
X2355711Y-4274091D01*
X2368392Y-4275760D01*
X2373786Y-4277206D01*
X2402871Y-4285000D01*
X2464723Y-4285000D01*
X2499371Y-4299352D01*
X2513723Y-4334000D01*
X2512053Y-4346682D01*
X2504500Y-4374869D01*
X2504500Y-4480330D01*
X2531792Y-4582185D01*
X2531793Y-4582189D01*
X2574382Y-4655954D01*
X2584520Y-4673513D01*
X2659087Y-4748080D01*
X2689999Y-4765927D01*
X2712830Y-4795679D01*
X2714500Y-4808362D01*
X2714500Y-5374594D01*
X2731957Y-5416738D01*
X2743502Y-5444610D01*
X2797090Y-5498198D01*
X2797091Y-5498198D01*
X2803982Y-5505089D01*
X2803981Y-5505089D01*
X2803983Y-5505090D01*
X5210148Y-7911255D01*
X5224500Y-7945903D01*
X5224500Y-8076385D01*
X5254299Y-8226193D01*
X5254304Y-8226212D01*
X5312758Y-8367331D01*
X5312758Y-8367332D01*
X5350139Y-8423277D01*
X5357455Y-8460060D01*
X5336620Y-8491242D01*
X5309397Y-8499500D01*
X4690603Y-8499500D01*
X4655955Y-8485148D01*
X4641603Y-8450500D01*
X4649861Y-8423277D01*
X4665414Y-8400000D01*
X4687239Y-8367337D01*
X4745698Y-8226205D01*
X4775500Y-8076380D01*
X4775500Y-7923620D01*
X4773040Y-7911255D01*
X4745700Y-7773806D01*
X4745698Y-7773795D01*
X4687239Y-7632663D01*
X4644518Y-7568726D01*
X4602372Y-7505650D01*
X4494349Y-7397627D01*
X4403044Y-7336620D01*
X4367337Y-7312761D01*
X4367333Y-7312759D01*
X4367331Y-7312758D01*
X4226212Y-7254304D01*
X4226206Y-7254302D01*
X4226205Y-7254302D01*
X4226202Y-7254301D01*
X4226193Y-7254299D01*
X4076385Y-7224500D01*
X4076380Y-7224500D01*
X3923620Y-7224500D01*
X3923614Y-7224500D01*
X3773806Y-7254299D01*
X3773787Y-7254304D01*
X3632668Y-7312758D01*
X3632664Y-7312760D01*
X3632663Y-7312761D01*
X3631445Y-7313575D01*
X3505650Y-7397627D01*
X3397627Y-7505650D01*
X3312758Y-7632667D01*
X3312758Y-7632668D01*
X3254304Y-7773787D01*
X3254299Y-7773806D01*
X3224500Y-7923614D01*
X3224500Y-8076385D01*
X3254299Y-8226193D01*
X3254304Y-8226212D01*
X3312758Y-8367331D01*
X3312758Y-8367332D01*
X3350139Y-8423277D01*
X3357455Y-8460060D01*
X3336620Y-8491242D01*
X3309397Y-8499500D01*
X2690603Y-8499500D01*
X2655955Y-8485148D01*
X2641603Y-8450500D01*
X2649861Y-8423277D01*
X2665414Y-8400000D01*
X2687239Y-8367337D01*
X2745698Y-8226205D01*
X2775500Y-8076380D01*
X2775500Y-7923620D01*
X2773040Y-7911255D01*
X2745700Y-7773806D01*
X2745698Y-7773795D01*
X2687239Y-7632663D01*
X2644518Y-7568726D01*
X2602372Y-7505650D01*
X2494349Y-7397627D01*
X2403044Y-7336620D01*
X2367337Y-7312761D01*
X2367333Y-7312759D01*
X2367331Y-7312758D01*
X2226212Y-7254304D01*
X2226206Y-7254302D01*
X2226205Y-7254302D01*
X2226202Y-7254301D01*
X2226193Y-7254299D01*
X2076385Y-7224500D01*
X2076380Y-7224500D01*
X1923620Y-7224500D01*
X1923614Y-7224500D01*
X1773806Y-7254299D01*
X1773787Y-7254304D01*
X1632668Y-7312758D01*
X1632664Y-7312760D01*
X1632663Y-7312761D01*
X1631445Y-7313575D01*
X1505650Y-7397627D01*
X1397627Y-7505650D01*
X1312758Y-7632667D01*
X1312758Y-7632668D01*
X1254304Y-7773787D01*
X1254299Y-7773806D01*
X1224500Y-7923614D01*
X1224500Y-8076385D01*
X1254299Y-8226193D01*
X1254304Y-8226212D01*
X1312758Y-8367331D01*
X1312758Y-8367332D01*
X1350139Y-8423277D01*
X1357455Y-8460060D01*
X1336620Y-8491242D01*
X1309397Y-8499500D01*
X690603Y-8499500D01*
X655955Y-8485148D01*
X641603Y-8450500D01*
X649861Y-8423277D01*
X665414Y-8400000D01*
X687239Y-8367337D01*
X745698Y-8226205D01*
X775500Y-8076380D01*
X775500Y-7923620D01*
X773040Y-7911255D01*
X745700Y-7773806D01*
X745698Y-7773795D01*
X687239Y-7632663D01*
X644518Y-7568726D01*
X602372Y-7505650D01*
X494349Y-7397627D01*
X403044Y-7336620D01*
X367337Y-7312761D01*
X367333Y-7312759D01*
X367331Y-7312758D01*
X226212Y-7254304D01*
X226206Y-7254302D01*
X226205Y-7254302D01*
X226202Y-7254301D01*
X226193Y-7254299D01*
X76385Y-7224500D01*
X76380Y-7224500D01*
X-76380Y-7224500D01*
X-76385Y-7224500D01*
X-226193Y-7254299D01*
X-226202Y-7254301D01*
X-226205Y-7254302D01*
X-226206Y-7254302D01*
X-226212Y-7254304D01*
X-367331Y-7312758D01*
X-367333Y-7312759D01*
X-367337Y-7312761D01*
X-403044Y-7336620D01*
X-494349Y-7397627D01*
X-602372Y-7505650D01*
X-644518Y-7568726D01*
X-687239Y-7632663D01*
X-745698Y-7773795D01*
X-745700Y-7773806D01*
X-773040Y-7911255D01*
X-775500Y-7923620D01*
X-775500Y-8076380D01*
X-745698Y-8226205D01*
X-687239Y-8367337D01*
X-665414Y-8400000D01*
X-649861Y-8423277D01*
X-642545Y-8460060D01*
X-663380Y-8491242D01*
X-690603Y-8499500D01*
X-1309397Y-8499500D01*
X-1344045Y-8485148D01*
X-1358397Y-8450500D01*
X-1350139Y-8423277D01*
X-1312758Y-8367332D01*
X-1312758Y-8367331D01*
X-1254304Y-8226212D01*
X-1254299Y-8226193D01*
X-1224500Y-8076385D01*
X-1224500Y-7923614D01*
X-1254299Y-7773806D01*
X-1254304Y-7773787D01*
X-1312758Y-7632668D01*
X-1312758Y-7632667D01*
X-1397627Y-7505650D01*
X-1505650Y-7397627D01*
X-1631445Y-7313575D01*
X-1632663Y-7312761D01*
X-1632664Y-7312760D01*
X-1632668Y-7312758D01*
X-1773787Y-7254304D01*
X-1773806Y-7254299D01*
X-1923614Y-7224500D01*
X-1923620Y-7224500D01*
X-2076380Y-7224500D01*
X-2076385Y-7224500D01*
X-2226193Y-7254299D01*
X-2226202Y-7254301D01*
X-2226205Y-7254302D01*
X-2226206Y-7254302D01*
X-2226212Y-7254304D01*
X-2367331Y-7312758D01*
X-2367333Y-7312759D01*
X-2367337Y-7312761D01*
X-2381221Y-7322038D01*
X-2418002Y-7329354D01*
X-2449185Y-7308519D01*
X-2456501Y-7271737D01*
X-2450878Y-7256796D01*
X-2415193Y-7194989D01*
X-2415192Y-7194985D01*
X-2387900Y-7093130D01*
X-2387900Y-6987669D01*
X-2415192Y-6885814D01*
X-2415499Y-6885074D01*
X-2415498Y-6884670D01*
X-2416024Y-6882711D01*
X-2415498Y-6882570D01*
X-2415494Y-6847571D01*
X-2404874Y-6831681D01*
X-861273Y-5288080D01*
X-324999Y-5288080D01*
X-324998Y-5288085D01*
X-318769Y-5335414D01*
X-270331Y-5439288D01*
X-270330Y-5439290D01*
X-189290Y-5520330D01*
X-189288Y-5520331D01*
X-85415Y-5568768D01*
X-38081Y-5574999D01*
X174999Y-5574999D01*
X275000Y-5574999D01*
X488080Y-5574999D01*
X488085Y-5574998D01*
X535414Y-5568769D01*
X639288Y-5520331D01*
X639290Y-5520330D01*
X720330Y-5439290D01*
X720331Y-5439288D01*
X768768Y-5335415D01*
X775000Y-5288081D01*
X775000Y-5050000D01*
X275000Y-5050000D01*
X275000Y-5574999D01*
X174999Y-5574999D01*
X175000Y-5574998D01*
X175000Y-5050000D01*
X-324999Y-5050000D01*
X-324999Y-5288080D01*
X-861273Y-5288080D01*
X-408647Y-4835454D01*
X-373999Y-4821102D01*
X-339351Y-4835454D01*
X-324999Y-4870102D01*
X-324999Y-4949999D01*
X-325000Y-4950000D01*
X175000Y-4950000D01*
X275000Y-4950000D01*
X774999Y-4950000D01*
X774999Y-4711919D01*
X774998Y-4711914D01*
X768769Y-4664585D01*
X720331Y-4560711D01*
X720330Y-4560709D01*
X639290Y-4479669D01*
X639288Y-4479668D01*
X535415Y-4431231D01*
X488081Y-4425000D01*
X275000Y-4425000D01*
X275000Y-4950000D01*
X175000Y-4950000D01*
X175000Y-4425000D01*
X120102Y-4425000D01*
X85454Y-4410648D01*
X71102Y-4376000D01*
X85453Y-4341353D01*
X910376Y-3516430D01*
X945023Y-3502079D01*
X979671Y-3516431D01*
X987458Y-3526578D01*
X996828Y-3542807D01*
X1027720Y-3596313D01*
X1102287Y-3670880D01*
X1133845Y-3689100D01*
X1193610Y-3723606D01*
X1193612Y-3723606D01*
X1193613Y-3723607D01*
X1266012Y-3743006D01*
X1295469Y-3750899D01*
X1295470Y-3750900D01*
X1295473Y-3750900D01*
X1400930Y-3750900D01*
X1400930Y-3750899D01*
X1502787Y-3723607D01*
X1512371Y-3718074D01*
X1515023Y-3716542D01*
X1594113Y-3670880D01*
X1668680Y-3596313D01*
X1721024Y-3505650D01*
X1721406Y-3504989D01*
X1721406Y-3504988D01*
X1721407Y-3504987D01*
X1748699Y-3403130D01*
X1748700Y-3403130D01*
X1748700Y-3297670D01*
X1748699Y-3297669D01*
X1731885Y-3234918D01*
X1721407Y-3195813D01*
X1721406Y-3195812D01*
X1721406Y-3195810D01*
X1694379Y-3148999D01*
X1689484Y-3111817D01*
X1712314Y-3082064D01*
X1736814Y-3075499D01*
X2069858Y-3075499D01*
X2069864Y-3075499D01*
X2094991Y-3072585D01*
X2197765Y-3027206D01*
X2277206Y-2947765D01*
X2322585Y-2844991D01*
X2325500Y-2819865D01*
X2325500Y-2788085D01*
X3175001Y-2788085D01*
X3181230Y-2835414D01*
X3229668Y-2939288D01*
X3229669Y-2939290D01*
X3310709Y-3020330D01*
X3310711Y-3020331D01*
X3414584Y-3068768D01*
X3461918Y-3074999D01*
X3674999Y-3074999D01*
X3775000Y-3074999D01*
X3988080Y-3074999D01*
X3988085Y-3074998D01*
X4035414Y-3068769D01*
X4139288Y-3020331D01*
X4139290Y-3020330D01*
X4220330Y-2939290D01*
X4220331Y-2939288D01*
X4268768Y-2835415D01*
X4275000Y-2788081D01*
X4275000Y-2550000D01*
X3775000Y-2550000D01*
X3775000Y-3074999D01*
X3674999Y-3074999D01*
X3675000Y-3074998D01*
X3675000Y-2550000D01*
X3175001Y-2550000D01*
X3175001Y-2788085D01*
X2325500Y-2788085D01*
X2325499Y-2494352D01*
X2325499Y-2211918D01*
X3175000Y-2211918D01*
X3175000Y-2450000D01*
X3675000Y-2450000D01*
X3675000Y-1925000D01*
X3461919Y-1925000D01*
X3461914Y-1925001D01*
X3414585Y-1931230D01*
X3310711Y-1979668D01*
X3310709Y-1979669D01*
X3229669Y-2060709D01*
X3229668Y-2060711D01*
X3181231Y-2164584D01*
X3175000Y-2211918D01*
X2325499Y-2211918D01*
X2325499Y-2210311D01*
X2325499Y-2180141D01*
X2325498Y-2180135D01*
X2322585Y-2155009D01*
X2277206Y-2052235D01*
X2277205Y-2052234D01*
X2277205Y-2052233D01*
X2197766Y-1972794D01*
X2197767Y-1972794D01*
X2094993Y-1927415D01*
X2069865Y-1924500D01*
X2064500Y-1924500D01*
X2029852Y-1910148D01*
X2015500Y-1875500D01*
X2015500Y-1135642D01*
X2022064Y-1111143D01*
X2035607Y-1087687D01*
X2062899Y-985830D01*
X2062900Y-985830D01*
X2062900Y-880370D01*
X2062899Y-880369D01*
X2049083Y-828807D01*
X2035607Y-778513D01*
X2035606Y-778512D01*
X2035606Y-778510D01*
X1993888Y-706254D01*
X1982880Y-687187D01*
X1954840Y-659147D01*
X1940488Y-624499D01*
X1954840Y-589851D01*
X1989488Y-575499D01*
X2069858Y-575499D01*
X2069864Y-575499D01*
X2094991Y-572585D01*
X2197765Y-527206D01*
X2277206Y-447765D01*
X2322585Y-344991D01*
X2325500Y-319865D01*
X2325499Y319864D01*
X2322585Y344991D01*
X2277206Y447765D01*
X2197765Y527206D01*
X2094991Y572585D01*
X2069865Y575500D01*
X1680001Y575499D01*
X1645354Y589851D01*
X1631002Y624499D01*
X1645354Y659147D01*
X1950420Y964212D01*
X2312347Y1326139D01*
X2346995Y1340491D01*
X2371485Y1333932D01*
X2373107Y1332995D01*
X2373117Y1332991D01*
X2474969Y1305700D01*
X2474973Y1305700D01*
X2580430Y1305700D01*
X2682285Y1332992D01*
X2682289Y1332993D01*
X2773613Y1385720D01*
X2848179Y1460286D01*
X2849336Y1462289D01*
X2877627Y1511290D01*
X2900906Y1551610D01*
X2900907Y1551614D01*
X2901620Y1554273D01*
X2928199Y1653469D01*
X2928200Y1653470D01*
X2928200Y1758930D01*
X2911824Y1820043D01*
X2900907Y1860787D01*
X2900275Y1861881D01*
X2884127Y1889851D01*
X2848180Y1952113D01*
X2773613Y2026680D01*
X2682287Y2079407D01*
X2641543Y2090324D01*
X2580430Y2106700D01*
X2580427Y2106700D01*
X2474973Y2106700D01*
X2474970Y2106700D01*
X2376782Y2080390D01*
X2339600Y2085285D01*
X2316770Y2115038D01*
X2319276Y2147513D01*
X2322583Y2155004D01*
X2322584Y2155006D01*
X2322584Y2155007D01*
X2322585Y2155009D01*
X2325500Y2180135D01*
X2325499Y2819864D01*
X2322585Y2844991D01*
X2277206Y2947765D01*
X2197765Y3027206D01*
X2094991Y3072585D01*
X2069865Y3075500D01*
X1656799Y3075499D01*
X1622152Y3089851D01*
X1607800Y3124499D01*
X1607800Y3715850D01*
X1607801Y3715864D01*
X1607801Y3795589D01*
X1607801Y3795592D01*
X1578799Y3865609D01*
X689850Y4754555D01*
X675499Y4789203D01*
X675499Y5319858D01*
X675499Y5319864D01*
X672585Y5344991D01*
X627206Y5447765D01*
X547765Y5527206D01*
X444991Y5572585D01*
X419865Y5575500D01*
X-69864Y5575499D01*
X-94991Y5572585D01*
X-197765Y5527206D01*
X-277206Y5447765D01*
X-322585Y5344991D01*
X-325500Y5319865D01*
X-325499Y4680136D01*
X-322585Y4655009D01*
X-299343Y4602372D01*
X-277205Y4552233D01*
X-197766Y4472794D01*
X-197767Y4472794D01*
X-94993Y4427415D01*
X-82428Y4425957D01*
X-69865Y4424500D01*
X-69863Y4424500D01*
X419858Y4424500D01*
X419868Y4424501D01*
X434794Y4426232D01*
X444991Y4427415D01*
X448652Y4427840D01*
X448819Y4426398D01*
X480877Y4422291D01*
X491172Y4414419D01*
X1212448Y3693144D01*
X1226800Y3658496D01*
X1226800Y2599203D01*
X1212448Y2564555D01*
X754187Y2106294D01*
X719539Y2091942D01*
X684891Y2106294D01*
X670539Y2140942D01*
X672258Y2153808D01*
X672583Y2155004D01*
X672585Y2155009D01*
X675500Y2180135D01*
X675499Y2819864D01*
X672585Y2844991D01*
X627206Y2947765D01*
X547765Y3027206D01*
X444991Y3072585D01*
X419865Y3075500D01*
X-69864Y3075499D01*
X-94991Y3072585D01*
X-197765Y3027206D01*
X-203695Y3021276D01*
X-238342Y3006922D01*
X-272991Y3021272D01*
X-287345Y3055919D01*
X-285675Y3068604D01*
X-263900Y3149869D01*
X-263900Y3255330D01*
X-291192Y3357185D01*
X-291193Y3357189D01*
X-343920Y3448513D01*
X-418486Y3523079D01*
X-418487Y3523080D01*
X-451913Y3542378D01*
X-509810Y3575806D01*
X-509812Y3575806D01*
X-509813Y3575807D01*
X-535278Y3582630D01*
X-611670Y3603100D01*
X-611673Y3603100D01*
X-717127Y3603100D01*
X-717130Y3603100D01*
X-778243Y3586724D01*
X-818987Y3575807D01*
X-851501Y3557034D01*
X-888681Y3552139D01*
X-918435Y3574969D01*
X-925000Y3599470D01*
X-925000Y3725000D01*
X-1450000Y3725000D01*
X-1450000Y3225000D01*
X-1211919Y3225000D01*
X-1211914Y3225001D01*
X-1164585Y3231230D01*
X-1134608Y3245209D01*
X-1126460Y3245564D01*
X-1119316Y3249500D01*
X-1108445Y3246351D01*
X-1097140Y3246845D01*
X-1091127Y3241334D01*
X-1083294Y3239066D01*
X-1079076Y3230291D01*
X-1069491Y3221508D01*
X-1065200Y3206216D01*
X-1064900Y3203518D01*
X-1064900Y3149873D01*
X-1054700Y3111808D01*
X-1054291Y3108126D01*
X-1058555Y3093404D01*
X-1060555Y3078211D01*
X-1064411Y3073184D01*
X-1064725Y3072104D01*
X-1065619Y3071611D01*
X-1068339Y3068066D01*
X-1224204Y2912202D01*
X-1346555Y2789851D01*
X-1381203Y2775499D01*
X-1788138Y2775499D01*
X-1835545Y2769259D01*
X-1939579Y2720747D01*
X-2020747Y2639579D01*
X-2069259Y2535545D01*
X-2075500Y2488139D01*
X-2075499Y1961862D01*
X-2071008Y1927744D01*
X-2069259Y1914454D01*
X-2048375Y1869669D01*
X-2020747Y1810421D01*
X-2020746Y1810420D01*
X-2020745Y1810418D01*
X-2013152Y1802825D01*
X-1998800Y1768177D01*
X-1998800Y1148999D01*
X-2013152Y1114351D01*
X-2047800Y1099999D01*
X-2600250Y1099999D01*
X-2600250Y598750D01*
X-2614602Y564102D01*
X-2649250Y549750D01*
X-2650250Y549750D01*
X-2650250Y548750D01*
X-2664602Y514102D01*
X-2699250Y499750D01*
X-3400499Y499750D01*
X-3400499Y89655D01*
X-3400498Y89654D01*
X-3394697Y60481D01*
X-3394695Y60477D01*
X-3372776Y27673D01*
X-3365459Y-9109D01*
X-3372776Y-26773D01*
X-3372955Y-27042D01*
X-3372957Y-27043D01*
X-3379215Y-36409D01*
X-3395169Y-60286D01*
X-3395169Y-60287D01*
X-3401000Y-89601D01*
X-3400999Y-1009898D01*
X-3395169Y-1039213D01*
X-3372957Y-1072457D01*
X-3339713Y-1094669D01*
X-3310399Y-1100500D01*
X-1990102Y-1100499D01*
X-1960787Y-1094669D01*
X-1960784Y-1094667D01*
X-1960783Y-1094667D01*
X-1927543Y-1072457D01*
X-1905330Y-1039213D01*
X-1905330Y-1039212D01*
X-1899500Y-1009904D01*
X-1899500Y-789300D01*
X-1885148Y-754652D01*
X-1850500Y-740300D01*
X-1770409Y-740300D01*
X-1770407Y-740300D01*
X-1700390Y-711298D01*
X-1700389Y-711297D01*
X-1695932Y-709451D01*
X-1694950Y-711819D01*
X-1667040Y-706254D01*
X-1635847Y-727074D01*
X-1629246Y-741635D01*
X-1623065Y-764703D01*
X-1608707Y-818287D01*
X-1555980Y-909613D01*
X-1481413Y-984180D01*
X-1390087Y-1036907D01*
X-1288230Y-1064199D01*
X-1288230Y-1064200D01*
X-1288227Y-1064200D01*
X-1182770Y-1064200D01*
X-1182769Y-1064199D01*
X-1161247Y-1058432D01*
X-1080913Y-1036907D01*
X-1080912Y-1036906D01*
X-1080910Y-1036906D01*
X-1027089Y-1005831D01*
X-1007799Y-994694D01*
X-970618Y-989800D01*
X-940865Y-1012630D01*
X-934300Y-1037130D01*
X-934300Y-1737783D01*
X-948652Y-1772431D01*
X-983300Y-1786783D01*
X-1017948Y-1772431D01*
X-1060709Y-1729669D01*
X-1060711Y-1729668D01*
X-1164584Y-1681231D01*
X-1211919Y-1675000D01*
X-1450000Y-1675000D01*
X-1450000Y-2774999D01*
X-1211920Y-2774999D01*
X-1211914Y-2774998D01*
X-1164585Y-2768769D01*
X-1060711Y-2720331D01*
X-1060709Y-2720330D01*
X-1017948Y-2677569D01*
X-983300Y-2663217D01*
X-948652Y-2677569D01*
X-934300Y-2712217D01*
X-934300Y-2749996D01*
X-948652Y-2784644D01*
X-1374155Y-3210148D01*
X-1408803Y-3224500D01*
X-1788132Y-3224500D01*
X-1788138Y-3224501D01*
X-1835545Y-3230740D01*
X-1939579Y-3279253D01*
X-1939581Y-3279254D01*
X-2020745Y-3360418D01*
X-2020746Y-3360420D01*
X-2020747Y-3360421D01*
X-2069259Y-3464455D01*
X-2074595Y-3504987D01*
X-2075500Y-3511864D01*
X-2075500Y-3535500D01*
X-2089852Y-3570148D01*
X-2124500Y-3584500D01*
X-2875501Y-3584500D01*
X-2910149Y-3570148D01*
X-2924501Y-3535500D01*
X-2924501Y-3511861D01*
X-2930740Y-3464454D01*
X-2979253Y-3360420D01*
X-2979254Y-3360418D01*
X-3060418Y-3279254D01*
X-3060420Y-3279253D01*
X-3164452Y-3230742D01*
X-3164453Y-3230741D01*
X-3183417Y-3228244D01*
X-3211861Y-3224500D01*
X-3211863Y-3224500D01*
X-3211864Y-3224500D01*
X-3788132Y-3224500D01*
X-3788138Y-3224501D01*
X-3835545Y-3230740D01*
X-3939579Y-3279253D01*
X-3939581Y-3279254D01*
X-4020745Y-3360418D01*
X-4020746Y-3360420D01*
X-4020747Y-3360421D01*
X-4069259Y-3464455D01*
X-4075500Y-3511861D01*
X-4075499Y-3757298D01*
X-4075499Y-3785096D01*
X-4089851Y-3819744D01*
X-4124499Y-3834096D01*
X-4159147Y-3819744D01*
X-4166298Y-3812593D01*
X-4559690Y-3419202D01*
X-4952901Y-3025991D01*
X-4952902Y-3025990D01*
X-4956618Y-3022274D01*
X-4958100Y-3020791D01*
X-4965485Y-3002950D01*
X-4972445Y-2986144D01*
X-4972444Y-2986142D01*
X-4972445Y-2986140D01*
X-4967040Y-2973098D01*
X-4958093Y-2951501D01*
X-4958087Y-2951495D01*
X-4927102Y-2920510D01*
X-4924309Y-2917717D01*
X-4924306Y-2917713D01*
X-4649136Y-2642543D01*
X-4614488Y-2628191D01*
X-4601809Y-2629860D01*
X-4576946Y-2636522D01*
X-4567328Y-2639100D01*
X-4567327Y-2639100D01*
X-4461870Y-2639100D01*
X-4461869Y-2639099D01*
X-4400066Y-2622539D01*
X-4360013Y-2611807D01*
X-4360012Y-2611806D01*
X-4360010Y-2611806D01*
X-4302113Y-2578378D01*
X-4268687Y-2559080D01*
X-4194120Y-2484513D01*
X-4166433Y-2436558D01*
X-4136681Y-2413729D01*
X-4099499Y-2418624D01*
X-4076669Y-2448377D01*
X-4074999Y-2461059D01*
X-4074999Y-2488080D01*
X-4074998Y-2488085D01*
X-4068769Y-2535414D01*
X-4020331Y-2639288D01*
X-4020330Y-2639290D01*
X-3939290Y-2720330D01*
X-3939288Y-2720331D01*
X-3835415Y-2768768D01*
X-3788081Y-2774999D01*
X-3550000Y-2774999D01*
X-3450000Y-2774999D01*
X-3211920Y-2774999D01*
X-3211914Y-2774998D01*
X-3164585Y-2768769D01*
X-3060711Y-2720331D01*
X-3060709Y-2720330D01*
X-2979669Y-2639290D01*
X-2979668Y-2639288D01*
X-2931231Y-2535415D01*
X-2925000Y-2488081D01*
X-2925000Y-2488080D01*
X-2074999Y-2488080D01*
X-2074998Y-2488085D01*
X-2068769Y-2535414D01*
X-2020331Y-2639288D01*
X-2020330Y-2639290D01*
X-1939290Y-2720330D01*
X-1939288Y-2720331D01*
X-1835415Y-2768768D01*
X-1788081Y-2774999D01*
X-1550000Y-2774999D01*
X-1550000Y-2275000D01*
X-2074999Y-2275000D01*
X-2074999Y-2488080D01*
X-2925000Y-2488080D01*
X-2925000Y-2275000D01*
X-3450000Y-2275000D01*
X-3450000Y-2774999D01*
X-3550000Y-2774999D01*
X-3550000Y-2175000D01*
X-3450000Y-2175000D01*
X-2925001Y-2175000D01*
X-2925001Y-1961918D01*
X-2075000Y-1961918D01*
X-2075000Y-2175000D01*
X-1550000Y-2175000D01*
X-1550000Y-1675000D01*
X-1788080Y-1675000D01*
X-1788085Y-1675001D01*
X-1835414Y-1681230D01*
X-1939288Y-1729668D01*
X-1939290Y-1729669D01*
X-2020330Y-1810709D01*
X-2020331Y-1810711D01*
X-2068768Y-1914584D01*
X-2075000Y-1961918D01*
X-2925001Y-1961918D01*
X-2925001Y-1961914D01*
X-2931230Y-1914585D01*
X-2979668Y-1810711D01*
X-2979669Y-1810709D01*
X-3060709Y-1729669D01*
X-3060711Y-1729668D01*
X-3164584Y-1681231D01*
X-3211919Y-1675000D01*
X-3450000Y-1675000D01*
X-3450000Y-2175000D01*
X-3550000Y-2175000D01*
X-3550000Y-1675000D01*
X-3788080Y-1675000D01*
X-3788085Y-1675001D01*
X-3835414Y-1681230D01*
X-3939288Y-1729668D01*
X-3939290Y-1729669D01*
X-4020330Y-1810709D01*
X-4020331Y-1810711D01*
X-4068768Y-1914584D01*
X-4074999Y-1961918D01*
X-4074999Y-2016138D01*
X-4089350Y-2050787D01*
X-4123998Y-2065139D01*
X-4158647Y-2050788D01*
X-4166434Y-2040640D01*
X-4192131Y-1996132D01*
X-4194120Y-1992687D01*
X-4194120Y-1992686D01*
X-4194122Y-1992684D01*
X-4268686Y-1918121D01*
X-4268686Y-1918120D01*
X-4360010Y-1865393D01*
X-4360014Y-1865392D01*
X-4461870Y-1838100D01*
X-4461873Y-1838100D01*
X-4567327Y-1838100D01*
X-4567330Y-1838100D01*
X-4669185Y-1865392D01*
X-4669189Y-1865393D01*
X-4760513Y-1918120D01*
X-4835079Y-1992686D01*
X-4837034Y-1995234D01*
X-4838705Y-1993951D01*
X-4863139Y-2012847D01*
X-4900340Y-2008092D01*
X-4923282Y-1978426D01*
X-4925000Y-1965566D01*
X-4925000Y-1930212D01*
X-4925001Y-1930205D01*
X-4927910Y-1905123D01*
X-4973213Y-1802520D01*
X-5052521Y-1723213D01*
X-5052519Y-1723213D01*
X-5155126Y-1677909D01*
X-5180189Y-1675001D01*
X-5180210Y-1675000D01*
X-5450000Y-1675000D01*
X-5450000Y-2126000D01*
X-5464352Y-2160648D01*
X-5499000Y-2175000D01*
X-5500000Y-2175000D01*
X-5500000Y-2176000D01*
X-5514352Y-2210648D01*
X-5549000Y-2225000D01*
X-6074999Y-2225000D01*
X-6074999Y-2274696D01*
X-6089351Y-2309344D01*
X-6123999Y-2323696D01*
X-6158647Y-2309344D01*
X-6378648Y-2089343D01*
X-6393000Y-2054695D01*
X-6393000Y-1930209D01*
X-6075000Y-1930209D01*
X-6075000Y-2125000D01*
X-5550000Y-2125000D01*
X-5550000Y-1675000D01*
X-5819787Y-1675000D01*
X-5819794Y-1675001D01*
X-5844876Y-1677910D01*
X-5947479Y-1723213D01*
X-6026786Y-1802520D01*
X-6072090Y-1905126D01*
X-6074998Y-1930181D01*
X-6075000Y-1930209D01*
X-6393000Y-1930209D01*
X-6393000Y-1009845D01*
X-5099999Y-1009845D01*
X-5094197Y-1039018D01*
X-5094195Y-1039022D01*
X-5072095Y-1072097D01*
X-5039019Y-1094197D01*
X-5009845Y-1099999D01*
X-4399750Y-1099999D01*
X-4299750Y-1099999D01*
X-3689655Y-1099999D01*
X-3689654Y-1099998D01*
X-3660481Y-1094197D01*
X-3660477Y-1094195D01*
X-3627402Y-1072095D01*
X-3605302Y-1039019D01*
X-3599500Y-1009845D01*
X-3599500Y-599750D01*
X-4299750Y-599750D01*
X-4299750Y-1099999D01*
X-4399750Y-1099999D01*
X-4399750Y-599750D01*
X-5099999Y-599750D01*
X-5099999Y-1009845D01*
X-6393000Y-1009845D01*
X-6393000Y2488139D01*
X-6075500Y2488139D01*
X-6075499Y1961862D01*
X-6071008Y1927744D01*
X-6069259Y1914454D01*
X-6048375Y1869669D01*
X-6020747Y1810421D01*
X-6020746Y1810420D01*
X-6020745Y1810418D01*
X-5939581Y1729254D01*
X-5939579Y1729253D01*
X-5835547Y1680742D01*
X-5835546Y1680741D01*
X-5826063Y1679492D01*
X-5788139Y1674500D01*
X-5788135Y1674500D01*
X-5211867Y1674500D01*
X-5211861Y1674501D01*
X-5164454Y1680740D01*
X-5060420Y1729253D01*
X-5060418Y1729254D01*
X-4979254Y1810418D01*
X-4979253Y1810420D01*
X-4930742Y1914452D01*
X-4930741Y1914453D01*
X-4926099Y1949716D01*
X-4924500Y1961861D01*
X-4924500Y2180141D01*
X-4924500Y2488132D01*
X-4924501Y2488138D01*
X-4926344Y2502138D01*
X-4916636Y2538362D01*
X-4912411Y2543180D01*
X-4736481Y2719109D01*
X-4701833Y2733461D01*
X-4689151Y2731791D01*
X-4591030Y2705500D01*
X-4591027Y2705500D01*
X-4485569Y2705500D01*
X-4383714Y2732792D01*
X-4383710Y2732793D01*
X-4292386Y2785520D01*
X-4292386Y2785521D01*
X-4217821Y2860086D01*
X-4217820Y2860086D01*
X-4165093Y2951410D01*
X-4165092Y2951414D01*
X-4137800Y3053269D01*
X-4137800Y3158730D01*
X-4165092Y3260585D01*
X-4165093Y3260589D01*
X-4217820Y3351913D01*
X-4292386Y3426479D01*
X-4292387Y3426480D01*
X-4330549Y3448513D01*
X-4383710Y3479206D01*
X-4383712Y3479206D01*
X-4383713Y3479207D01*
X-4409178Y3486030D01*
X-4485570Y3506500D01*
X-4485573Y3506500D01*
X-4591027Y3506500D01*
X-4591030Y3506500D01*
X-4652143Y3490124D01*
X-4692887Y3479207D01*
X-4784213Y3426480D01*
X-4858780Y3351913D01*
X-4911507Y3260587D01*
X-4938799Y3158730D01*
X-4938800Y3158730D01*
X-4938800Y3075902D01*
X-4953151Y3041255D01*
X-5082204Y2912202D01*
X-5204555Y2789851D01*
X-5239203Y2775499D01*
X-5788138Y2775499D01*
X-5835545Y2769259D01*
X-5939579Y2720747D01*
X-6020747Y2639579D01*
X-6069259Y2535545D01*
X-6075500Y2488139D01*
X-6393000Y2488139D01*
X-6393000Y2541650D01*
X-6392999Y2541664D01*
X-6392999Y2621393D01*
X-6421667Y2690602D01*
X-6422001Y2691409D01*
X-6422002Y2691410D01*
X-6422002Y2691411D01*
X-7242512Y3511919D01*
X-6074999Y3511919D01*
X-6074998Y3511914D01*
X-6068769Y3464585D01*
X-6020331Y3360711D01*
X-6020330Y3360709D01*
X-5939290Y3279669D01*
X-5939288Y3279668D01*
X-5835415Y3231231D01*
X-5788081Y3225000D01*
X-5550000Y3225000D01*
X-5450000Y3225000D01*
X-5211919Y3225000D01*
X-5211914Y3225001D01*
X-5164585Y3231230D01*
X-5060711Y3279668D01*
X-5060709Y3279669D01*
X-4979669Y3360709D01*
X-4979668Y3360711D01*
X-4931231Y3464584D01*
X-4925000Y3511918D01*
X-4925000Y3511919D01*
X-4074999Y3511919D01*
X-4074998Y3511914D01*
X-4068769Y3464585D01*
X-4020331Y3360711D01*
X-4020330Y3360709D01*
X-3939290Y3279669D01*
X-3939288Y3279668D01*
X-3835415Y3231231D01*
X-3788081Y3225000D01*
X-3550000Y3225000D01*
X-3450000Y3225000D01*
X-3211919Y3225000D01*
X-3211914Y3225001D01*
X-3164585Y3231230D01*
X-3060711Y3279668D01*
X-3060709Y3279669D01*
X-2979669Y3360709D01*
X-2979668Y3360711D01*
X-2931231Y3464584D01*
X-2925000Y3511918D01*
X-2925000Y3725000D01*
X-3450000Y3725000D01*
X-3450000Y3225000D01*
X-3550000Y3225000D01*
X-3550000Y3725000D01*
X-4074999Y3725000D01*
X-4074999Y3511919D01*
X-4925000Y3511919D01*
X-4925000Y3725000D01*
X-5450000Y3725000D01*
X-5450000Y3225000D01*
X-5550000Y3225000D01*
X-5550000Y3725000D01*
X-6074999Y3725000D01*
X-6074999Y3511919D01*
X-7242512Y3511919D01*
X-7304652Y3574059D01*
X-7319004Y3608707D01*
X-7313575Y3630394D01*
X-7313682Y3630439D01*
X-7313384Y3631157D01*
X-7313226Y3631790D01*
X-7312764Y3632654D01*
X-7258340Y3764047D01*
X-7258339Y3764047D01*
X-7258339Y3764049D01*
X-7254305Y3773786D01*
X-7254299Y3773806D01*
X-7224500Y3923614D01*
X-7224500Y4038081D01*
X-6075000Y4038081D01*
X-6075000Y3825000D01*
X-5550000Y3825000D01*
X-5550000Y4324998D01*
X-5450000Y4324998D01*
X-5450000Y3825000D01*
X-4925001Y3825000D01*
X-4925001Y4038081D01*
X-4075000Y4038081D01*
X-4075000Y3825000D01*
X-3550000Y3825000D01*
X-3550000Y4324998D01*
X-3450000Y4324998D01*
X-3450000Y3825000D01*
X-2925001Y3825000D01*
X-2925001Y4038085D01*
X-2931230Y4085414D01*
X-2979668Y4189288D01*
X-2979669Y4189290D01*
X-3060709Y4270330D01*
X-3060711Y4270331D01*
X-3164584Y4318768D01*
X-3211918Y4324999D01*
X-3449999Y4324999D01*
X-3450000Y4324998D01*
X-3550000Y4324998D01*
X-3550000Y4324999D01*
X-3788081Y4324999D01*
X-3788085Y4324998D01*
X-3835414Y4318769D01*
X-3939288Y4270331D01*
X-3939290Y4270330D01*
X-4020330Y4189290D01*
X-4020331Y4189288D01*
X-4068768Y4085415D01*
X-4075000Y4038081D01*
X-4925001Y4038081D01*
X-4925001Y4038085D01*
X-4931230Y4085414D01*
X-4979668Y4189288D01*
X-4979669Y4189290D01*
X-5060709Y4270330D01*
X-5060711Y4270331D01*
X-5164584Y4318768D01*
X-5211918Y4324999D01*
X-5449999Y4324999D01*
X-5450000Y4324998D01*
X-5550000Y4324998D01*
X-5550000Y4324999D01*
X-5788081Y4324999D01*
X-5788085Y4324998D01*
X-5835414Y4318769D01*
X-5939288Y4270331D01*
X-5939290Y4270330D01*
X-6020330Y4189290D01*
X-6020331Y4189288D01*
X-6068768Y4085415D01*
X-6075000Y4038081D01*
X-7224500Y4038081D01*
X-7224500Y4076385D01*
X-7254299Y4226193D01*
X-7254304Y4226212D01*
X-7312758Y4367331D01*
X-7312758Y4367332D01*
X-7397627Y4494349D01*
X-7505650Y4602372D01*
X-7565093Y4642090D01*
X-7632663Y4687239D01*
X-7658733Y4698037D01*
X-7773787Y4745695D01*
X-7773789Y4745695D01*
X-7773795Y4745698D01*
X-7847641Y4760387D01*
X-7923614Y4775499D01*
X-7923616Y4775499D01*
X-7923620Y4775500D01*
X-8076380Y4775500D01*
X-8226205Y4745698D01*
X-8367337Y4687239D01*
X-8423279Y4649859D01*
X-8460059Y4642543D01*
X-8491242Y4663379D01*
X-8499500Y4690602D01*
X-8499500Y5309397D01*
X-8485148Y5344045D01*
X-8450500Y5358397D01*
X-8423277Y5350139D01*
X-8367337Y5312761D01*
X-8367333Y5312759D01*
X-8367331Y5312758D01*
X-8226212Y5254304D01*
X-8226206Y5254302D01*
X-8226205Y5254302D01*
X-8226202Y5254301D01*
X-8226193Y5254299D01*
X-8076385Y5224500D01*
X-8076380Y5224500D01*
X-7923614Y5224500D01*
X-7773806Y5254299D01*
X-7773787Y5254304D01*
X-7632668Y5312758D01*
X-7632667Y5312758D01*
X-7505650Y5397627D01*
X-7397627Y5505650D01*
X-7312758Y5632667D01*
X-7312758Y5632668D01*
X-7254304Y5773787D01*
X-7254299Y5773806D01*
X-7224500Y5923614D01*
X-7224500Y6076385D01*
X-7254299Y6226193D01*
X-7254304Y6226212D01*
X-7312758Y6367331D01*
X-7312758Y6367332D01*
X-7397627Y6494349D01*
X-7505650Y6602372D01*
X-7576722Y6649860D01*
X-7632663Y6687239D01*
X-7721684Y6724113D01*
X-7773787Y6745695D01*
X-7773789Y6745695D01*
X-7773795Y6745698D01*
X-7847641Y6760387D01*
X-7923614Y6775499D01*
X-7923616Y6775499D01*
X-7923620Y6775500D01*
X-8076380Y6775500D01*
X-8226205Y6745698D01*
X-8367337Y6687239D01*
X-8423279Y6649859D01*
X-8460059Y6642543D01*
X-8491242Y6663379D01*
X-8499500Y6690602D01*
X-8499500Y7309397D01*
X-8485148Y7344045D01*
X-8450500Y7358397D01*
X-8423277Y7350139D01*
X-8367337Y7312761D01*
X-8367333Y7312759D01*
X-8367331Y7312758D01*
X-8226212Y7254304D01*
X-8226206Y7254302D01*
X-8226205Y7254302D01*
X-8226202Y7254301D01*
X-8226193Y7254299D01*
X-8076385Y7224500D01*
X-8076380Y7224500D01*
X-7923614Y7224500D01*
X-7773806Y7254299D01*
X-7773787Y7254304D01*
X-7632668Y7312758D01*
X-7632667Y7312758D01*
X-7505650Y7397627D01*
X-7397627Y7505650D01*
X-7312758Y7632667D01*
X-7312758Y7632668D01*
X-7254304Y7773787D01*
X-7254299Y7773806D01*
X-7224500Y7923614D01*
X-7224500Y8076385D01*
X-7254299Y8226193D01*
X-7254304Y8226212D01*
X-7312758Y8367331D01*
X-7312758Y8367332D01*
X-7350139Y8423277D01*
X-7357455Y8460060D01*
X-7336620Y8491242D01*
X-7309397Y8499500D01*
X-6690603Y8499500D01*
X-6655955Y8485148D01*
G37*
G04 #@! TD.AperFunction*
G04 #@! TA.AperFunction,Conductor*
G36*
X11210148Y7494345D02*
G01*
X11224500Y7459697D01*
X11224500Y7315105D01*
X11224500Y7315104D01*
X11224501Y7315102D01*
X11228193Y7296537D01*
X11230332Y7285784D01*
X11230332Y7285783D01*
X11252542Y7252543D01*
X11285787Y7230330D01*
X11315095Y7224500D01*
X11315101Y7224500D01*
X12450500Y7224500D01*
X12485148Y7210148D01*
X12499500Y7175500D01*
X12499500Y-7176000D01*
X12485148Y-7210648D01*
X12450500Y-7225000D01*
X12050000Y-7225000D01*
X12050000Y-7600000D01*
X11950000Y-7600000D01*
X11950000Y-7225000D01*
X11315155Y-7225000D01*
X11315154Y-7225001D01*
X11285981Y-7230802D01*
X11285977Y-7230804D01*
X11252902Y-7252904D01*
X11230802Y-7285980D01*
X11225000Y-7315154D01*
X11225000Y-7950000D01*
X11600000Y-7950000D01*
X11600000Y-8050000D01*
X11225001Y-8050000D01*
X11225001Y-8450500D01*
X11210649Y-8485148D01*
X11176001Y-8499500D01*
X10690603Y-8499500D01*
X10655955Y-8485148D01*
X10641603Y-8450500D01*
X10649861Y-8423277D01*
X10665414Y-8400000D01*
X10687239Y-8367337D01*
X10745698Y-8226205D01*
X10775500Y-8076380D01*
X10775500Y-7923620D01*
X10773040Y-7911255D01*
X10745700Y-7773806D01*
X10745698Y-7773795D01*
X10687239Y-7632663D01*
X10644518Y-7568726D01*
X10602372Y-7505650D01*
X10494349Y-7397627D01*
X10403044Y-7336620D01*
X10367337Y-7312761D01*
X10367333Y-7312759D01*
X10367331Y-7312758D01*
X10226212Y-7254304D01*
X10226206Y-7254302D01*
X10226205Y-7254302D01*
X10226202Y-7254301D01*
X10226193Y-7254299D01*
X10076385Y-7224500D01*
X10076380Y-7224500D01*
X9923620Y-7224500D01*
X9923614Y-7224500D01*
X9773806Y-7254299D01*
X9773791Y-7254303D01*
X9632651Y-7312766D01*
X9631790Y-7313226D01*
X9631463Y-7313258D01*
X9630440Y-7313682D01*
X9630311Y-7313371D01*
X9594466Y-7316889D01*
X9574059Y-7304652D01*
X8807493Y-6538085D01*
X11175001Y-6538085D01*
X11181230Y-6585414D01*
X11229668Y-6689288D01*
X11229669Y-6689290D01*
X11310709Y-6770330D01*
X11310711Y-6770331D01*
X11414584Y-6818768D01*
X11461918Y-6824999D01*
X11699999Y-6824999D01*
X11800000Y-6824999D01*
X12038080Y-6824999D01*
X12038085Y-6824998D01*
X12085414Y-6818769D01*
X12189288Y-6770331D01*
X12189290Y-6770330D01*
X12270330Y-6689290D01*
X12270331Y-6689288D01*
X12318768Y-6585415D01*
X12325000Y-6538081D01*
X12325000Y-6325000D01*
X11800000Y-6325000D01*
X11800000Y-6824999D01*
X11699999Y-6824999D01*
X11700000Y-6824998D01*
X11700000Y-6325000D01*
X11175001Y-6325000D01*
X11175001Y-6538085D01*
X8807493Y-6538085D01*
X8608760Y-6339352D01*
X8281326Y-6011918D01*
X11175000Y-6011918D01*
X11175000Y-6225000D01*
X11700000Y-6225000D01*
X11800000Y-6225000D01*
X12324999Y-6225000D01*
X12324999Y-6011919D01*
X12324998Y-6011914D01*
X12318769Y-5964585D01*
X12270331Y-5860711D01*
X12270330Y-5860709D01*
X12189290Y-5779669D01*
X12189288Y-5779668D01*
X12085415Y-5731231D01*
X12038081Y-5725000D01*
X11800000Y-5725000D01*
X11800000Y-6225000D01*
X11700000Y-6225000D01*
X11700000Y-5725000D01*
X11461919Y-5725000D01*
X11461914Y-5725001D01*
X11414585Y-5731230D01*
X11310711Y-5779668D01*
X11310709Y-5779669D01*
X11229669Y-5860709D01*
X11229668Y-5860711D01*
X11181231Y-5964584D01*
X11175000Y-6011918D01*
X8281326Y-6011918D01*
X8214852Y-5945444D01*
X8200500Y-5910796D01*
X8200500Y-5416738D01*
X8191862Y-5357455D01*
X8190573Y-5348607D01*
X8139198Y-5243517D01*
X8056483Y-5160802D01*
X8003938Y-5135114D01*
X7951396Y-5109428D01*
X7951394Y-5109427D01*
X7883262Y-5099500D01*
X7883260Y-5099500D01*
X7089203Y-5099500D01*
X7082636Y-5096779D01*
X7075571Y-5097566D01*
X7054555Y-5085148D01*
X6993556Y-5024149D01*
X6979204Y-4989501D01*
X6993556Y-4954853D01*
X7028204Y-4940501D01*
X7055594Y-4940501D01*
X7055602Y-4940500D01*
X8750500Y-4940500D01*
X8785148Y-4954852D01*
X8799500Y-4989500D01*
X8799500Y-5033261D01*
X8809427Y-5101394D01*
X8809428Y-5101396D01*
X8813355Y-5109428D01*
X8860802Y-5206483D01*
X8943517Y-5289198D01*
X9048607Y-5340573D01*
X9096884Y-5347606D01*
X9116738Y-5350500D01*
X9116740Y-5350500D01*
X10083262Y-5350500D01*
X10100590Y-5347974D01*
X10151393Y-5340573D01*
X10256483Y-5289198D01*
X10339198Y-5206483D01*
X10390573Y-5101393D01*
X10400500Y-5033260D01*
X10400500Y-4607003D01*
X10414852Y-4572355D01*
X10449500Y-4558003D01*
X10484148Y-4572355D01*
X10798288Y-4886497D01*
X10798289Y-4886497D01*
X10798291Y-4886499D01*
X10868308Y-4915501D01*
X10868310Y-4915501D01*
X10949794Y-4915501D01*
X10949802Y-4915500D01*
X11125501Y-4915500D01*
X11160149Y-4929852D01*
X11174501Y-4964500D01*
X11174501Y-4988138D01*
X11180740Y-5035545D01*
X11229253Y-5139579D01*
X11229254Y-5139581D01*
X11310418Y-5220745D01*
X11310420Y-5220746D01*
X11310421Y-5220747D01*
X11414455Y-5269259D01*
X11461861Y-5275500D01*
X12038138Y-5275499D01*
X12085545Y-5269259D01*
X12189579Y-5220747D01*
X12270747Y-5139579D01*
X12319259Y-5035545D01*
X12325500Y-4988139D01*
X12325499Y-4461862D01*
X12319259Y-4414455D01*
X12319258Y-4414453D01*
X12277778Y-4325499D01*
X12270747Y-4310421D01*
X12270746Y-4310420D01*
X12270745Y-4310418D01*
X12189581Y-4229254D01*
X12189579Y-4229253D01*
X12087574Y-4181687D01*
X12085546Y-4180741D01*
X12076063Y-4179492D01*
X12038139Y-4174500D01*
X12038135Y-4174500D01*
X12014286Y-4174500D01*
X11979638Y-4160148D01*
X11965286Y-4125500D01*
X11979638Y-4090852D01*
X11987064Y-4084758D01*
X12023407Y-4060474D01*
X12023412Y-4060470D01*
X12110471Y-3973411D01*
X12178869Y-3871044D01*
X12225980Y-3757307D01*
X12225982Y-3757298D01*
X12249999Y-3636560D01*
X12250000Y-3636557D01*
X12250000Y-3625000D01*
X11822827Y-3625000D01*
X11825000Y-3619755D01*
X11825000Y-3530245D01*
X11822827Y-3525000D01*
X12250000Y-3525000D01*
X12250000Y-3513443D01*
X12249999Y-3513439D01*
X12225982Y-3392701D01*
X12225980Y-3392692D01*
X12178869Y-3278955D01*
X12110471Y-3176588D01*
X12023411Y-3089528D01*
X11921044Y-3021130D01*
X11921045Y-3021130D01*
X11807307Y-2974019D01*
X11807298Y-2974017D01*
X11686560Y-2950000D01*
X11250000Y-2950000D01*
X11250000Y-3350000D01*
X11150000Y-3350000D01*
X11150000Y-2950000D01*
X10713439Y-2950000D01*
X10592701Y-2974017D01*
X10592692Y-2974019D01*
X10478955Y-3021130D01*
X10376588Y-3089528D01*
X10289528Y-3176588D01*
X10221130Y-3278955D01*
X10174662Y-3391140D01*
X10148143Y-3417659D01*
X10110641Y-3417659D01*
X10094744Y-3407037D01*
X8803990Y-2116283D01*
X8803989Y-2116281D01*
X8803989Y-2116282D01*
X8797098Y-2109390D01*
X8743510Y-2055802D01*
X8673494Y-2026800D01*
X8673493Y-2026800D01*
X7870404Y-2026800D01*
X7835756Y-2012448D01*
X7781955Y-1958647D01*
X7767603Y-1923999D01*
X7781955Y-1889351D01*
X7816603Y-1874999D01*
X8200000Y-1874999D01*
X8300000Y-1874999D01*
X8909845Y-1874999D01*
X8909845Y-1874998D01*
X8939018Y-1869197D01*
X8939022Y-1869195D01*
X8972097Y-1847095D01*
X8994197Y-1814019D01*
X9000000Y-1784845D01*
X9000000Y-1550000D01*
X8300000Y-1550000D01*
X8300000Y-1874999D01*
X8200000Y-1874999D01*
X8200000Y-1450000D01*
X8300000Y-1450000D01*
X8999999Y-1450000D01*
X8999999Y-1215155D01*
X8999998Y-1215154D01*
X8994197Y-1185981D01*
X8994195Y-1185977D01*
X8972095Y-1152902D01*
X8939019Y-1130802D01*
X8909846Y-1125000D01*
X8300000Y-1125000D01*
X8300000Y-1450000D01*
X8200000Y-1450000D01*
X8200000Y-1125000D01*
X7771402Y-1125000D01*
X7736754Y-1110648D01*
X7722402Y-1076000D01*
X7736753Y-1041353D01*
X8263256Y-514851D01*
X8297904Y-500499D01*
X8926000Y-500499D01*
X8960648Y-514851D01*
X8975000Y-549499D01*
X8975000Y-934894D01*
X8975001Y-934898D01*
X8980831Y-964213D01*
X8980831Y-964214D01*
X8980832Y-964215D01*
X8980832Y-964216D01*
X9003042Y-997456D01*
X9003043Y-997457D01*
X9036287Y-1019669D01*
X9065601Y-1025500D01*
X12210398Y-1025499D01*
X12239713Y-1019669D01*
X12272957Y-997457D01*
X12295169Y-964213D01*
X12301000Y-934899D01*
X12300999Y934898D01*
X12295169Y964213D01*
X12272957Y997457D01*
X12239713Y1019669D01*
X12210399Y1025500D01*
X10285699Y1025499D01*
X10251052Y1039851D01*
X10236700Y1074499D01*
X10236700Y3111121D01*
X10251052Y3145769D01*
X10285700Y3160121D01*
X10320348Y3145769D01*
X10376587Y3089529D01*
X10376588Y3089528D01*
X10478955Y3021130D01*
X10478954Y3021130D01*
X10592692Y2974019D01*
X10592701Y2974017D01*
X10713439Y2950000D01*
X11150000Y2950000D01*
X11150000Y3350000D01*
X11250000Y3350000D01*
X11250000Y2950000D01*
X11686560Y2950000D01*
X11807298Y2974017D01*
X11807307Y2974019D01*
X11921044Y3021130D01*
X12023411Y3089528D01*
X12110471Y3176588D01*
X12178869Y3278955D01*
X12225980Y3392692D01*
X12225982Y3392701D01*
X12249999Y3513439D01*
X12250000Y3513443D01*
X12250000Y3525000D01*
X11822827Y3525000D01*
X11825000Y3530245D01*
X11825000Y3619755D01*
X11822827Y3625000D01*
X12250000Y3625000D01*
X12250000Y3636557D01*
X12249999Y3636560D01*
X12225982Y3757298D01*
X12225980Y3757307D01*
X12178869Y3871044D01*
X12110471Y3973411D01*
X12023413Y4060469D01*
X11987063Y4084757D01*
X11966227Y4115939D01*
X11973542Y4152722D01*
X12004724Y4173558D01*
X12014283Y4174500D01*
X12038133Y4174500D01*
X12038139Y4174501D01*
X12085545Y4180740D01*
X12189579Y4229253D01*
X12189581Y4229254D01*
X12270745Y4310418D01*
X12270746Y4310420D01*
X12270747Y4310421D01*
X12319259Y4414455D01*
X12325500Y4461861D01*
X12325499Y4988138D01*
X12319259Y5035545D01*
X12270747Y5139579D01*
X12189579Y5220747D01*
X12085545Y5269259D01*
X12038139Y5275500D01*
X11489202Y5275499D01*
X11454556Y5289850D01*
X10755252Y5989155D01*
X10745825Y6011914D01*
X11175001Y6011914D01*
X11181230Y5964585D01*
X11229668Y5860711D01*
X11229669Y5860709D01*
X11310709Y5779669D01*
X11310711Y5779668D01*
X11414584Y5731231D01*
X11461919Y5725000D01*
X11700000Y5725000D01*
X11800000Y5725000D01*
X12038080Y5725000D01*
X12038085Y5725001D01*
X12085414Y5731230D01*
X12189288Y5779668D01*
X12189290Y5779669D01*
X12270330Y5860709D01*
X12270331Y5860711D01*
X12318768Y5964584D01*
X12325000Y6011918D01*
X12325000Y6225000D01*
X11800000Y6225000D01*
X11800000Y5725000D01*
X11700000Y5725000D01*
X11700000Y6225000D01*
X11175001Y6225000D01*
X11175001Y6011914D01*
X10745825Y6011914D01*
X10740900Y6023803D01*
X10740900Y6538081D01*
X11175000Y6538081D01*
X11175000Y6325000D01*
X11700000Y6325000D01*
X11800000Y6325000D01*
X12324999Y6325000D01*
X12324999Y6538080D01*
X12324998Y6538085D01*
X12318769Y6585414D01*
X12270331Y6689288D01*
X12270330Y6689290D01*
X12189290Y6770330D01*
X12189288Y6770331D01*
X12085415Y6818768D01*
X12038081Y6824999D01*
X11800000Y6824999D01*
X11800000Y6325000D01*
X11700000Y6325000D01*
X11700000Y6824999D01*
X11461919Y6824999D01*
X11461914Y6824998D01*
X11414585Y6818769D01*
X11310711Y6770331D01*
X11310709Y6770330D01*
X11229669Y6689290D01*
X11229668Y6689288D01*
X11181231Y6585415D01*
X11175000Y6538081D01*
X10740900Y6538081D01*
X10740900Y7074096D01*
X10755252Y7108744D01*
X10943045Y7296537D01*
X11140852Y7494345D01*
X11175500Y7508697D01*
X11210148Y7494345D01*
G37*
G04 #@! TD.AperFunction*
G04 #@! TA.AperFunction,Conductor*
G36*
X11250000Y-4200000D02*
G01*
X11260188Y-4210188D01*
X11274540Y-4244836D01*
X11260189Y-4279484D01*
X11229252Y-4310420D01*
X11180742Y-4414452D01*
X11180741Y-4414453D01*
X11179418Y-4424501D01*
X11174695Y-4460386D01*
X11174500Y-4461864D01*
X11174500Y-4485500D01*
X11160148Y-4520148D01*
X11125500Y-4534500D01*
X11005404Y-4534500D01*
X10970756Y-4520148D01*
X10734256Y-4283648D01*
X10719904Y-4249000D01*
X10734256Y-4214352D01*
X10768904Y-4200000D01*
X11150000Y-4200000D01*
X11150000Y-3800000D01*
X11250000Y-3800000D01*
X11250000Y-4200000D01*
G37*
G04 #@! TD.AperFunction*
G04 #@! TA.AperFunction,Conductor*
G36*
X10345548Y6573548D02*
G01*
X10359900Y6538900D01*
X10359900Y5886705D01*
X10388902Y5816689D01*
X10404574Y5801018D01*
X10442490Y5763102D01*
X10442491Y5763101D01*
X11162409Y5043181D01*
X11176761Y5008533D01*
X11176342Y5002142D01*
X11174500Y4988147D01*
X11174500Y4461867D01*
X11174501Y4461861D01*
X11180740Y4414454D01*
X11229252Y4310421D01*
X11260189Y4279484D01*
X11274540Y4244835D01*
X11260188Y4210188D01*
X11250000Y4200000D01*
X11250000Y3800000D01*
X11150000Y3800000D01*
X11150000Y4200000D01*
X10713443Y4200000D01*
X10713442Y4199999D01*
X10685761Y4194493D01*
X10648978Y4201808D01*
X10628142Y4232990D01*
X10627200Y4242551D01*
X10627200Y5109890D01*
X10627200Y5109893D01*
X10598198Y5179910D01*
X10544610Y5233498D01*
X10544609Y5233498D01*
X9970198Y5807909D01*
X9970198Y5807910D01*
X9916610Y5861498D01*
X9846593Y5890500D01*
X9846591Y5890500D01*
X8500065Y5890500D01*
X8465417Y5904852D01*
X8452006Y5929939D01*
X8448466Y5947740D01*
X8393101Y6030601D01*
X8310240Y6085966D01*
X8237174Y6100500D01*
X7012826Y6100500D01*
X6939760Y6085966D01*
X6856898Y6030601D01*
X6801533Y5947739D01*
X6787000Y5874677D01*
X6787000Y5608502D01*
X6772648Y5573854D01*
X6738000Y5559502D01*
X6703352Y5573854D01*
X6644538Y5632668D01*
X6480698Y5796509D01*
X6480698Y5796510D01*
X6427110Y5850098D01*
X6357093Y5879100D01*
X6357091Y5879100D01*
X6063389Y5879100D01*
X6028741Y5893452D01*
X6014389Y5928100D01*
X6028741Y5962748D01*
X6043979Y5977986D01*
X6096706Y6069310D01*
X6096707Y6069314D01*
X6096811Y6069700D01*
X6123999Y6171169D01*
X6124000Y6171170D01*
X6124000Y6276630D01*
X6099696Y6367332D01*
X6096707Y6378487D01*
X6043980Y6469813D01*
X6009541Y6504252D01*
X5995189Y6538900D01*
X6009541Y6573548D01*
X6044189Y6587900D01*
X10310900Y6587900D01*
X10345548Y6573548D01*
G37*
G04 #@! TD.AperFunction*
G04 #@! TD*
M02*
